<?xml version="1.0" encoding="UTF-8" standalone="no"?>
<!-- Created with Inkscape (http://www.inkscape.org/) -->

<svg
   width="94.042137mm"
   height="94.037987mm"
   viewBox="0 0 94.042137 94.037987"
   version="1.1"
   id="svg84975"
   inkscape:version="1.1.2 (0a00cf5339, 2022-02-04)"
   sodipodi:docname="donut-search-fiel.svg"
   xmlns:inkscape="http://www.inkscape.org/namespaces/inkscape"
   xmlns:sodipodi="http://sodipodi.sourceforge.net/DTD/sodipodi-0.dtd"
   xmlns="http://www.w3.org/2000/svg"
   xmlns:svg="http://www.w3.org/2000/svg">
  <sodipodi:namedview
     id="namedview84977"
     pagecolor="#ffffff"
     bordercolor="#666666"
     borderopacity="1.0"
     inkscape:pageshadow="2"
     inkscape:pageopacity="0"
     inkscape:pagecheckerboard="0"
     inkscape:document-units="mm"
     showgrid="false"
     inkscape:snap-bbox="true"
     inkscape:snap-bbox-midpoints="true"
     inkscape:zoom="1.2497775"
     inkscape:cx="125.22229"
     inkscape:cy="140.82507"
     inkscape:window-width="1920"
     inkscape:window-height="1043"
     inkscape:window-x="0"
     inkscape:window-y="0"
     inkscape:window-maximized="1"
     inkscape:current-layer="layer1"
     inkscape:snap-global="true"
     fit-margin-top="0"
     fit-margin-left="0"
     fit-margin-right="0"
     fit-margin-bottom="0"
     inkscape:snap-page="true" />
  <defs
     id="defs84972">
    <rect
       x="324.94064"
       y="190.68707"
       width="172.08688"
       height="47.491261"
       id="rect90729" />
    <rect
       x="324.94064"
       y="190.68707"
       width="172.08688"
       height="47.491261"
       id="rect90729-6" />
    <rect
       x="324.94064"
       y="190.68707"
       width="172.08688"
       height="47.491261"
       id="rect90729-2" />
    <rect
       x="324.94064"
       y="190.68707"
       width="172.08688"
       height="47.491261"
       id="rect90729-2-3" />
    <rect
       x="324.94064"
       y="190.68707"
       width="172.08688"
       height="47.491261"
       id="rect90729-2-3-7" />
  </defs>
  <g
     inkscape:label="Layer 1"
     inkscape:groupmode="layer"
     id="layer1"
     transform="translate(-3.3227639,-2.0369861)">
    <rect
       style="fill:#202020;fill-opacity:1;stroke:none;stroke-width:0.396875;stroke-linejoin:bevel;stroke-miterlimit:4;stroke-dasharray:0.79375, 0.79375;stroke-dashoffset:0;stroke-opacity:1"
       id="rect120650"
       width="94.042137"
       height="94.037987"
       x="3.3227639"
       y="2.0369861" />
    <circle
       style="fill:#a1a1a1;fill-opacity:1;stroke:none;stroke-width:0.488126;stroke-linejoin:bevel"
       id="path85184"
       cx="53.610054"
       cy="54.422817"
       r="26.962305" />
    <circle
       style="fill:#005ae1;fill-opacity:0.329322;stroke:#006ebb;stroke-width:0.396875;stroke-linejoin:bevel;stroke-miterlimit:4;stroke-dasharray:0.79375, 0.79375;stroke-dashoffset:0;stroke-opacity:1"
       id="path85184-8"
       cx="50.343239"
       cy="49.056641"
       r="36.97044" />
    <circle
       style="fill:#a1a1a1;fill-opacity:1;stroke:#006ebb;stroke-width:0.396875;stroke-linejoin:bevel;stroke-miterlimit:4;stroke-dasharray:0.79375, 0.79375;stroke-dashoffset:0;stroke-opacity:1"
       id="path85184-8-9"
       cx="50.343269"
       cy="49.055527"
       r="16.47707" />
    <circle
       style="fill:#c30000;fill-opacity:1;stroke:none;stroke-width:0.00876553;stroke-linejoin:bevel"
       id="path85184-2"
       cx="53.610054"
       cy="54.422817"
       r="0.48417652" />
    <circle
       style="fill:#0f00ff;fill-opacity:1;stroke:none;stroke-width:0.00876553;stroke-linejoin:bevel"
       id="path85184-2-3"
       cx="50.343834"
       cy="49.055984"
       r="0.48417652" />
    <g
       aria-label="actual centre"
       transform="matrix(0.26458333,0,0,0.26458333,-30.073182,1.1544503)"
       id="text90727"
       style="font-size:16px;line-height:1.25;white-space:pre;shape-inside:url(#rect90729)">
      <path
         d="m 325.64453,203.67969 q 0,-0.59375 0.44531,-1.03125 0.45313,-0.44532 1.17969,-0.65625 0.72656,-0.21875 1.42188,-0.32032 0.69531,-0.10937 1.39843,-0.10937 v -0.53906 q -0.0312,-1.02344 -0.41406,-1.47657 -0.39844,-0.47656 -1.00781,-0.47656 -1.23438,0 -2.39844,0.8125 l -0.0937,-1.07031 q 1.20313,-0.70313 2.50781,-0.70313 1.10157,0 1.84375,0.72657 0.75,0.72656 0.8125,1.76562 v 4.88281 h -1.21093 v -0.5625 q -0.0625,0.0625 -0.29688,0.21094 -0.23437,0.14063 -0.90625,0.33594 -0.67187,0.19531 -1.45312,0.19531 -0.91407,0 -1.375,-0.64844 -0.45313,-0.64843 -0.45313,-1.33593 z m 1.17188,-0.0156 q 0,0.42969 0.42187,0.71875 0.42188,0.28906 1.0625,0.28906 0.6875,0 1.23438,-0.28906 0.55468,-0.28906 0.55468,-0.97656 v -1.00781 q -0.49218,0 -1.00781,0.0625 -0.50781,0.0625 -1.05469,0.19531 -0.53906,0.125 -0.875,0.39062 -0.33593,0.26563 -0.33593,0.61719 z"
         style="font-family:'CMU Sans Serif';-inkscape-font-specification:'CMU Sans Serif'"
         id="path120781" />
      <path
         d="m 333.18359,201.91406 q 0,-1.48437 0.95313,-2.64062 0.96094,-1.16407 2.5625,-1.16407 0.75,0 1.24219,0.14844 0.5,0.14063 1.24218,0.55469 l -0.19531,1.05469 q -0.78125,-0.49219 -1.19531,-0.60938 -0.46094,-0.125 -1.10938,-0.125 -1.08593,0 -1.67187,0.82813 -0.58594,0.82031 -0.58594,1.95312 0,1.1875 0.625,1.95313 0.625,0.76562 1.61719,0.76562 1.25,0 2.51562,-0.85937 l 0.0781,1.07031 q -1.26563,0.8125 -2.60938,0.82031 -1.46875,0 -2.46875,-1.09375 -1,-1.10156 -1,-2.65625 z"
         style="font-family:'CMU Sans Serif';-inkscape-font-specification:'CMU Sans Serif'"
         id="path120783" />
      <path
         d="m 340.01172,199.30469 v -0.9375 h 1.375 v -2.01563 h 1.11719 v 2.01563 h 2.25781 v 0.9375 h -2.25781 v 3.9375 q 0,1.39062 0.86718,1.39062 0.67188,0 1.40625,-0.52344 l 0.25782,0.94532 q -1.13282,0.60937 -2.36719,0.60937 -1.3125,0 -1.3125,-2.05469 v -4.30468 z"
         style="font-family:'CMU Sans Serif';-inkscape-font-specification:'CMU Sans Serif'"
         id="path120785" />
      <path
         d="m 346.77734,203.53125 v -5.16406 h 1.25 v 5.35937 q 0.0156,0.5625 0.25782,0.80469 0.25,0.23437 1.01562,0.23437 0.82813,0 1.33594,-0.4375 0.50781,-0.44531 0.57031,-1.02343 0.0156,-0.15625 0.0156,-0.46094 v -4.47656 h 1.25 v 7.11718 h -1.21875 v -0.76562 q -1.08594,0.94531 -2.79688,0.94531 -0.47656,0 -0.82031,-0.15625 -0.33594,-0.14844 -0.50781,-0.34375 -0.16407,-0.19531 -0.25,-0.53906 -0.0859,-0.34375 -0.0937,-0.53906 -0.008,-0.20313 -0.008,-0.55469 z"
         style="font-family:'CMU Sans Serif';-inkscape-font-specification:'CMU Sans Serif'"
         id="path120787" />
      <path
         d="m 354.46484,203.67969 q 0,-0.59375 0.44532,-1.03125 0.45312,-0.44532 1.17968,-0.65625 0.72657,-0.21875 1.42188,-0.32032 0.69531,-0.10937 1.39844,-0.10937 v -0.53906 q -0.0312,-1.02344 -0.41407,-1.47657 -0.39843,-0.47656 -1.00781,-0.47656 -1.23437,0 -2.39844,0.8125 l -0.0937,-1.07031 q 1.20313,-0.70313 2.50782,-0.70313 1.10156,0 1.84375,0.72657 0.75,0.72656 0.8125,1.76562 v 4.88281 h -1.21094 v -0.5625 q -0.0625,0.0625 -0.29688,0.21094 -0.23437,0.14063 -0.90625,0.33594 -0.67187,0.19531 -1.45312,0.19531 -0.91406,0 -1.375,-0.64844 -0.45313,-0.64843 -0.45313,-1.33593 z m 1.17188,-0.0156 q 0,0.42969 0.42187,0.71875 0.42188,0.28906 1.0625,0.28906 0.6875,0 1.23438,-0.28906 0.55469,-0.28906 0.55469,-0.97656 v -1.00781 q -0.49219,0 -1.00782,0.0625 -0.50781,0.0625 -1.05468,0.19531 -0.53907,0.125 -0.875,0.39062 -0.33594,0.26563 -0.33594,0.61719 z"
         style="font-family:'CMU Sans Serif';-inkscape-font-specification:'CMU Sans Serif'"
         id="path120789" />
      <path
         d="m 362.73828,205.48437 v -11.55468 h 1.19531 v 11.55468 z"
         style="font-family:'CMU Sans Serif';-inkscape-font-specification:'CMU Sans Serif'"
         id="path120791" />
      <path
         d="m 371.14453,201.91406 q 0,-1.48437 0.95313,-2.64062 0.96093,-1.16407 2.5625,-1.16407 0.75,0 1.24218,0.14844 0.5,0.14063 1.24219,0.55469 l -0.19531,1.05469 q -0.78125,-0.49219 -1.19531,-0.60938 -0.46094,-0.125 -1.10938,-0.125 -1.08594,0 -1.67187,0.82813 -0.58594,0.82031 -0.58594,1.95312 0,1.1875 0.625,1.95313 0.625,0.76562 1.61719,0.76562 1.25,0 2.51562,-0.85937 l 0.0781,1.07031 q -1.26563,0.8125 -2.60938,0.82031 -1.46875,0 -2.46875,-1.09375 -1,-1.10156 -1,-2.65625 z"
         style="font-family:'CMU Sans Serif';-inkscape-font-specification:'CMU Sans Serif'"
         id="path120793" />
      <path
         d="m 378.23047,201.86719 q 0,-1.58594 0.96094,-2.67188 0.96875,-1.08594 2.26562,-1.08594 0.47656,0 0.90625,0.15625 0.4375,0.14844 0.875,0.5 0.44531,0.35157 0.73438,1.05469 0.28906,0.70313 0.33593,1.67969 v 0.46094 h -4.96093 q 0.0469,1.20312 0.73437,1.96093 0.6875,0.75 1.63281,0.75 1.21875,0 2.42969,-0.88281 l 0.10156,1.05469 q -1.21875,0.8125 -2.53125,0.82031 -1.52343,0 -2.50781,-1.125 -0.97656,-1.13281 -0.97656,-2.67187 z m 1.19531,-0.78125 h 3.96875 q -0.0937,-0.625 -0.34375,-1.05469 -0.25,-0.4375 -0.5625,-0.61719 -0.3125,-0.1875 -0.5625,-0.25 -0.24219,-0.0625 -0.46875,-0.0625 -0.8125,0 -1.34375,0.625 -0.53125,0.625 -0.6875,1.35938 z"
         style="font-family:'CMU Sans Serif';-inkscape-font-specification:'CMU Sans Serif'"
         id="path120795" />
      <path
         d="m 386.06641,205.48437 v -7.20312 h 1.16406 v 1.125 q 0.92969,-1.20313 2.33594,-1.20313 0.59375,0 1.01562,0.17969 0.42969,0.17188 0.64844,0.42969 0.22656,0.25781 0.34375,0.64844 0.125,0.39062 0.15625,0.69531 0.0312,0.30469 0.0312,0.71875 v 4.60937 h -1.25 v -4.49218 q 0,-0.27344 -0.008,-0.42969 -0.008,-0.16406 -0.0937,-0.46094 -0.0859,-0.29687 -0.24219,-0.46875 -0.14844,-0.17969 -0.46094,-0.3125 -0.3125,-0.14062 -0.76562,-0.14062 -0.85157,0 -1.24219,0.71875 -0.38281,0.71875 -0.38281,1.74218 v 3.84375 z"
         style="font-family:'CMU Sans Serif';-inkscape-font-specification:'CMU Sans Serif'"
         id="path120797" />
      <path
         d="m 393.33984,199.30469 v -0.9375 h 1.375 v -2.01563 h 1.11719 v 2.01563 h 2.25781 v 0.9375 h -2.25781 v 3.9375 q 0,1.39062 0.86719,1.39062 0.67187,0 1.40625,-0.52344 l 0.25781,0.94532 q -1.13281,0.60937 -2.36719,0.60937 -1.3125,0 -1.3125,-2.05469 v -4.30468 z"
         style="font-family:'CMU Sans Serif';-inkscape-font-specification:'CMU Sans Serif'"
         id="path120799" />
      <path
         d="m 400.12109,205.48437 v -7.20312 h 1.11719 v 1.44531 q 0.19531,-0.30469 0.46094,-0.58594 0.27344,-0.28125 0.92187,-0.60156 0.64844,-0.32031 1.42188,-0.33594 v 1.07032 q -0.41406,0.0156 -0.83594,0.15625 -0.41406,0.13281 -0.875,0.42968 -0.45312,0.29688 -0.73437,0.90625 -0.28125,0.60938 -0.28125,1.42188 v 3.29687 z"
         style="font-family:'CMU Sans Serif';-inkscape-font-specification:'CMU Sans Serif'"
         id="path120801" />
      <path
         d="m 404.83984,201.86719 q 0,-1.58594 0.96094,-2.67188 0.96875,-1.08594 2.26563,-1.08594 0.47656,0 0.90625,0.15625 0.4375,0.14844 0.875,0.5 0.44531,0.35157 0.73437,1.05469 0.28906,0.70313 0.33594,1.67969 v 0.46094 h -4.96094 q 0.0469,1.20312 0.73438,1.96093 0.6875,0.75 1.63281,0.75 1.21875,0 2.42969,-0.88281 l 0.10156,1.05469 q -1.21875,0.8125 -2.53125,0.82031 -1.52344,0 -2.50781,-1.125 -0.97657,-1.13281 -0.97657,-2.67187 z m 1.19532,-0.78125 h 3.96875 q -0.0937,-0.625 -0.34375,-1.05469 -0.25,-0.4375 -0.5625,-0.61719 -0.3125,-0.1875 -0.5625,-0.25 -0.24219,-0.0625 -0.46875,-0.0625 -0.8125,0 -1.34375,0.625 -0.53125,0.625 -0.6875,1.35938 z"
         style="font-family:'CMU Sans Serif';-inkscape-font-specification:'CMU Sans Serif'"
         id="path120803" />
    </g>
    <g
       aria-label="≈2.5 mm"
       transform="matrix(0.26458333,0,0,0.26458333,-32.434706,15.987299)"
       id="text90727-9"
       style="font-size:16px;line-height:1.25;white-space:pre;shape-inside:url(#rect90729-2)">
      <path
         d="m 336.65234,200.61719 v 1.39843 q -0.82031,0.60938 -1.52343,0.88282 -0.69532,0.26562 -1.45313,0.26562 -0.85937,0 -2,-0.46094 -0.0781,-0.0312 -0.13281,-0.0547 -0.0469,-0.0156 -0.16406,-0.0625 -1.21094,-0.47657 -1.94532,-0.47657 -0.6875,0 -1.35937,0.29688 -0.67188,0.29687 -1.4375,0.95312 v -1.39843 q 0.82031,-0.60938 1.51562,-0.875 0.70313,-0.27344 1.46094,-0.27344 0.85938,0 2.00781,0.46094 0.0859,0.0391 0.125,0.0547 0.0469,0.0156 0.16407,0.0625 1.21093,0.47657 1.94531,0.47657 0.67187,0 1.32812,-0.28907 0.66407,-0.29687 1.46875,-0.96093 z m 0,-3.03907 v 1.39063 q -0.82031,0.61719 -1.52343,0.89062 -0.69532,0.26563 -1.45313,0.26563 -0.85937,0 -2,-0.46094 -0.0781,-0.0312 -0.13281,-0.0547 -0.0469,-0.0156 -0.16406,-0.0625 -1.21094,-0.47656 -1.94532,-0.47656 -0.6875,0 -1.35937,0.29688 -0.67188,0.29687 -1.4375,0.94531 v -1.39063 q 0.82031,-0.60937 1.51562,-0.875 0.70313,-0.27343 1.46094,-0.27343 0.85938,0 2.00781,0.46093 0.0781,0.0312 0.11719,0.0469 0.0547,0.0234 0.17188,0.0703 1.21093,0.47656 1.94531,0.47656 0.67187,0 1.32812,-0.28906 0.66407,-0.29687 1.46875,-0.96094 z"
         style="font-family:'CMU Sans Serif';-inkscape-font-specification:'CMU Sans Serif'"
         id="path120768" />
      <path
         d="m 339.00391,197.25781 q 0.78125,-2.625 3.10156,-2.625 1.53906,0 2.48437,1.01563 0.94532,1.00781 0.94532,2.41406 0,0.5625 -0.15625,1.02344 -0.14844,0.46093 -0.59375,0.98437 -0.4375,0.51563 -0.77344,0.83594 -0.33594,0.32031 -1.14844,1.03906 -0.42969,0.38281 -2.57812,2.42188 l 5.25,-0.0156 v 1.13281 h -6.40625 v -1.03906 l 2.08593,-2.0625 q 0.125,-0.125 0.54688,-0.50781 0.42969,-0.39063 0.57031,-0.52344 0.14063,-0.14062 0.48438,-0.48437 0.34375,-0.34375 0.46875,-0.52344 0.13281,-0.1875 0.36718,-0.5 0.23438,-0.3125 0.3125,-0.54688 0.0781,-0.24218 0.15625,-0.55468 0.0859,-0.3125 0.0859,-0.63282 0,-1.02343 -0.64844,-1.72656 -0.64843,-0.70312 -1.65625,-0.70312 -0.54687,0 -0.97656,0.25 -0.42187,0.24218 -0.64062,0.60156 -0.21094,0.35937 -0.35157,0.71875 -0.13281,0.35937 -0.17968,0.61719 l -0.0625,0.27343 z"
         style="font-family:'CMU Sans Serif';-inkscape-font-specification:'CMU Sans Serif'"
         id="path120770" />
      <path
         d="m 347.88672,205.48437 v -1.34375 h 1.34375 v 1.34375 z"
         style="font-family:'CMU Sans Serif';-inkscape-font-specification:'CMU Sans Serif'"
         id="path120772" />
      <path
         d="m 351.40234,204.26562 0.53907,-0.89062 q 0.89843,1.46875 2.5,1.46875 0.79687,0 1.44531,-0.61719 0.64844,-0.61719 0.64844,-2.02344 0,-1.3125 -0.47657,-1.94531 -0.46875,-0.63281 -1.15625,-0.63281 -1.08593,0 -1.75781,1.28125 h -1.08594 v -5.89844 h 5.39063 v 1.02344 h -4.22656 v 3.27344 q 0.8125,-0.65625 1.71093,-0.64844 1.23438,0 2.14063,1.03125 0.90625,1.03125 0.90625,2.53125 0,1.53906 -1.05469,2.57812 -1.04687,1.03907 -2.46875,1.03907 -0.91406,0 -1.72656,-0.42188 -0.8125,-0.42969 -1.32813,-1.14844 z"
         style="font-family:'CMU Sans Serif';-inkscape-font-specification:'CMU Sans Serif'"
         id="path120774" />
      <path
         d="m 365.39453,205.48437 v -7.20312 h 1.16406 v 1.125 q 0.92969,-1.20313 2.33594,-1.20313 1.55469,0 2.03125,1.29688 0.97656,-1.29688 2.42188,-1.29688 0.60937,0 1.04687,0.20313 0.4375,0.19531 0.64844,0.46094 0.21875,0.26562 0.33594,0.67968 0.125,0.41407 0.14062,0.67969 0.0156,0.26563 0.0156,0.64844 v 4.60937 h -1.26563 v -4.49218 q 0,-0.0312 0,-0.0937 0,-0.0703 -0.0312,-0.25782 -0.0312,-0.19531 -0.0859,-0.35937 -0.0547,-0.17188 -0.17187,-0.375 -0.10938,-0.21094 -0.27344,-0.35938 -0.15625,-0.15625 -0.41406,-0.25781 -0.25,-0.10937 -0.57031,-0.10937 -0.85157,0 -1.24219,0.71875 -0.39063,0.71875 -0.39063,1.74218 v 3.84375 h -1.25 v -4.49218 q 0,-0.27344 -0.008,-0.42969 -0.008,-0.16406 -0.0937,-0.46094 -0.0859,-0.29687 -0.24219,-0.46875 -0.14843,-0.17969 -0.46093,-0.3125 -0.3125,-0.14062 -0.76563,-0.14062 -0.85156,0 -1.24219,0.71875 -0.38281,0.71875 -0.38281,1.74218 v 3.84375 z"
         style="font-family:'CMU Sans Serif';-inkscape-font-specification:'CMU Sans Serif'"
         id="path120776" />
      <path
         d="m 378.09766,205.48437 v -7.20312 h 1.16406 v 1.125 q 0.92969,-1.20313 2.33594,-1.20313 1.55468,0 2.03125,1.29688 0.97656,-1.29688 2.42187,-1.29688 0.60938,0 1.04688,0.20313 0.4375,0.19531 0.64843,0.46094 0.21875,0.26562 0.33594,0.67968 0.125,0.41407 0.14063,0.67969 0.0156,0.26563 0.0156,0.64844 v 4.60937 h -1.26562 v -4.49218 q 0,-0.0312 0,-0.0937 0,-0.0703 -0.0312,-0.25782 -0.0312,-0.19531 -0.0859,-0.35937 -0.0547,-0.17188 -0.17188,-0.375 -0.10937,-0.21094 -0.27343,-0.35938 -0.15625,-0.15625 -0.41407,-0.25781 -0.25,-0.10937 -0.57031,-0.10937 -0.85156,0 -1.24219,0.71875 -0.39062,0.71875 -0.39062,1.74218 v 3.84375 h -1.25 v -4.49218 q 0,-0.27344 -0.008,-0.42969 -0.008,-0.16406 -0.0937,-0.46094 -0.0859,-0.29687 -0.24219,-0.46875 -0.14844,-0.17969 -0.46094,-0.3125 -0.3125,-0.14062 -0.76562,-0.14062 -0.85157,0 -1.24219,0.71875 -0.38281,0.71875 -0.38281,1.74218 v 3.84375 z"
         style="font-family:'CMU Sans Serif';-inkscape-font-specification:'CMU Sans Serif'"
         id="path120778" />
    </g>
    <g
       aria-label="1.5 mm"
       transform="matrix(0.26458333,0,0,0.26458333,-50.475477,-7.4217213)"
       id="text90727-9-1"
       style="font-size:16px;line-height:1.25;white-space:pre;shape-inside:url(#rect90729-2-3)">
      <path
         d="m 326.37891,196.61719 v -0.92188 q 1.92187,0 3.05468,-1.0625 h 0.30469 v 9.90625 h 2 v 0.94531 h -5.27344 v -0.94531 h 2 V 196.25 q -0.95312,0.36719 -2.08593,0.36719 z"
         style="font-family:'CMU Sans Serif';-inkscape-font-specification:'CMU Sans Serif'"
         id="path120833" />
      <path
         d="m 334.48047,205.48437 v -1.34375 h 1.34375 v 1.34375 z"
         style="font-family:'CMU Sans Serif';-inkscape-font-specification:'CMU Sans Serif'"
         id="path120835" />
      <path
         d="m 337.99609,204.26562 0.53907,-0.89062 q 0.89843,1.46875 2.5,1.46875 0.79687,0 1.44531,-0.61719 0.64844,-0.61719 0.64844,-2.02344 0,-1.3125 -0.47657,-1.94531 -0.46875,-0.63281 -1.15625,-0.63281 -1.08593,0 -1.75781,1.28125 h -1.08594 v -5.89844 h 5.39063 v 1.02344 h -4.22656 v 3.27344 q 0.8125,-0.65625 1.71093,-0.64844 1.23438,0 2.14063,1.03125 0.90625,1.03125 0.90625,2.53125 0,1.53906 -1.05469,2.57812 -1.04687,1.03907 -2.46875,1.03907 -0.91406,0 -1.72656,-0.42188 -0.8125,-0.42969 -1.32813,-1.14844 z"
         style="font-family:'CMU Sans Serif';-inkscape-font-specification:'CMU Sans Serif'"
         id="path120837" />
      <path
         d="m 351.98828,205.48437 v -7.20312 h 1.16406 v 1.125 q 0.92969,-1.20313 2.33594,-1.20313 1.55469,0 2.03125,1.29688 0.97656,-1.29688 2.42188,-1.29688 0.60937,0 1.04687,0.20313 0.4375,0.19531 0.64844,0.46094 0.21875,0.26562 0.33594,0.67968 0.125,0.41407 0.14062,0.67969 0.0156,0.26563 0.0156,0.64844 v 4.60937 h -1.26563 v -4.49218 q 0,-0.0312 0,-0.0937 0,-0.0703 -0.0312,-0.25782 -0.0312,-0.19531 -0.0859,-0.35937 -0.0547,-0.17188 -0.17187,-0.375 -0.10938,-0.21094 -0.27344,-0.35938 -0.15625,-0.15625 -0.41406,-0.25781 -0.25,-0.10937 -0.57031,-0.10937 -0.85157,0 -1.24219,0.71875 -0.39063,0.71875 -0.39063,1.74218 v 3.84375 h -1.25 v -4.49218 q 0,-0.27344 -0.008,-0.42969 -0.008,-0.16406 -0.0937,-0.46094 -0.0859,-0.29687 -0.24219,-0.46875 -0.14843,-0.17969 -0.46093,-0.3125 -0.3125,-0.14062 -0.76563,-0.14062 -0.85156,0 -1.24219,0.71875 -0.38281,0.71875 -0.38281,1.74218 v 3.84375 z"
         style="font-family:'CMU Sans Serif';-inkscape-font-specification:'CMU Sans Serif'"
         id="path120839" />
      <path
         d="m 364.69141,205.48437 v -7.20312 h 1.16406 v 1.125 q 0.92969,-1.20313 2.33594,-1.20313 1.55468,0 2.03125,1.29688 0.97656,-1.29688 2.42187,-1.29688 0.60938,0 1.04688,0.20313 0.4375,0.19531 0.64843,0.46094 0.21875,0.26562 0.33594,0.67968 0.125,0.41407 0.14063,0.67969 0.0156,0.26563 0.0156,0.64844 v 4.60937 h -1.26562 v -4.49218 q 0,-0.0312 0,-0.0937 0,-0.0703 -0.0312,-0.25782 -0.0312,-0.19531 -0.0859,-0.35937 -0.0547,-0.17188 -0.17188,-0.375 -0.10937,-0.21094 -0.27343,-0.35938 -0.15625,-0.15625 -0.41407,-0.25781 -0.25,-0.10937 -0.57031,-0.10937 -0.85156,0 -1.24219,0.71875 -0.39062,0.71875 -0.39062,1.74218 v 3.84375 h -1.25 v -4.49218 q 0,-0.27344 -0.008,-0.42969 -0.008,-0.16406 -0.0937,-0.46094 -0.0859,-0.29687 -0.24219,-0.46875 -0.14844,-0.17969 -0.46094,-0.3125 -0.3125,-0.14062 -0.76562,-0.14062 -0.85157,0 -1.24219,0.71875 -0.38281,0.71875 -0.38281,1.74218 v 3.84375 z"
         style="font-family:'CMU Sans Serif';-inkscape-font-specification:'CMU Sans Serif'"
         id="path120841" />
    </g>
    <g
       aria-label="3.5 mm"
       transform="matrix(0.26458333,0,0,0.26458333,-30.782538,-19.992081)"
       id="text90727-9-1-8"
       style="font-size:16px;line-height:1.25;white-space:pre;shape-inside:url(#rect90729-2-3-7)">
      <path
         d="m 325.59766,204.1875 0.17187,-0.97656 q 0.51563,0.6875 1.21094,1.09375 0.69531,0.39843 1.09375,0.46875 0.40625,0.0703 0.77344,0.0703 0.88281,0 1.42187,-0.64063 0.54688,-0.64062 0.54688,-1.63281 0,-0.92969 -0.52344,-1.59375 -0.52344,-0.66406 -1.53125,-0.66406 h -1.16406 v -0.98438 q 0.38281,-0.0312 0.66406,-0.0547 0.28125,-0.0312 0.35937,-0.0391 0.0781,-0.008 0.125,-0.008 0.76563,-0.14062 1.25782,-0.76562 0.49218,-0.625 0.49218,-1.375 0,-0.67188 -0.45312,-1.07813 -0.44531,-0.41406 -1.16406,-0.41406 -1.40625,0 -2.22657,1.20312 -0.0937,0.14063 -0.25781,0.46094 l -0.57031,-0.875 q 1.10156,-1.74219 3.08594,-1.75 1.21875,0 2.05468,0.72656 0.84375,0.71875 0.84375,1.72657 0,1.72656 -1.78125,2.73437 1.10157,0.38281 1.66407,1.14063 0.5625,0.75 0.5625,1.64062 0,1.29688 -0.96875,2.26563 -0.96875,0.96875 -2.42188,0.96875 -1.96875,0 -3.26562,-1.64844 z"
         style="font-family:'CMU Sans Serif';-inkscape-font-specification:'CMU Sans Serif'"
         id="path120844" />
      <path
         d="m 334.48047,205.48437 v -1.34375 h 1.34375 v 1.34375 z"
         style="font-family:'CMU Sans Serif';-inkscape-font-specification:'CMU Sans Serif'"
         id="path120846" />
      <path
         d="m 337.99609,204.26562 0.53907,-0.89062 q 0.89843,1.46875 2.5,1.46875 0.79687,0 1.44531,-0.61719 0.64844,-0.61719 0.64844,-2.02344 0,-1.3125 -0.47657,-1.94531 -0.46875,-0.63281 -1.15625,-0.63281 -1.08593,0 -1.75781,1.28125 h -1.08594 v -5.89844 h 5.39063 v 1.02344 h -4.22656 v 3.27344 q 0.8125,-0.65625 1.71093,-0.64844 1.23438,0 2.14063,1.03125 0.90625,1.03125 0.90625,2.53125 0,1.53906 -1.05469,2.57812 -1.04687,1.03907 -2.46875,1.03907 -0.91406,0 -1.72656,-0.42188 -0.8125,-0.42969 -1.32813,-1.14844 z"
         style="font-family:'CMU Sans Serif';-inkscape-font-specification:'CMU Sans Serif'"
         id="path120848" />
      <path
         d="m 351.98828,205.48437 v -7.20312 h 1.16406 v 1.125 q 0.92969,-1.20313 2.33594,-1.20313 1.55469,0 2.03125,1.29688 0.97656,-1.29688 2.42188,-1.29688 0.60937,0 1.04687,0.20313 0.4375,0.19531 0.64844,0.46094 0.21875,0.26562 0.33594,0.67968 0.125,0.41407 0.14062,0.67969 0.0156,0.26563 0.0156,0.64844 v 4.60937 h -1.26563 v -4.49218 q 0,-0.0312 0,-0.0937 0,-0.0703 -0.0312,-0.25782 -0.0312,-0.19531 -0.0859,-0.35937 -0.0547,-0.17188 -0.17187,-0.375 -0.10938,-0.21094 -0.27344,-0.35938 -0.15625,-0.15625 -0.41406,-0.25781 -0.25,-0.10937 -0.57031,-0.10937 -0.85157,0 -1.24219,0.71875 -0.39063,0.71875 -0.39063,1.74218 v 3.84375 h -1.25 v -4.49218 q 0,-0.27344 -0.008,-0.42969 -0.008,-0.16406 -0.0937,-0.46094 -0.0859,-0.29687 -0.24219,-0.46875 -0.14843,-0.17969 -0.46093,-0.3125 -0.3125,-0.14062 -0.76563,-0.14062 -0.85156,0 -1.24219,0.71875 -0.38281,0.71875 -0.38281,1.74218 v 3.84375 z"
         style="font-family:'CMU Sans Serif';-inkscape-font-specification:'CMU Sans Serif'"
         id="path120850" />
      <path
         d="m 364.69141,205.48437 v -7.20312 h 1.16406 v 1.125 q 0.92969,-1.20313 2.33594,-1.20313 1.55468,0 2.03125,1.29688 0.97656,-1.29688 2.42187,-1.29688 0.60938,0 1.04688,0.20313 0.4375,0.19531 0.64843,0.46094 0.21875,0.26562 0.33594,0.67968 0.125,0.41407 0.14063,0.67969 0.0156,0.26563 0.0156,0.64844 v 4.60937 h -1.26562 v -4.49218 q 0,-0.0312 0,-0.0937 0,-0.0703 -0.0312,-0.25782 -0.0312,-0.19531 -0.0859,-0.35937 -0.0547,-0.17188 -0.17188,-0.375 -0.10937,-0.21094 -0.27343,-0.35938 -0.15625,-0.15625 -0.41407,-0.25781 -0.25,-0.10937 -0.57031,-0.10937 -0.85156,0 -1.24219,0.71875 -0.39062,0.71875 -0.39062,1.74218 v 3.84375 h -1.25 v -4.49218 q 0,-0.27344 -0.008,-0.42969 -0.008,-0.16406 -0.0937,-0.46094 -0.0859,-0.29687 -0.24219,-0.46875 -0.14844,-0.17969 -0.46094,-0.3125 -0.3125,-0.14062 -0.76562,-0.14062 -0.85157,0 -1.24219,0.71875 -0.38281,0.71875 -0.38281,1.74218 v 3.84375 z"
         style="font-family:'CMU Sans Serif';-inkscape-font-specification:'CMU Sans Serif'"
         id="path120852" />
    </g>
    <g
       aria-label="nominal centre"
       transform="matrix(0.26458333,0,0,0.26458333,-33.281655,-4.3453187)"
       id="text90727-1"
       style="font-size:16px;line-height:1.25;white-space:pre;shape-inside:url(#rect90729-6)">
      <path
         d="m 326.22266,205.48437 v -7.20312 h 1.16406 v 1.125 q 0.92969,-1.20313 2.33594,-1.20313 0.59375,0 1.01562,0.17969 0.42969,0.17188 0.64844,0.42969 0.22656,0.25781 0.34375,0.64844 0.125,0.39062 0.15625,0.69531 0.0312,0.30469 0.0312,0.71875 v 4.60937 h -1.25 v -4.49218 q 0,-0.27344 -0.008,-0.42969 -0.008,-0.16406 -0.0937,-0.46094 -0.0859,-0.29687 -0.24219,-0.46875 -0.14844,-0.17969 -0.46094,-0.3125 -0.3125,-0.14062 -0.76562,-0.14062 -0.85157,0 -1.24219,0.71875 -0.38281,0.71875 -0.38281,1.74218 v 3.84375 z"
         style="font-family:'CMU Sans Serif';-inkscape-font-specification:'CMU Sans Serif'"
         id="path120806" />
      <path
         d="m 333.68359,201.94531 q 0,-1.61719 1.03125,-2.72656 1.03907,-1.10938 2.47657,-1.10938 1.50781,0 2.51562,1.16407 1.00781,1.15625 1.00781,2.6875 0,1.58593 -1.0625,2.64843 -1.05468,1.05469 -2.46093,1.05469 -1.40625,0 -2.46094,-1.0625 -1.04688,-1.07031 -1.04688,-2.65625 z m 1.25,-0.15625 q 0,1.40625 0.67969,2.125 0.67969,0.71875 1.57813,0.71875 0.89843,0 1.57812,-0.72656 0.67969,-0.72656 0.67969,-2.11719 0,-1.34375 -0.67969,-2.01562 -0.67969,-0.67188 -1.57812,-0.67188 -0.88282,0 -1.57032,0.67188 -0.6875,0.67187 -0.6875,2.01562 z"
         style="font-family:'CMU Sans Serif';-inkscape-font-specification:'CMU Sans Serif'"
         id="path120808" />
      <path
         d="m 342.48828,205.48437 v -7.20312 h 1.16406 v 1.125 q 0.92969,-1.20313 2.33594,-1.20313 1.55469,0 2.03125,1.29688 0.97656,-1.29688 2.42188,-1.29688 0.60937,0 1.04687,0.20313 0.4375,0.19531 0.64844,0.46094 0.21875,0.26562 0.33594,0.67968 0.125,0.41407 0.14062,0.67969 0.0156,0.26563 0.0156,0.64844 v 4.60937 h -1.26563 v -4.49218 q 0,-0.0312 0,-0.0937 0,-0.0703 -0.0312,-0.25782 -0.0312,-0.19531 -0.0859,-0.35937 -0.0547,-0.17188 -0.17187,-0.375 -0.10938,-0.21094 -0.27344,-0.35938 -0.15625,-0.15625 -0.41406,-0.25781 -0.25,-0.10937 -0.57031,-0.10937 -0.85157,0 -1.24219,0.71875 -0.39063,0.71875 -0.39063,1.74218 v 3.84375 h -1.25 v -4.49218 q 0,-0.27344 -0.008,-0.42969 -0.008,-0.16406 -0.0937,-0.46094 -0.0859,-0.29687 -0.24219,-0.46875 -0.14843,-0.17969 -0.46093,-0.3125 -0.3125,-0.14062 -0.76563,-0.14062 -0.85156,0 -1.24219,0.71875 -0.38281,0.71875 -0.38281,1.74218 v 3.84375 z"
         style="font-family:'CMU Sans Serif';-inkscape-font-specification:'CMU Sans Serif'"
         id="path120810" />
      <path
         d="m 355.09766,196.04687 v -1.42968 h 1.4375 v 1.42968 z m 0.10937,9.4375 v -7.11718 h 1.19531 v 7.11718 z"
         style="font-family:'CMU Sans Serif';-inkscape-font-specification:'CMU Sans Serif'"
         id="path120812" />
      <path
         d="m 359.01172,205.48437 v -7.20312 h 1.16406 v 1.125 q 0.92969,-1.20313 2.33594,-1.20313 0.59375,0 1.01562,0.17969 0.42969,0.17188 0.64844,0.42969 0.22656,0.25781 0.34375,0.64844 0.125,0.39062 0.15625,0.69531 0.0312,0.30469 0.0312,0.71875 v 4.60937 h -1.25 v -4.49218 q 0,-0.27344 -0.008,-0.42969 -0.008,-0.16406 -0.0937,-0.46094 -0.0859,-0.29687 -0.24219,-0.46875 -0.14844,-0.17969 -0.46094,-0.3125 -0.3125,-0.14062 -0.76562,-0.14062 -0.85156,0 -1.24219,0.71875 -0.38281,0.71875 -0.38281,1.74218 v 3.84375 z"
         style="font-family:'CMU Sans Serif';-inkscape-font-specification:'CMU Sans Serif'"
         id="path120814" />
      <path
         d="m 366.69922,203.67969 q 0,-0.59375 0.44531,-1.03125 0.45313,-0.44532 1.17969,-0.65625 0.72656,-0.21875 1.42187,-0.32032 0.69532,-0.10937 1.39844,-0.10937 v -0.53906 q -0.0312,-1.02344 -0.41406,-1.47657 -0.39844,-0.47656 -1.00781,-0.47656 -1.23438,0 -2.39844,0.8125 l -0.0937,-1.07031 q 1.20312,-0.70313 2.50781,-0.70313 1.10156,0 1.84375,0.72657 0.75,0.72656 0.8125,1.76562 v 4.88281 h -1.21094 v -0.5625 q -0.0625,0.0625 -0.29687,0.21094 -0.23438,0.14063 -0.90625,0.33594 -0.67188,0.19531 -1.45313,0.19531 -0.91406,0 -1.375,-0.64844 -0.45312,-0.64843 -0.45312,-1.33593 z m 1.17187,-0.0156 q 0,0.42969 0.42188,0.71875 0.42187,0.28906 1.0625,0.28906 0.6875,0 1.23437,-0.28906 0.55469,-0.28906 0.55469,-0.97656 v -1.00781 q -0.49219,0 -1.00781,0.0625 -0.50781,0.0625 -1.05469,0.19531 -0.53906,0.125 -0.875,0.39062 -0.33594,0.26563 -0.33594,0.61719 z"
         style="font-family:'CMU Sans Serif';-inkscape-font-specification:'CMU Sans Serif'"
         id="path120816" />
      <path
         d="m 374.97266,205.48437 v -11.55468 h 1.19531 v 11.55468 z"
         style="font-family:'CMU Sans Serif';-inkscape-font-specification:'CMU Sans Serif'"
         id="path120818" />
      <path
         d="m 383.37891,201.91406 q 0,-1.48437 0.95312,-2.64062 0.96094,-1.16407 2.5625,-1.16407 0.75,0 1.24219,0.14844 0.5,0.14063 1.24219,0.55469 l -0.19532,1.05469 q -0.78125,-0.49219 -1.19531,-0.60938 -0.46094,-0.125 -1.10937,-0.125 -1.08594,0 -1.67188,0.82813 -0.58594,0.82031 -0.58594,1.95312 0,1.1875 0.625,1.95313 0.625,0.76562 1.61719,0.76562 1.25,0 2.51563,-0.85937 l 0.0781,1.07031 q -1.26562,0.8125 -2.60937,0.82031 -1.46875,0 -2.46875,-1.09375 -1,-1.10156 -1,-2.65625 z"
         style="font-family:'CMU Sans Serif';-inkscape-font-specification:'CMU Sans Serif'"
         id="path120820" />
      <path
         d="m 390.46484,201.86719 q 0,-1.58594 0.96094,-2.67188 0.96875,-1.08594 2.26563,-1.08594 0.47656,0 0.90625,0.15625 0.4375,0.14844 0.875,0.5 0.44531,0.35157 0.73437,1.05469 0.28906,0.70313 0.33594,1.67969 v 0.46094 h -4.96094 q 0.0469,1.20312 0.73438,1.96093 0.6875,0.75 1.63281,0.75 1.21875,0 2.42969,-0.88281 l 0.10156,1.05469 q -1.21875,0.8125 -2.53125,0.82031 -1.52344,0 -2.50781,-1.125 -0.97657,-1.13281 -0.97657,-2.67187 z m 1.19532,-0.78125 h 3.96875 q -0.0937,-0.625 -0.34375,-1.05469 -0.25,-0.4375 -0.5625,-0.61719 -0.3125,-0.1875 -0.5625,-0.25 -0.24219,-0.0625 -0.46875,-0.0625 -0.8125,0 -1.34375,0.625 -0.53125,0.625 -0.6875,1.35938 z"
         style="font-family:'CMU Sans Serif';-inkscape-font-specification:'CMU Sans Serif'"
         id="path120822" />
      <path
         d="m 398.30078,205.48437 v -7.20312 h 1.16406 v 1.125 q 0.92969,-1.20313 2.33594,-1.20313 0.59375,0 1.01563,0.17969 0.42968,0.17188 0.64843,0.42969 0.22657,0.25781 0.34375,0.64844 0.125,0.39062 0.15625,0.69531 0.0312,0.30469 0.0312,0.71875 v 4.60937 h -1.25 v -4.49218 q 0,-0.27344 -0.008,-0.42969 -0.008,-0.16406 -0.0937,-0.46094 -0.0859,-0.29687 -0.24219,-0.46875 -0.14843,-0.17969 -0.46093,-0.3125 -0.3125,-0.14062 -0.76563,-0.14062 -0.85156,0 -1.24219,0.71875 -0.38281,0.71875 -0.38281,1.74218 v 3.84375 z"
         style="font-family:'CMU Sans Serif';-inkscape-font-specification:'CMU Sans Serif'"
         id="path120824" />
      <path
         d="m 405.57422,199.30469 v -0.9375 h 1.375 v -2.01563 h 1.11719 v 2.01563 h 2.25781 v 0.9375 h -2.25781 v 3.9375 q 0,1.39062 0.86718,1.39062 0.67188,0 1.40625,-0.52344 l 0.25782,0.94532 q -1.13282,0.60937 -2.36719,0.60937 -1.3125,0 -1.3125,-2.05469 v -4.30468 z"
         style="font-family:'CMU Sans Serif';-inkscape-font-specification:'CMU Sans Serif'"
         id="path120826" />
      <path
         d="m 412.35547,205.48437 v -7.20312 h 1.11719 v 1.44531 q 0.19531,-0.30469 0.46093,-0.58594 0.27344,-0.28125 0.92188,-0.60156 0.64844,-0.32031 1.42187,-0.33594 v 1.07032 q -0.41406,0.0156 -0.83593,0.15625 -0.41407,0.13281 -0.875,0.42968 -0.45313,0.29688 -0.73438,0.90625 -0.28125,0.60938 -0.28125,1.42188 v 3.29687 z"
         style="font-family:'CMU Sans Serif';-inkscape-font-specification:'CMU Sans Serif'"
         id="path120828" />
      <path
         d="m 417.07422,201.86719 q 0,-1.58594 0.96094,-2.67188 0.96875,-1.08594 2.26562,-1.08594 0.47656,0 0.90625,0.15625 0.4375,0.14844 0.875,0.5 0.44531,0.35157 0.73438,1.05469 0.28906,0.70313 0.33593,1.67969 v 0.46094 h -4.96093 q 0.0469,1.20312 0.73437,1.96093 0.6875,0.75 1.63281,0.75 1.21875,0 2.42969,-0.88281 l 0.10156,1.05469 q -1.21875,0.8125 -2.53125,0.82031 -1.52343,0 -2.50781,-1.125 -0.97656,-1.13281 -0.97656,-2.67187 z m 1.19531,-0.78125 h 3.96875 q -0.0937,-0.625 -0.34375,-1.05469 -0.25,-0.4375 -0.5625,-0.61719 -0.3125,-0.1875 -0.5625,-0.25 -0.24219,-0.0625 -0.46875,-0.0625 -0.8125,0 -1.34375,0.625 -0.53125,0.625 -0.6875,1.35938 z"
         style="font-family:'CMU Sans Serif';-inkscape-font-specification:'CMU Sans Serif'"
         id="path120830" />
    </g>
    <path
       style="fill:none;stroke:#000000;stroke-width:0.264583px;stroke-linecap:butt;stroke-linejoin:miter;stroke-opacity:1"
       d="m 52.185973,56.502475 1.259062,-1.193316 1.345209,1.410633 -1.349757,-1.384997 -1.482757,25.287186 -1.103177,-1.890868 1.165198,1.696529 1.328942,-1.432311"
       id="path103716"
       sodipodi:nodetypes="cccccccc" />
    <path
       style="fill:none;stroke:#000000;stroke-width:0.264583px;stroke-linecap:butt;stroke-linejoin:miter;stroke-opacity:1"
       d="m 57.701067,14.910108 1.429547,-0.982669 1.109102,1.602924 -1.117587,-1.578309 -8.273306,33.905163 -0.795232,-2.039604 0.886763,1.857296 1.535794,-1.207865"
       id="path103716-4"
       sodipodi:nodetypes="cccccccc" />
    <path
       style="fill:none;stroke:#000000;stroke-width:0.264583px;stroke-linecap:butt;stroke-linejoin:miter;stroke-opacity:1"
       d="m 48.102373,47.770968 1.225089,1.228169 -1.375811,1.380803 1.350067,-1.384695 -14.509966,-0.209078 1.862072,-1.151118 -1.666212,1.208154 1.46579,1.291922"
       id="path103716-9"
       sodipodi:nodetypes="cccccccc" />
  </g>
</svg>
