<?xml version="1.0" encoding="UTF-8" standalone="no"?>
<!-- Created with Inkscape (http://www.inkscape.org/) -->

<svg
   width="141.08183mm"
   height="139.41246mm"
   viewBox="0 0 141.08183 139.41246"
   version="1.1"
   id="svg5"
   inkscape:version="1.1.2 (0a00cf5339, 2022-02-04)"
   sodipodi:docname="proj-explain-text-to-path.svg"
   xmlns:inkscape="http://www.inkscape.org/namespaces/inkscape"
   xmlns:sodipodi="http://sodipodi.sourceforge.net/DTD/sodipodi-0.dtd"
   xmlns:xlink="http://www.w3.org/1999/xlink"
   xmlns="http://www.w3.org/2000/svg"
   xmlns:svg="http://www.w3.org/2000/svg">
  <sodipodi:namedview
     id="namedview7"
     pagecolor="#ffffff"
     bordercolor="#666666"
     borderopacity="1.0"
     inkscape:pageshadow="2"
     inkscape:pageopacity="0.0"
     inkscape:pagecheckerboard="0"
     inkscape:document-units="mm"
     showgrid="false"
     inkscape:zoom="4.4328046"
     inkscape:cx="401.66445"
     inkscape:cy="426.81782"
     inkscape:window-width="1920"
     inkscape:window-height="1043"
     inkscape:window-x="0"
     inkscape:window-y="0"
     inkscape:window-maximized="1"
     inkscape:current-layer="g125195"
     inkscape:snap-bbox="true"
     inkscape:snap-bbox-edge-midpoints="true"
     inkscape:snap-global="false"
     fit-margin-top="0"
     fit-margin-left="0"
     fit-margin-right="0"
     fit-margin-bottom="0" />
  <defs
     id="defs2">
    <rect
       x="444.41743"
       y="464.918"
       width="31.762482"
       height="54.582403"
       id="rect129635" />
    <linearGradient
       inkscape:collect="always"
       id="linearGradient45791">
      <stop
         style="stop-color:#b10000;stop-opacity:1;"
         offset="0"
         id="stop45787" />
      <stop
         style="stop-color:#b10000;stop-opacity:0;"
         offset="1"
         id="stop45789" />
    </linearGradient>
    <rect
       x="415.53021"
       y="257.39581"
       width="226.61534"
       height="154.89008"
       id="rect22433" />
    <rect
       x="415.53021"
       y="257.39581"
       width="226.61534"
       height="154.89008"
       id="rect22433-3" />
    <rect
       x="415.53021"
       y="257.39581"
       width="226.61534"
       height="154.89008"
       id="rect22433-5" />
    <linearGradient
       inkscape:collect="always"
       xlink:href="#linearGradient45791"
       id="linearGradient45793"
       x1="84.658257"
       y1="89.532578"
       x2="55.795959"
       y2="89.878555"
       gradientUnits="userSpaceOnUse"
       gradientTransform="matrix(1.1510326,0,0,1.1510326,-15.555279,20.460828)" />
    <rect
       x="415.53021"
       y="257.39581"
       width="226.61534"
       height="154.89008"
       id="rect22433-5-8" />
    <rect
       x="415.53021"
       y="257.39581"
       width="226.61534"
       height="154.89008"
       id="rect22433-5-8-5" />
    <rect
       x="444.41742"
       y="464.918"
       width="31.762482"
       height="54.582401"
       id="rect129635-6" />
  </defs>
  <g
     inkscape:label="Layer 1"
     inkscape:groupmode="layer"
     id="layer1"
     transform="translate(-35.995141,-25.309422)" />
  <g
     inkscape:groupmode="layer"
     id="layer2"
     inkscape:label="text"
     transform="translate(-35.995141,-25.309422)">
    <g
       id="g125195"
       transform="rotate(180,106.53606,95.015656)">
      <path
         style="fill:none;stroke:#000000;stroke-width:0.456816;stroke-linecap:butt;stroke-linejoin:miter;stroke-miterlimit:4;stroke-dasharray:none;stroke-opacity:0.484629"
         d="M 114.65192,151.90703 82.087264,95.124448"
         id="path5333-2-2"
         sodipodi:nodetypes="cc" />
      <path
         style="fill:#007b00;fill-opacity:0.530023;stroke:#008200;stroke-width:0.913631;stroke-linecap:butt;stroke-linejoin:miter;stroke-miterlimit:4;stroke-dasharray:none;stroke-opacity:1"
         d="M 110.38213,78.599444 54.064397,111.1145"
         id="path5333" />
      <path
         style="fill:#007b00;fill-opacity:0.530023;stroke:#000000;stroke-width:0.456816;stroke-linecap:butt;stroke-linejoin:miter;stroke-miterlimit:4;stroke-dasharray:0.456816, 1.37044;stroke-dashoffset:0;stroke-opacity:0.494335"
         d="M 81.978375,95.061998 35.995141,141.04524"
         id="path5333-8" />
      <path
         style="fill:#007b00;fill-opacity:0.530023;stroke:#000000;stroke-width:0.456816;stroke-linecap:butt;stroke-linejoin:miter;stroke-miterlimit:4;stroke-dasharray:0.456816, 1.37044;stroke-dashoffset:0;stroke-opacity:0.494335"
         d="M 128.0705,49.141206 82.087264,95.124448"
         id="path5333-8-9" />
      <path
         style="fill:#007b00;fill-opacity:0.530023;stroke:#000000;stroke-width:0.456816;stroke-linecap:butt;stroke-linejoin:miter;stroke-miterlimit:4;stroke-dasharray:0.456816, 1.37044;stroke-dashoffset:0;stroke-opacity:0.494335"
         d="M 166.80693,46.188848 110.4892,78.703912"
         id="path5333-8-9-1" />
      <path
         style="fill:none;stroke:#000000;stroke-width:0.456816;stroke-linecap:butt;stroke-linejoin:miter;stroke-miterlimit:4;stroke-dasharray:0.456816, 1.37046;stroke-dashoffset:0;stroke-opacity:0.514697"
         d="M 162.17315,95.048528 101.89999,129.84725"
         id="path5333-1" />
      <path
         style="fill:none;stroke:#000000;stroke-width:0.456816;stroke-linecap:butt;stroke-linejoin:miter;stroke-miterlimit:4;stroke-dasharray:0.456816, 1.37044;stroke-dashoffset:0;stroke-opacity:0.514697"
         d="M 82.087264,95.124448 V 164.72189"
         id="path5333-1-2" />
      <path
         style="fill:none;stroke:#b10000;stroke-width:0.456816;stroke-linecap:butt;stroke-linejoin:miter;stroke-miterlimit:4;stroke-dasharray:1.82727, 0.456816;stroke-dashoffset:0;stroke-opacity:1"
         d="M 101.90732,129.81185 81.978375,95.061998"
         id="path5333-2"
         sodipodi:nodetypes="cc" />
      <path
         style="fill:none;stroke:#b10000;stroke-width:0.609088;stroke-linecap:butt;stroke-linejoin:miter;stroke-miterlimit:4;stroke-dasharray:none;stroke-opacity:1"
         d="M 81.938726,95.039258 H 162.17849"
         id="path5448" />
      <path
         style="fill:none;stroke:url(#linearGradient45793);stroke-width:0.504205;stroke-linecap:butt;stroke-linejoin:miter;stroke-miterlimit:4;stroke-dasharray:none;stroke-opacity:0.497052"
         d="M 82.097345,95.152108 48.886012,152.67583"
         id="path5448-2" />
      <path
         style="fill:none;stroke:#000000;stroke-width:0.456816;stroke-linecap:butt;stroke-linejoin:miter;stroke-miterlimit:4;stroke-dasharray:none;stroke-opacity:0.514166"
         d="M 81.906488,95.020778 122.02637,25.531085"
         id="path5448-9" />
      <path
         style="fill:none;stroke:#000000;stroke-width:0.456816;stroke-linecap:butt;stroke-linejoin:miter;stroke-miterlimit:4;stroke-dasharray:none;stroke-opacity:0.484629"
         d="m 114.65192,151.90703 0.88075,-3.85787 z"
         id="path5727" />
      <path
         style="fill:none;stroke:#000000;stroke-width:0.456816;stroke-linecap:butt;stroke-linejoin:miter;stroke-miterlimit:4;stroke-dasharray:none;stroke-opacity:0.484629"
         d="m 114.65192,151.90703 -4.00408,-0.99528 z"
         id="path5729" />
      <path
         style="fill:none;stroke:#b10000;stroke-width:0.456816;stroke-linecap:butt;stroke-linejoin:miter;stroke-miterlimit:4;stroke-dasharray:1.82727, 0.456816;stroke-dashoffset:0;stroke-opacity:1"
         d="m 101.90732,129.81185 0.88076,-3.85787 z"
         id="path5727-7" />
      <path
         style="fill:none;stroke:#b10000;stroke-width:0.456816;stroke-linecap:butt;stroke-linejoin:miter;stroke-miterlimit:4;stroke-dasharray:1.82727, 0.456816;stroke-dashoffset:0;stroke-opacity:1"
         d="m 101.90732,129.81185 -4.004083,-0.99529 z"
         id="path5729-0" />
      <path
         style="fill:none;stroke:#000000;stroke-width:0.456816;stroke-linecap:butt;stroke-linejoin:miter;stroke-miterlimit:4;stroke-dasharray:1.82727, 0.456816;stroke-dashoffset:0;stroke-opacity:0.517436"
         d="m 142.24419,60.298677 19.92896,34.749851"
         id="path5333-2-9"
         sodipodi:nodetypes="cc" />
      <path
         style="fill:none;stroke:#000000;stroke-width:0.456816;stroke-linecap:butt;stroke-linejoin:miter;stroke-miterlimit:4;stroke-dasharray:1.82727, 0.456816;stroke-dashoffset:0;stroke-opacity:0.507603"
         d="m 142.24419,60.298677 -0.88073,3.85787 z"
         id="path5727-7-3" />
      <path
         style="fill:none;stroke:#000000;stroke-width:0.456816;stroke-linecap:butt;stroke-linejoin:miter;stroke-miterlimit:4;stroke-dasharray:1.82727, 0.456816;stroke-dashoffset:0;stroke-opacity:0.507603"
         d="m 142.24419,60.298677 4.00409,0.995286 z"
         id="path5729-0-6" />
      <path
         style="fill:none;stroke:#000000;stroke-width:0.456816;stroke-linecap:butt;stroke-linejoin:miter;stroke-miterlimit:4;stroke-dasharray:none;stroke-opacity:0.6"
         d="m 81.906488,95.020778 3.781384,-1.16619 z"
         id="path5727-7-3-8" />
      <path
         style="fill:none;stroke:#000000;stroke-width:0.456816;stroke-linecap:butt;stroke-linejoin:miter;stroke-miterlimit:4;stroke-dasharray:none;stroke-opacity:0.6"
         d="m 81.906488,95.020778 -1.140097,-3.96529 z"
         id="path5729-0-6-7" />
      <path
         style="fill:none;stroke:#000000;stroke-width:0.456816;stroke-linecap:butt;stroke-linejoin:miter;stroke-miterlimit:4;stroke-dasharray:1.82727, 0.456816;stroke-dashoffset:0;stroke-opacity:0.507603"
         d="m 122.02637,25.531085 19.92895,34.749848"
         id="path5333-2-9-0"
         sodipodi:nodetypes="cc" />
      <path
         style="fill:none;stroke:#000000;stroke-width:0.456816;stroke-linecap:butt;stroke-linejoin:miter;stroke-miterlimit:4;stroke-dasharray:1.82727, 0.456816;stroke-dashoffset:0;stroke-opacity:0.507603"
         d="m 122.02637,25.531085 -0.88075,3.857869 z"
         id="path5727-7-3-6" />
      <path
         style="fill:none;stroke:#000000;stroke-width:0.456816;stroke-linecap:butt;stroke-linejoin:miter;stroke-miterlimit:4;stroke-dasharray:1.82727, 0.456816;stroke-dashoffset:0;stroke-opacity:0.507603"
         d="m 122.02637,25.531085 4.00409,0.995286 z"
         id="path5729-0-6-2" />
      <rect
         style="fill:#007b00;fill-opacity:0.530023;stroke:none;stroke-width:0.456816;stroke-linejoin:bevel;stroke-miterlimit:4;stroke-dasharray:none;stroke-dashoffset:0;stroke-opacity:1"
         id="rect6085"
         width="14.775307"
         height="8.1610146"
         x="162.30167"
         y="90.958755" />
      <circle
         style="fill:#b10000;fill-opacity:1;stroke:none;stroke-width:0.456816;stroke-linejoin:bevel;stroke-miterlimit:4;stroke-dasharray:none;stroke-dashoffset:0;stroke-opacity:1"
         id="path6191"
         cx="162.1785"
         cy="95.039261"
         r="1.0471761" />
      <path
         style="fill:none;stroke:#000000;stroke-width:0.304544px;stroke-linecap:butt;stroke-linejoin:miter;stroke-opacity:0.506091"
         d="m 73.223434,110.26497 c 4.215794,2.29114 8.82702,1.54807 8.82702,1.54807"
         id="path46154" />
      <path
         style="fill:none;stroke:#000000;stroke-width:0.304544px;stroke-linecap:butt;stroke-linejoin:miter;stroke-opacity:0.506091"
         d="m 65.829395,103.9568 c 0.608281,2.47344 3.083393,3.94064 3.083393,3.94064"
         id="path46154-3"
         sodipodi:nodetypes="cc" />
      <g
         aria-label="b0"
         transform="matrix(-0.26458333,0,0,-0.26458333,233.49226,170.17382)"
         id="text22431"
         style="font-size:16px;line-height:1.25;font-family:'CMU Sans Serif';-inkscape-font-specification:'CMU Sans Serif, Normal';white-space:pre;shape-inside:url(#rect22433)">
        <path
           d="m 416.82617,272.19336 v -11.55469 h 1.19531 v 5.20313 q 1.17188,-0.92969 2.5625,-0.92969 1.14844,0 1.88282,1.10937 0.74218,1.10157 0.74218,2.58594 0,1.61719 -0.89062,2.69531 -0.88281,1.07032 -2.10156,1.07032 -1.13282,0 -2.14063,-0.91407 v 0.73438 z m 1.25,-2.125 q 0,0.125 0.008,0.19531 0.008,0.0703 0.0312,0.14063 0.0234,0.0625 0.0469,0.0937 0.0234,0.0312 0.0781,0.10937 0.0547,0.0781 0.10157,0.14844 0.53125,0.64062 1.3125,0.64062 0.85156,0 1.57031,-0.67187 0.71875,-0.67188 0.71875,-2.10156 0,-0.75 -0.21094,-1.3125 -0.20312,-0.57032 -0.54687,-0.85938 -0.34375,-0.28906 -0.69532,-0.42187 -0.35156,-0.14063 -0.70312,-0.14063 -0.625,0 -1.17188,0.36719 -0.53906,0.36719 -0.53906,0.82031 z"
           id="path103693" />
        <path
           d="m 424.22148,272.16875 v -0.17773 q 0,-0.40625 0.0152,-0.70586 0.0152,-0.29961 0.0965,-0.79219 0.0863,-0.49766 0.22852,-0.84297 0.14726,-0.35039 0.44687,-0.68555 0.30469,-0.34023 0.7211,-0.49765 0.31992,-0.12696 0.65508,-0.12696 0.28945,0 0.55859,0.0813 0.27422,0.0762 0.57383,0.30977 0.30468,0.23359 0.52812,0.59922 0.22344,0.36562 0.36563,1.00547 0.14726,0.63984 0.14726,1.46758 v 0.21835 q 0,0.3961 -0.0152,0.71094 -0.0152,0.30977 -0.10156,0.79219 -0.0813,0.47734 -0.2336,0.82773 -0.14726,0.34532 -0.45195,0.67539 -0.29961,0.325 -0.71602,0.48243 -0.34531,0.11679 -0.65507,0.11172 -0.28946,0 -0.5586,-0.0762 -0.26406,-0.0711 -0.57383,-0.29453 -0.30468,-0.22344 -0.52304,-0.58398 -0.21836,-0.36563 -0.36563,-1.01055 -0.14219,-0.64492 -0.14219,-1.48789 z m 0.8125,0 q 0,0.6957 0.0914,1.22383 0.0965,0.52305 0.22852,0.82265 0.13711,0.29454 0.33007,0.47735 0.19297,0.18281 0.35547,0.23867 0.16758,0.0559 0.35547,0.0559 0.23867,0 0.44688,-0.10664 0.2082,-0.11172 0.42656,-0.38594 0.21836,-0.27422 0.34531,-0.87344 0.13203,-0.59921 0.13203,-1.4625 v -0.61445 q 0,-0.79219 -0.13203,-1.33047 -0.12695,-0.53828 -0.35039,-0.78711 -0.22344,-0.2539 -0.43164,-0.34531 -0.2082,-0.0965 -0.44687,-0.0965 -0.23868,0 -0.44688,0.0965 -0.2082,0.0914 -0.42656,0.34531 -0.21836,0.24883 -0.35039,0.79727 -0.12696,0.54336 -0.12696,1.32031 z"
           style="font-size:65%;baseline-shift:sub"
           id="path103695" />
      </g>
      <g
         aria-label="proj(b0, n1)"
         transform="matrix(-0.26458333,0,0,-0.26458333,222.44838,181.40915)"
         id="text22431-9"
         style="font-size:16px;line-height:1.25;font-family:'CMU Sans Serif';-inkscape-font-specification:'CMU Sans Serif, Normal';white-space:pre;shape-inside:url(#rect22433-5)">
        <path
           d="m 416.82617,275.31055 v -10.23438 h 1.19531 v 0.78125 q 1.17188,-0.94531 2.65625,-0.94531 1.10157,0 1.8125,1.10937 0.71875,1.10157 0.71875,2.58594 0,1.64844 -0.89062,2.71094 -0.88281,1.05469 -2.08594,1.05469 -1.1875,0 -2.15625,-0.91407 v 3.85157 z m 1.25,-5.13282 q 0,0.35157 0.45313,0.78907 0.45312,0.42968 1.09375,0.42968 0.89843,0 1.60937,-0.76562 0.71094,-0.77344 0.71094,-1.99219 0,-1.08594 -0.60938,-1.89062 -0.60156,-0.8125 -1.5625,-0.8125 -0.17968,0 -0.34375,0.0234 -0.15625,0.0234 -0.29687,0.0859 -0.13281,0.0547 -0.25,0.10938 -0.11719,0.0547 -0.22656,0.125 -0.10157,0.0703 -0.17969,0.14062 -0.0781,0.0625 -0.15625,0.14063 -0.0703,0.0781 -0.10938,0.13281 -0.0391,0.0469 -0.0859,0.0937 l -0.0469,0.0625 z"
           id="path103698" />
        <path
           d="m 424.64648,272.19336 v -7.20313 h 1.11719 v 1.44532 q 0.19531,-0.30469 0.46094,-0.58594 0.27344,-0.28125 0.92187,-0.60156 0.64844,-0.32032 1.42188,-0.33594 v 1.07031 q -0.41406,0.0156 -0.83594,0.15625 -0.41406,0.13281 -0.875,0.42969 -0.45312,0.29687 -0.73437,0.90625 -0.28125,0.60937 -0.28125,1.42187 v 3.29688 z"
           id="path103700" />
        <path
           d="m 429.29492,268.6543 q 0,-1.61719 1.03125,-2.72657 1.03906,-1.10937 2.47656,-1.10937 1.50782,0 2.51563,1.16406 1.00781,1.15625 1.00781,2.6875 0,1.58594 -1.0625,2.64844 -1.05469,1.05469 -2.46094,1.05469 -1.40625,0 -2.46093,-1.0625 -1.04688,-1.07032 -1.04688,-2.65625 z m 1.25,-0.15625 q 0,1.40625 0.67969,2.125 0.67969,0.71875 1.57812,0.71875 0.89844,0 1.57813,-0.72657 0.67969,-0.72656 0.67969,-2.11718 0,-1.34375 -0.67969,-2.01563 -0.67969,-0.67187 -1.57813,-0.67187 -0.88281,0 -1.57031,0.67187 -0.6875,0.67188 -0.6875,2.01563 z"
           id="path103702" />
        <path
           d="m 435.8418,274.92773 0.24218,-0.97656 q 0.625,0.49219 1.25,0.5 0.46094,0 0.78907,-0.23437 0.32812,-0.23438 0.42187,-0.57032 0.0312,-0.14062 0.0312,-0.41406 v -8.15625 h 1.20313 v 7.91406 q 0,1.32813 -0.625,1.90625 -0.625,0.57813 -1.39063,0.57813 -0.97656,0 -1.92187,-0.54688 z m 2.51562,-12.17187 v -1.42969 h 1.4375 v 1.42969 z"
           id="path103704" />
        <path
           d="m 442.36523,268.19336 q 0,-5.26563 3.05469,-8 h 0.99219 q -0.89844,0.96094 -1.29688,1.63281 -1.50781,2.53125 -1.5,6.36719 0,4.8125 2.28125,7.45312 l 0.51563,0.54688 h -0.99219 q -3.05469,-2.76563 -3.05469,-8 z"
           id="path103706" />
        <path
           d="m 448.59961,272.19336 v -11.55469 h 1.19531 v 5.20313 q 1.17188,-0.92969 2.5625,-0.92969 1.14844,0 1.88281,1.10937 0.74219,1.10157 0.74219,2.58594 0,1.61719 -0.89062,2.69531 -0.88282,1.07032 -2.10157,1.07032 -1.13281,0 -2.14062,-0.91407 v 0.73438 z m 1.25,-2.125 q 0,0.125 0.008,0.19531 0.008,0.0703 0.0312,0.14063 0.0234,0.0625 0.0469,0.0937 0.0234,0.0312 0.0781,0.10937 0.0547,0.0781 0.10156,0.14844 0.53125,0.64062 1.3125,0.64062 0.85157,0 1.57032,-0.67187 0.71875,-0.67188 0.71875,-2.10156 0,-0.75 -0.21094,-1.3125 -0.20313,-0.57032 -0.54688,-0.85938 -0.34375,-0.28906 -0.69531,-0.42187 -0.35156,-0.14063 -0.70312,-0.14063 -0.625,0 -1.17188,0.36719 -0.53906,0.36719 -0.53906,0.82031 z"
           id="path103708" />
        <path
           d="m 455.99492,272.16875 v -0.17773 q 0,-0.40625 0.0152,-0.70586 0.0152,-0.29961 0.0965,-0.79219 0.0863,-0.49766 0.22852,-0.84297 0.14726,-0.35039 0.44687,-0.68555 0.30469,-0.34023 0.72109,-0.49765 0.31993,-0.12696 0.65508,-0.12696 0.28946,0 0.5586,0.0813 0.27422,0.0762 0.57382,0.30977 0.30469,0.23359 0.52813,0.59922 0.22344,0.36562 0.36562,1.00547 0.14727,0.63984 0.14727,1.46758 v 0.21835 q 0,0.3961 -0.0152,0.71094 -0.0152,0.30977 -0.10157,0.79219 -0.0812,0.47734 -0.23359,0.82773 -0.14727,0.34532 -0.45195,0.67539 -0.29961,0.325 -0.71602,0.48243 -0.34531,0.11679 -0.65508,0.11172 -0.28945,0 -0.55859,-0.0762 -0.26406,-0.0711 -0.57383,-0.29453 -0.30469,-0.22344 -0.52305,-0.58398 -0.21836,-0.36563 -0.36562,-1.01055 -0.14219,-0.64492 -0.14219,-1.48789 z m 0.8125,0 q 0,0.6957 0.0914,1.22383 0.0965,0.52305 0.22851,0.82265 0.13711,0.29454 0.33008,0.47735 0.19297,0.18281 0.35547,0.23867 0.16758,0.0559 0.35547,0.0559 0.23867,0 0.44687,-0.10664 0.20821,-0.11172 0.42657,-0.38594 0.21836,-0.27422 0.34531,-0.87344 0.13203,-0.59921 0.13203,-1.4625 v -0.61445 q 0,-0.79219 -0.13203,-1.33047 -0.12695,-0.53828 -0.35039,-0.78711 -0.22344,-0.2539 -0.43164,-0.34531 -0.20821,-0.0965 -0.44688,-0.0965 -0.23867,0 -0.44687,0.0965 -0.20821,0.0914 -0.42656,0.34531 -0.21836,0.24883 -0.3504,0.79727 -0.12695,0.54336 -0.12695,1.32031 z"
           style="font-size:65%;baseline-shift:sub"
           id="path103710" />
        <path
           d="m 462.30742,272.19336 v -1.34375 h 1.34375 v 1.11719 l -0.0156,0.22656 -0.65625,2 h -0.67188 l 0.41407,-2 z"
           id="path103712" />
        <path
           d="m 471.81524,272.19336 v -7.20313 h 1.16406 v 1.125 q 0.92969,-1.20312 2.33594,-1.20312 0.59375,0 1.01562,0.17969 0.42969,0.17187 0.64844,0.42968 0.22656,0.25782 0.34375,0.64844 0.125,0.39063 0.15625,0.69531 0.0312,0.30469 0.0312,0.71875 v 4.60938 h -1.25 v -4.49219 q 0,-0.27344 -0.008,-0.42969 -0.008,-0.16406 -0.0937,-0.46093 -0.0859,-0.29688 -0.24219,-0.46875 -0.14844,-0.17969 -0.46094,-0.3125 -0.3125,-0.14063 -0.76562,-0.14063 -0.85157,0 -1.24219,0.71875 -0.38281,0.71875 -0.38281,1.74219 v 3.84375 z"
           id="path103714" />
        <path
           d="m 479.73399,269.62969 v -0.59922 q 1.24921,0 1.98554,-0.69063 h 0.19805 v 6.43907 h 1.3 v 0.61445 h -3.42774 v -0.61445 h 1.3 v -5.38789 q -0.61953,0.23867 -1.35585,0.23867 z"
           style="font-size:65%;baseline-shift:sub"
           id="path103716" />
        <path
           d="m 484.88242,276.19336 q 0.41407,-0.44531 0.66407,-0.75 0.25781,-0.30469 0.71093,-1.05469 0.46094,-0.74219 0.72657,-1.50781 0.26562,-0.76563 0.47656,-2.01563 0.21875,-1.25 0.21875,-2.67187 0,-1.48438 -0.24219,-2.78125 -0.23437,-1.29688 -0.5,-2.04688 -0.26562,-0.75781 -0.77344,-1.53125 -0.5,-0.77343 -0.6875,-0.98437 -0.17968,-0.21094 -0.59375,-0.65625 h 0.97657 q 3.07031,2.75 3.07031,7.98437 0,5.26563 -3.07031,8.01563 z"
           id="path103718" />
      </g>
      <g
         aria-label="-proj(b0, n1)"
         transform="matrix(-0.26458333,0,0,-0.26458333,284.59956,144.73846)"
         id="text22431-9-2"
         style="font-size:16px;line-height:1.25;font-family:'CMU Sans Serif';-inkscape-font-specification:'CMU Sans Serif, Normal';white-space:pre;shape-inside:url(#rect22433-5-8)">
        <path
           d="m 415.68555,269.10742 v -0.94531 h 4.25781 v 0.94531 z"
           id="path103721" />
        <path
           d="m 422.14648,275.31055 v -10.23438 h 1.19532 v 0.78125 q 1.17187,-0.94531 2.65625,-0.94531 1.10156,0 1.8125,1.10937 0.71875,1.10157 0.71875,2.58594 0,1.64844 -0.89063,2.71094 -0.88281,1.05469 -2.08594,1.05469 -1.1875,0 -2.15625,-0.91407 v 3.85157 z m 1.25,-5.13282 q 0,0.35157 0.45313,0.78907 0.45312,0.42968 1.09375,0.42968 0.89844,0 1.60937,-0.76562 0.71094,-0.77344 0.71094,-1.99219 0,-1.08594 -0.60937,-1.89062 -0.60157,-0.8125 -1.5625,-0.8125 -0.17969,0 -0.34375,0.0234 -0.15625,0.0234 -0.29688,0.0859 -0.13281,0.0547 -0.25,0.10938 -0.11719,0.0547 -0.22656,0.125 -0.10156,0.0703 -0.17969,0.14062 -0.0781,0.0625 -0.15625,0.14063 -0.0703,0.0781 -0.10937,0.13281 -0.0391,0.0469 -0.0859,0.0937 l -0.0469,0.0625 z"
           id="path103723" />
        <path
           d="m 429.9668,272.19336 v -7.20313 h 1.11718 v 1.44532 q 0.19532,-0.30469 0.46094,-0.58594 0.27344,-0.28125 0.92188,-0.60156 0.64843,-0.32032 1.42187,-0.33594 v 1.07031 q -0.41406,0.0156 -0.83594,0.15625 -0.41406,0.13281 -0.875,0.42969 -0.45312,0.29687 -0.73437,0.90625 -0.28125,0.60937 -0.28125,1.42187 v 3.29688 z"
           id="path103725" />
        <path
           d="m 434.61523,268.6543 q 0,-1.61719 1.03125,-2.72657 1.03907,-1.10937 2.47657,-1.10937 1.50781,0 2.51562,1.16406 1.00781,1.15625 1.00781,2.6875 0,1.58594 -1.0625,2.64844 -1.05468,1.05469 -2.46093,1.05469 -1.40625,0 -2.46094,-1.0625 -1.04688,-1.07032 -1.04688,-2.65625 z m 1.25,-0.15625 q 0,1.40625 0.67969,2.125 0.67969,0.71875 1.57813,0.71875 0.89843,0 1.57812,-0.72657 0.67969,-0.72656 0.67969,-2.11718 0,-1.34375 -0.67969,-2.01563 -0.67969,-0.67187 -1.57812,-0.67187 -0.88282,0 -1.57032,0.67187 -0.6875,0.67188 -0.6875,2.01563 z"
           id="path103727" />
        <path
           d="m 441.16211,274.92773 0.24219,-0.97656 q 0.625,0.49219 1.25,0.5 0.46093,0 0.78906,-0.23437 0.32812,-0.23438 0.42187,-0.57032 0.0312,-0.14062 0.0312,-0.41406 v -8.15625 h 1.20313 v 7.91406 q 0,1.32813 -0.625,1.90625 -0.625,0.57813 -1.39063,0.57813 -0.97656,0 -1.92187,-0.54688 z m 2.51562,-12.17187 v -1.42969 h 1.4375 v 1.42969 z"
           id="path103729" />
        <path
           d="m 447.68555,268.19336 q 0,-5.26563 3.05468,-8 h 0.99219 q -0.89844,0.96094 -1.29687,1.63281 -1.50782,2.53125 -1.5,6.36719 0,4.8125 2.28125,7.45312 l 0.51562,0.54688 h -0.99219 q -3.05468,-2.76563 -3.05468,-8 z"
           id="path103731" />
        <path
           d="m 453.91992,272.19336 v -11.55469 h 1.19531 v 5.20313 q 1.17188,-0.92969 2.5625,-0.92969 1.14844,0 1.88282,1.10937 0.74218,1.10157 0.74218,2.58594 0,1.61719 -0.89062,2.69531 -0.88281,1.07032 -2.10156,1.07032 -1.13282,0 -2.14063,-0.91407 v 0.73438 z m 1.25,-2.125 q 0,0.125 0.008,0.19531 0.008,0.0703 0.0312,0.14063 0.0234,0.0625 0.0469,0.0937 0.0234,0.0312 0.0781,0.10937 0.0547,0.0781 0.10157,0.14844 0.53125,0.64062 1.3125,0.64062 0.85156,0 1.57031,-0.67187 0.71875,-0.67188 0.71875,-2.10156 0,-0.75 -0.21094,-1.3125 -0.20312,-0.57032 -0.54687,-0.85938 -0.34375,-0.28906 -0.69532,-0.42187 -0.35156,-0.14063 -0.70312,-0.14063 -0.625,0 -1.17188,0.36719 -0.53906,0.36719 -0.53906,0.82031 z"
           id="path103733" />
        <path
           d="m 461.31523,272.16875 v -0.17773 q 0,-0.40625 0.0152,-0.70586 0.0152,-0.29961 0.0965,-0.79219 0.0863,-0.49766 0.22852,-0.84297 0.14726,-0.35039 0.44687,-0.68555 0.30469,-0.34023 0.7211,-0.49765 0.31992,-0.12696 0.65508,-0.12696 0.28945,0 0.55859,0.0813 0.27422,0.0762 0.57383,0.30977 0.30468,0.23359 0.52812,0.59922 0.22344,0.36562 0.36563,1.00547 0.14726,0.63984 0.14726,1.46758 v 0.21835 q 0,0.3961 -0.0152,0.71094 -0.0152,0.30977 -0.10156,0.79219 -0.0813,0.47734 -0.2336,0.82773 -0.14726,0.34532 -0.45195,0.67539 -0.29961,0.325 -0.71602,0.48243 -0.34531,0.11679 -0.65507,0.11172 -0.28946,0 -0.5586,-0.0762 -0.26406,-0.0711 -0.57383,-0.29453 -0.30468,-0.22344 -0.52304,-0.58398 -0.21836,-0.36563 -0.36563,-1.01055 -0.14219,-0.64492 -0.14219,-1.48789 z m 0.8125,0 q 0,0.6957 0.0914,1.22383 0.0965,0.52305 0.22852,0.82265 0.13711,0.29454 0.33007,0.47735 0.19297,0.18281 0.35547,0.23867 0.16758,0.0559 0.35547,0.0559 0.23867,0 0.44688,-0.10664 0.2082,-0.11172 0.42656,-0.38594 0.21836,-0.27422 0.34531,-0.87344 0.13203,-0.59921 0.13203,-1.4625 v -0.61445 q 0,-0.79219 -0.13203,-1.33047 -0.12695,-0.53828 -0.35039,-0.78711 -0.22344,-0.2539 -0.43164,-0.34531 -0.2082,-0.0965 -0.44687,-0.0965 -0.23868,0 -0.44688,0.0965 -0.2082,0.0914 -0.42656,0.34531 -0.21836,0.24883 -0.35039,0.79727 -0.12696,0.54336 -0.12696,1.32031 z"
           style="font-size:65%;baseline-shift:sub"
           id="path103735" />
        <path
           d="m 467.62774,272.19336 v -1.34375 h 1.34375 v 1.11719 l -0.0156,0.22656 -0.65625,2 h -0.67187 l 0.41406,-2 z"
           id="path103737" />
        <path
           d="m 477.13555,272.19336 v -7.20313 h 1.16406 v 1.125 q 0.92969,-1.20312 2.33594,-1.20312 0.59375,0 1.01562,0.17969 0.42969,0.17187 0.64844,0.42968 0.22656,0.25782 0.34375,0.64844 0.125,0.39063 0.15625,0.69531 0.0312,0.30469 0.0312,0.71875 v 4.60938 h -1.25 v -4.49219 q 0,-0.27344 -0.008,-0.42969 -0.008,-0.16406 -0.0937,-0.46093 -0.0859,-0.29688 -0.24219,-0.46875 -0.14844,-0.17969 -0.46094,-0.3125 -0.3125,-0.14063 -0.76562,-0.14063 -0.85156,0 -1.24219,0.71875 -0.38281,0.71875 -0.38281,1.74219 v 3.84375 z"
           id="path103739" />
        <path
           d="m 485.05429,269.62969 v -0.59922 q 1.24922,0 1.98555,-0.69063 h 0.19805 v 6.43907 h 1.3 v 0.61445 h -3.42774 v -0.61445 h 1.3 v -5.38789 q -0.61953,0.23867 -1.35586,0.23867 z"
           style="font-size:65%;baseline-shift:sub"
           id="path103741" />
        <path
           d="m 490.20274,276.19336 q 0.41406,-0.44531 0.66406,-0.75 0.25781,-0.30469 0.71094,-1.05469 0.46093,-0.74219 0.72656,-1.50781 0.26562,-0.76563 0.47656,-2.01563 0.21875,-1.25 0.21875,-2.67187 0,-1.48438 -0.24219,-2.78125 -0.23437,-1.29688 -0.5,-2.04688 -0.26562,-0.75781 -0.77343,-1.53125 -0.5,-0.77343 -0.6875,-0.98437 -0.17969,-0.21094 -0.59375,-0.65625 h 0.97656 q 3.07031,2.75 3.07031,7.98437 0,5.26563 -3.07031,8.01563 z"
           id="path103743" />
      </g>
      <g
         aria-label="-proj(b0, n1)"
         transform="matrix(-0.26458333,0,0,-0.26458333,263.95733,110.60416)"
         id="text22431-9-2-3"
         style="font-size:16px;line-height:1.25;font-family:'CMU Sans Serif';-inkscape-font-specification:'CMU Sans Serif, Normal';white-space:pre;shape-inside:url(#rect22433-5-8-5)">
        <path
           d="m 415.68555,269.10742 v -0.94531 h 4.25781 v 0.94531 z"
           id="path103746" />
        <path
           d="m 422.14648,275.31055 v -10.23438 h 1.19532 v 0.78125 q 1.17187,-0.94531 2.65625,-0.94531 1.10156,0 1.8125,1.10937 0.71875,1.10157 0.71875,2.58594 0,1.64844 -0.89063,2.71094 -0.88281,1.05469 -2.08594,1.05469 -1.1875,0 -2.15625,-0.91407 v 3.85157 z m 1.25,-5.13282 q 0,0.35157 0.45313,0.78907 0.45312,0.42968 1.09375,0.42968 0.89844,0 1.60937,-0.76562 0.71094,-0.77344 0.71094,-1.99219 0,-1.08594 -0.60937,-1.89062 -0.60157,-0.8125 -1.5625,-0.8125 -0.17969,0 -0.34375,0.0234 -0.15625,0.0234 -0.29688,0.0859 -0.13281,0.0547 -0.25,0.10938 -0.11719,0.0547 -0.22656,0.125 -0.10156,0.0703 -0.17969,0.14062 -0.0781,0.0625 -0.15625,0.14063 -0.0703,0.0781 -0.10937,0.13281 -0.0391,0.0469 -0.0859,0.0937 l -0.0469,0.0625 z"
           id="path103748" />
        <path
           d="m 429.9668,272.19336 v -7.20313 h 1.11718 v 1.44532 q 0.19532,-0.30469 0.46094,-0.58594 0.27344,-0.28125 0.92188,-0.60156 0.64843,-0.32032 1.42187,-0.33594 v 1.07031 q -0.41406,0.0156 -0.83594,0.15625 -0.41406,0.13281 -0.875,0.42969 -0.45312,0.29687 -0.73437,0.90625 -0.28125,0.60937 -0.28125,1.42187 v 3.29688 z"
           id="path103750" />
        <path
           d="m 434.61523,268.6543 q 0,-1.61719 1.03125,-2.72657 1.03907,-1.10937 2.47657,-1.10937 1.50781,0 2.51562,1.16406 1.00781,1.15625 1.00781,2.6875 0,1.58594 -1.0625,2.64844 -1.05468,1.05469 -2.46093,1.05469 -1.40625,0 -2.46094,-1.0625 -1.04688,-1.07032 -1.04688,-2.65625 z m 1.25,-0.15625 q 0,1.40625 0.67969,2.125 0.67969,0.71875 1.57813,0.71875 0.89843,0 1.57812,-0.72657 0.67969,-0.72656 0.67969,-2.11718 0,-1.34375 -0.67969,-2.01563 -0.67969,-0.67187 -1.57812,-0.67187 -0.88282,0 -1.57032,0.67187 -0.6875,0.67188 -0.6875,2.01563 z"
           id="path103752" />
        <path
           d="m 441.16211,274.92773 0.24219,-0.97656 q 0.625,0.49219 1.25,0.5 0.46093,0 0.78906,-0.23437 0.32812,-0.23438 0.42187,-0.57032 0.0312,-0.14062 0.0312,-0.41406 v -8.15625 h 1.20313 v 7.91406 q 0,1.32813 -0.625,1.90625 -0.625,0.57813 -1.39063,0.57813 -0.97656,0 -1.92187,-0.54688 z m 2.51562,-12.17187 v -1.42969 h 1.4375 v 1.42969 z"
           id="path103754" />
        <path
           d="m 447.68555,268.19336 q 0,-5.26563 3.05468,-8 h 0.99219 q -0.89844,0.96094 -1.29687,1.63281 -1.50782,2.53125 -1.5,6.36719 0,4.8125 2.28125,7.45312 l 0.51562,0.54688 h -0.99219 q -3.05468,-2.76563 -3.05468,-8 z"
           id="path103756" />
        <path
           d="m 453.91992,272.19336 v -11.55469 h 1.19531 v 5.20313 q 1.17188,-0.92969 2.5625,-0.92969 1.14844,0 1.88282,1.10937 0.74218,1.10157 0.74218,2.58594 0,1.61719 -0.89062,2.69531 -0.88281,1.07032 -2.10156,1.07032 -1.13282,0 -2.14063,-0.91407 v 0.73438 z m 1.25,-2.125 q 0,0.125 0.008,0.19531 0.008,0.0703 0.0312,0.14063 0.0234,0.0625 0.0469,0.0937 0.0234,0.0312 0.0781,0.10937 0.0547,0.0781 0.10157,0.14844 0.53125,0.64062 1.3125,0.64062 0.85156,0 1.57031,-0.67187 0.71875,-0.67188 0.71875,-2.10156 0,-0.75 -0.21094,-1.3125 -0.20312,-0.57032 -0.54687,-0.85938 -0.34375,-0.28906 -0.69532,-0.42187 -0.35156,-0.14063 -0.70312,-0.14063 -0.625,0 -1.17188,0.36719 -0.53906,0.36719 -0.53906,0.82031 z"
           id="path103758" />
        <path
           d="m 461.31523,272.16875 v -0.17773 q 0,-0.40625 0.0152,-0.70586 0.0152,-0.29961 0.0965,-0.79219 0.0863,-0.49766 0.22852,-0.84297 0.14726,-0.35039 0.44687,-0.68555 0.30469,-0.34023 0.7211,-0.49765 0.31992,-0.12696 0.65508,-0.12696 0.28945,0 0.55859,0.0813 0.27422,0.0762 0.57383,0.30977 0.30468,0.23359 0.52812,0.59922 0.22344,0.36562 0.36563,1.00547 0.14726,0.63984 0.14726,1.46758 v 0.21835 q 0,0.3961 -0.0152,0.71094 -0.0152,0.30977 -0.10156,0.79219 -0.0813,0.47734 -0.2336,0.82773 -0.14726,0.34532 -0.45195,0.67539 -0.29961,0.325 -0.71602,0.48243 -0.34531,0.11679 -0.65507,0.11172 -0.28946,0 -0.5586,-0.0762 -0.26406,-0.0711 -0.57383,-0.29453 -0.30468,-0.22344 -0.52304,-0.58398 -0.21836,-0.36563 -0.36563,-1.01055 -0.14219,-0.64492 -0.14219,-1.48789 z m 0.8125,0 q 0,0.6957 0.0914,1.22383 0.0965,0.52305 0.22852,0.82265 0.13711,0.29454 0.33007,0.47735 0.19297,0.18281 0.35547,0.23867 0.16758,0.0559 0.35547,0.0559 0.23867,0 0.44688,-0.10664 0.2082,-0.11172 0.42656,-0.38594 0.21836,-0.27422 0.34531,-0.87344 0.13203,-0.59921 0.13203,-1.4625 v -0.61445 q 0,-0.79219 -0.13203,-1.33047 -0.12695,-0.53828 -0.35039,-0.78711 -0.22344,-0.2539 -0.43164,-0.34531 -0.2082,-0.0965 -0.44687,-0.0965 -0.23868,0 -0.44688,0.0965 -0.2082,0.0914 -0.42656,0.34531 -0.21836,0.24883 -0.35039,0.79727 -0.12696,0.54336 -0.12696,1.32031 z"
           style="font-size:65%;baseline-shift:sub"
           id="path103760" />
        <path
           d="m 467.62774,272.19336 v -1.34375 h 1.34375 v 1.11719 l -0.0156,0.22656 -0.65625,2 h -0.67187 l 0.41406,-2 z"
           id="path103762" />
        <path
           d="m 477.13555,272.19336 v -7.20313 h 1.16406 v 1.125 q 0.92969,-1.20312 2.33594,-1.20312 0.59375,0 1.01562,0.17969 0.42969,0.17187 0.64844,0.42968 0.22656,0.25782 0.34375,0.64844 0.125,0.39063 0.15625,0.69531 0.0312,0.30469 0.0312,0.71875 v 4.60938 h -1.25 v -4.49219 q 0,-0.27344 -0.008,-0.42969 -0.008,-0.16406 -0.0937,-0.46093 -0.0859,-0.29688 -0.24219,-0.46875 -0.14844,-0.17969 -0.46094,-0.3125 -0.3125,-0.14063 -0.76562,-0.14063 -0.85156,0 -1.24219,0.71875 -0.38281,0.71875 -0.38281,1.74219 v 3.84375 z"
           id="path103764" />
        <path
           d="m 485.05429,269.62969 v -0.59922 q 1.24922,0 1.98555,-0.69063 h 0.19805 v 6.43907 h 1.3 v 0.61445 h -3.42774 v -0.61445 h 1.3 v -5.38789 q -0.61953,0.23867 -1.35586,0.23867 z"
           style="font-size:65%;baseline-shift:sub"
           id="path103766" />
        <path
           d="m 490.20274,276.19336 q 0.41406,-0.44531 0.66406,-0.75 0.25781,-0.30469 0.71094,-1.05469 0.46093,-0.74219 0.72656,-1.50781 0.26562,-0.76563 0.47656,-2.01563 0.21875,-1.25 0.21875,-2.67187 0,-1.48438 -0.24219,-2.78125 -0.23437,-1.29688 -0.5,-2.04688 -0.26562,-0.75781 -0.77343,-1.53125 -0.5,-0.77343 -0.6875,-0.98437 -0.17969,-0.21094 -0.59375,-0.65625 h 0.97656 q 3.07031,2.75 3.07031,7.98437 0,5.26563 -3.07031,8.01563 z"
           id="path103768" />
      </g>
      <g
         aria-label="c0"
         transform="matrix(-0.26458333,0,0,-0.26458333,277.65133,167.58077)"
         id="text22431-7"
         style="font-size:16px;line-height:1.25;font-family:'CMU Sans Serif';-inkscape-font-specification:'CMU Sans Serif, Normal';white-space:pre;shape-inside:url(#rect22433-3)">
        <path
           d="m 416.0918,268.62305 q 0,-1.48438 0.95312,-2.64063 0.96094,-1.16406 2.5625,-1.16406 0.75,0 1.24219,0.14844 0.5,0.14062 1.24219,0.55468 l -0.19532,1.05469 q -0.78125,-0.49219 -1.19531,-0.60937 -0.46094,-0.125 -1.10937,-0.125 -1.08594,0 -1.67188,0.82812 -0.58594,0.82031 -0.58594,1.95313 0,1.1875 0.625,1.95312 0.625,0.76563 1.61719,0.76563 1.25,0 2.51563,-0.85938 l 0.0781,1.07031 q -1.26562,0.8125 -2.60937,0.82032 -1.46875,0 -2.46875,-1.09375 -1,-1.10157 -1,-2.65625 z"
           id="path103771" />
        <path
           d="m 423.05742,272.16875 v -0.17773 q 0,-0.40625 0.0152,-0.70586 0.0152,-0.29961 0.0965,-0.79219 0.0863,-0.49766 0.22852,-0.84297 0.14726,-0.35039 0.44687,-0.68555 0.30469,-0.34023 0.72109,-0.49765 0.31993,-0.12696 0.65508,-0.12696 0.28946,0 0.5586,0.0813 0.27422,0.0762 0.57382,0.30977 0.30469,0.23359 0.52813,0.59922 0.22344,0.36562 0.36562,1.00547 0.14727,0.63984 0.14727,1.46758 v 0.21835 q 0,0.3961 -0.0152,0.71094 -0.0152,0.30977 -0.10157,0.79219 -0.0812,0.47734 -0.23359,0.82773 -0.14727,0.34532 -0.45195,0.67539 -0.29961,0.325 -0.71602,0.48243 -0.34531,0.11679 -0.65508,0.11172 -0.28945,0 -0.55859,-0.0762 -0.26406,-0.0711 -0.57383,-0.29453 -0.30469,-0.22344 -0.52305,-0.58398 -0.21836,-0.36563 -0.36562,-1.01055 -0.14219,-0.64492 -0.14219,-1.48789 z m 0.8125,0 q 0,0.6957 0.0914,1.22383 0.0965,0.52305 0.22851,0.82265 0.13711,0.29454 0.33008,0.47735 0.19297,0.18281 0.35547,0.23867 0.16758,0.0559 0.35547,0.0559 0.23867,0 0.44687,-0.10664 0.20821,-0.11172 0.42657,-0.38594 0.21836,-0.27422 0.34531,-0.87344 0.13203,-0.59921 0.13203,-1.4625 v -0.61445 q 0,-0.79219 -0.13203,-1.33047 -0.12695,-0.53828 -0.35039,-0.78711 -0.22344,-0.2539 -0.43164,-0.34531 -0.20821,-0.0965 -0.44688,-0.0965 -0.23867,0 -0.44687,0.0965 -0.20821,0.0914 -0.42656,0.34531 -0.21836,0.24883 -0.3504,0.79727 -0.12695,0.54336 -0.12695,1.32031 z"
           style="font-size:65%;baseline-shift:sub"
           id="path103773" />
      </g>
      <g
         aria-label="n1"
         id="text38757"
         style="font-size:4.23333px;line-height:1.25;font-family:'CMU Sans Serif';-inkscape-font-specification:'CMU Sans Serif, Normal';stroke-width:0.264583"
         transform="rotate(180,104.58079,141.80847)">
        <path
           d="m 103.07236,142.34839 v -1.90583 h 0.30799 v 0.29766 q 0.24598,-0.31833 0.61805,-0.31833 0.15709,0 0.26872,0.0476 0.11368,0.0455 0.17156,0.11368 0.06,0.0682 0.0909,0.17157 0.0331,0.10335 0.0413,0.18397 0.008,0.0806 0.008,0.19017 v 1.21956 h -0.33073 v -1.18856 q 0,-0.0724 -0.002,-0.11369 -0.002,-0.0434 -0.0248,-0.12195 -0.0227,-0.0786 -0.0641,-0.12403 -0.0393,-0.0475 -0.12195,-0.0827 -0.0827,-0.0372 -0.20258,-0.0372 -0.22531,0 -0.32866,0.19017 -0.10128,0.19017 -0.10128,0.46096 v 1.01699 z"
           id="path103776" />
        <path
           d="m 105.16752,141.67008 v -0.15854 q 0.33053,0 0.52535,-0.18273 h 0.0524 v 1.70367 h 0.34395 v 0.16257 h -0.90692 v -0.16257 h 0.34396 v -1.42554 q -0.16392,0.0631 -0.35874,0.0631 z"
           style="font-size:65%;baseline-shift:sub"
           id="path103778" />
      </g>
      <g
         aria-label="v1"
         id="text41359"
         style="font-size:4.23333px;line-height:1.25;font-family:'CMU Sans Serif';-inkscape-font-specification:'CMU Sans Serif, Normal';stroke-width:0.264583"
         transform="rotate(180,97.43487,58.993935)">
        <path
           d="m 95.904732,57.629058 h 0.324528 l 0.394808,1.031461 q 0.1819,0.516764 0.202571,0.640787 0.03307,-0.214973 0.593245,-1.672248 h 0.312125 l -0.727603,1.883088 h -0.37207 z"
           id="path103781" />
        <path
           d="m 98.043308,58.833842 v -0.158543 q 0.330522,0 0.525342,-0.182728 h 0.0524 v 1.703667 h 0.343958 v 0.162574 h -0.906921 v -0.162574 h 0.343958 v -1.425545 q -0.163917,0.06315 -0.358737,0.06315 z"
           style="font-size:65%;baseline-shift:sub"
           id="path103783" />
      </g>
      <g
         aria-label="m1'"
         id="text43049"
         style="font-size:4.23333px;line-height:1.25;font-family:'CMU Sans Serif';-inkscape-font-specification:'CMU Sans Serif, Normal';stroke-width:0.264583"
         transform="rotate(180,76.258259,92.082352)">
        <path
           d="m 73.685189,93.187607 v -1.905825 h 0.307991 v 0.297656 q 0.245979,-0.318327 0.618049,-0.318327 0.411344,0 0.537435,0.343131 0.258382,-0.343131 0.640787,-0.343131 0.16123,0 0.276986,0.05374 0.115755,0.05168 0.171565,0.121957 0.05788,0.07028 0.08888,0.179834 0.03307,0.109554 0.03721,0.179833 0.0041,0.07028 0.0041,0.171566 v 1.219563 H 76.033364 V 91.99905 q 0,-0.0083 0,-0.02481 0,-0.0186 -0.0083,-0.06821 -0.0083,-0.05168 -0.02274,-0.09508 -0.01447,-0.04547 -0.04547,-0.09922 -0.02894,-0.05581 -0.07235,-0.09508 -0.04134,-0.04134 -0.109554,-0.06821 -0.06615,-0.02894 -0.150895,-0.02894 -0.225309,0 -0.328662,0.190169 -0.103353,0.190169 -0.103353,0.460953 v 1.016992 H 74.861343 V 91.99905 q 0,-0.07235 -0.0021,-0.113688 -0.0021,-0.04341 -0.02481,-0.121956 -0.02274,-0.07855 -0.06408,-0.124024 -0.03927,-0.04754 -0.121957,-0.08268 -0.08268,-0.03721 -0.202571,-0.03721 -0.225309,0 -0.328662,0.190169 -0.101286,0.190169 -0.101286,0.460953 v 1.016992 z"
           id="path103786" />
        <path
           d="M 76.954443,92.509303 V 92.35076 q 0.330523,0 0.525343,-0.182728 h 0.0524 v 1.703667 h 0.343958 v 0.162574 h -0.90692 v -0.162574 h 0.343958 v -1.425545 q -0.163918,0.06315 -0.358738,0.06315 z"
           style="font-size:65%;baseline-shift:sub"
           id="path103788" />
        <path
           d="m 78.502668,90.130432 h 0.328662 l -0.02481,1.089338 -0.0083,0.432015 v 0.0041 h -0.258382 l -0.0041,-0.0041 z"
           id="path103790" />
      </g>
      <g
         aria-label="θ1"
         id="text45111"
         style="font-size:4.23333px;line-height:1.25;font-family:'CMU Sans Serif';-inkscape-font-specification:'CMU Sans Serif, Normal';stroke-width:0.375867"
         transform="rotate(180,62.628645,109.47247)">
        <path
           d="m 61.072669,109.07704 q 0,-0.21911 0.02274,-0.42375 0.02274,-0.20671 0.08475,-0.42168 0.06201,-0.21704 0.157096,-0.37414 0.09508,-0.15709 0.254248,-0.25838 0.159163,-0.10128 0.361735,-0.10128 0.250113,0 0.432014,0.14882 0.181901,0.14676 0.274919,0.39274 0.09302,0.24598 0.132291,0.50023 0.04134,0.25425 0.04134,0.52917 0,0.29972 -0.04547,0.5643 -0.04341,0.26459 -0.138493,0.5023 -0.09508,0.23564 -0.274918,0.37414 -0.179834,0.13849 -0.421679,0.13849 -0.250114,0 -0.432015,-0.14676 -0.181901,-0.14676 -0.274918,-0.39068 -0.09302,-0.24598 -0.134359,-0.50022 -0.03927,-0.25425 -0.03927,-0.5333 z m 0.334863,0.16123 q 0.0041,0.13022 0.0062,0.16329 0.0021,0.031 0.0124,0.16744 0.01033,0.13435 0.0248,0.1881 0.01447,0.0517 0.03927,0.16329 0.02687,0.10956 0.06615,0.1633 0.04134,0.0517 0.09509,0.11782 0.05581,0.0641 0.132291,0.091 0.07648,0.0248 0.169499,0.0248 0.16123,0 0.270784,-0.0868 0.109554,-0.0868 0.169499,-0.25424 0.05994,-0.16744 0.08475,-0.37207 0.02481,-0.20671 0.02481,-0.48163 h -1.09554 z m 0,-0.36174 h 1.091405 q -0.0041,-0.13642 -0.0124,-0.22531 -0.0083,-0.0909 -0.02894,-0.22944 -0.0186,-0.14056 -0.05374,-0.23151 -0.03514,-0.0909 -0.09302,-0.1819 -0.05788,-0.0909 -0.148828,-0.13436 -0.09095,-0.0455 -0.208772,-0.0455 -0.121957,0 -0.217041,0.0496 -0.09302,0.0476 -0.150895,0.14883 -0.05581,0.10129 -0.09302,0.19224 -0.03514,0.0909 -0.05168,0.23771 -0.01654,0.14469 -0.02274,0.21704 -0.0062,0.0724 -0.01033,0.20257 z"
           id="path103793" />
        <path
           d="m 63.262921,109.92215 v -0.15854 q 0.330522,0 0.525342,-0.18273 h 0.0524 v 1.70367 h 0.343958 v 0.16257 h -0.90692 v -0.16257 h 0.343958 V 109.859 q -0.163918,0.0632 -0.358738,0.0632 z"
           style="font-size:65%;baseline-shift:sub"
           id="path103795" />
      </g>
      <g
         aria-label="θx"
         id="text45111-0"
         style="font-size:4.23333px;line-height:1.25;font-family:'CMU Sans Serif';-inkscape-font-specification:'CMU Sans Serif, Normal';stroke-width:0.375867"
         transform="rotate(180,77.015311,116.65935)">
        <path
           d="m 75.41096,116.26358 q 0,-0.21911 0.02274,-0.42374 0.02274,-0.20671 0.08475,-0.42168 0.06201,-0.21704 0.157096,-0.37414 0.09508,-0.1571 0.254248,-0.25838 0.159163,-0.10129 0.361735,-0.10129 0.250114,0 0.432015,0.14883 0.1819,0.14676 0.274918,0.39274 0.09302,0.24598 0.132291,0.50023 0.04134,0.25425 0.04134,0.52916 0,0.29973 -0.04548,0.56431 -0.04341,0.26458 -0.138492,0.5023 -0.09508,0.23564 -0.274919,0.37413 -0.179834,0.13849 -0.421679,0.13849 -0.250114,0 -0.432015,-0.14676 -0.181901,-0.14676 -0.274918,-0.39067 -0.09302,-0.24598 -0.134359,-0.50023 -0.03927,-0.25424 -0.03927,-0.5333 z m 0.334863,0.16123 q 0.0041,0.13023 0.0062,0.1633 0.0021,0.031 0.0124,0.16743 0.01033,0.13436 0.0248,0.1881 0.01447,0.0517 0.03927,0.1633 0.02687,0.10956 0.06615,0.1633 0.04134,0.0517 0.09508,0.11782 0.05581,0.0641 0.132291,0.091 0.07648,0.0248 0.169499,0.0248 0.16123,0 0.270784,-0.0868 0.109554,-0.0868 0.169499,-0.25425 0.05994,-0.16743 0.08475,-0.37207 0.02481,-0.2067 0.02481,-0.48162 h -1.09554 z m 0,-0.36173 h 1.091406 q -0.0041,-0.13643 -0.0124,-0.22531 -0.0083,-0.091 -0.02894,-0.22944 -0.0186,-0.14056 -0.05374,-0.23151 -0.03514,-0.0909 -0.09302,-0.18191 -0.05788,-0.0909 -0.148828,-0.13435 -0.09095,-0.0455 -0.208773,-0.0455 -0.121956,0 -0.217041,0.0496 -0.09302,0.0475 -0.150895,0.14883 -0.05581,0.10128 -0.09302,0.19223 -0.03514,0.091 -0.05168,0.23772 -0.01654,0.14469 -0.02274,0.21704 -0.0062,0.0723 -0.01034,0.20257 z"
           id="path103798" />
        <path
           d="m 77.353992,118.63367 0.533404,-0.62746 v -0.005 l -0.517281,-0.59118 h 0.22841 l 0.380235,0.45413 h 0.0027 l 0.365456,-0.45413 h 0.228409 l -0.506532,0.59118 v 0.003 l 0.55087,0.63014 h -0.228409 l -0.412481,-0.51728 -0.396358,0.51728 z"
           style="font-size:65%;baseline-shift:sub"
           id="path103800" />
      </g>
      <g
         aria-label="x"
         transform="matrix(-0.26458333,0,0,-0.26458333,176.60759,171.30594)"
         id="text129633"
         style="font-size:16px;white-space:pre;stroke-opacity:0.53357">
        <path
           d="m 444.41797,479.71484 3.10156,-3.64843 v -0.0312 l -3.00781,-3.4375 h 1.32812 l 2.21094,2.64062 h 0.0156 l 2.125,-2.64062 h 1.32812 l -2.94531,3.4375 v 0.0156 l 3.20312,3.66406 h -1.32812 l -2.39844,-3.00781 -2.30469,3.00781 z"
           style="-inkscape-font-specification:'CMU Sans Serif'"
           id="path146213" />
      </g>
      <g
         aria-label="y"
         transform="matrix(-0.26458333,0,0,-0.26458333,185.62044,180.60056)"
         id="text129633-0"
         style="font-size:16px;white-space:pre;stroke-opacity:0.53357">
        <path
           d="m 444.64453,472.59766 h 1.25781 q 1.02344,2.35156 1.53907,3.67968 0.51562,1.32813 0.60156,1.67188 0.0859,0.34375 0.17969,0.96875 0.0312,-1.11719 2.13281,-6.32031 h 1.19531 l -3.46875,8.55468 q -0.46094,1.07032 -0.86719,1.45313 -0.39843,0.39062 -0.97656,0.39062 -0.65625,0 -1.16406,-0.13281 l -0.0781,-1.03906 q 0.85157,0.27344 1.16407,0.27344 0.42968,0 0.64843,-0.3125 0.21875,-0.3125 0.66407,-1.39844 0.10937,-0.27344 0.17968,-0.42969 0.0625,-0.14062 0.0625,-0.25 0,-0.11719 -0.0781,-0.28125 z"
           style="-inkscape-font-specification:'CMU Sans Serif'"
           id="path146218" />
      </g>
      <path
         style="fill:none;stroke:#000000;stroke-width:0.264583px;stroke-linecap:butt;stroke-linejoin:miter;stroke-opacity:0.53356981"
         d="M 66.243121,42.910697 50.39514,42.814867 52.324492,41.141282"
         id="path145515"
         sodipodi:nodetypes="ccc" />
      <path
         style="fill:none;stroke:#000000;stroke-width:0.264583px;stroke-linecap:butt;stroke-linejoin:miter;stroke-opacity:0.53356981"
         d="m 50.204999,42.869194 2.028447,2.083936"
         id="path145517"
         sodipodi:nodetypes="cc" />
      <path
         style="fill:none;stroke:#000000;stroke-width:0.264583px;stroke-linecap:butt;stroke-linejoin:miter;stroke-opacity:0.53356981"
         d="M 70.591858,47.820599 70.496028,63.66858 68.822443,61.739228"
         id="path145515-6"
         sodipodi:nodetypes="ccc" />
      <path
         style="fill:none;stroke:#000000;stroke-width:0.264583px;stroke-linecap:butt;stroke-linejoin:miter;stroke-opacity:0.53356981"
         d="m 70.550355,63.858721 2.083936,-2.028447"
         id="path145517-6"
         sodipodi:nodetypes="cc" />
    </g>
  </g>
</svg>
