<?xml version="1.0" encoding="UTF-8" standalone="no"?>
<!-- Created with Inkscape (http://www.inkscape.org/) -->

<svg
   width="112.27605mm"
   height="93.833961mm"
   viewBox="0 0 112.27605 93.833961"
   version="1.1"
   id="svg5"
   sodipodi:docname="theta-s-plot.svg"
   inkscape:version="1.1.2 (0a00cf5339, 2022-02-04)"
   xmlns:inkscape="http://www.inkscape.org/namespaces/inkscape"
   xmlns:sodipodi="http://sodipodi.sourceforge.net/DTD/sodipodi-0.dtd"
   xmlns="http://www.w3.org/2000/svg"
   xmlns:svg="http://www.w3.org/2000/svg">
  <sodipodi:namedview
     id="namedview7"
     pagecolor="#ffffff"
     bordercolor="#666666"
     borderopacity="1.0"
     inkscape:pageshadow="2"
     inkscape:pageopacity="0.0"
     inkscape:pagecheckerboard="0"
     inkscape:document-units="mm"
     showgrid="false"
     inkscape:zoom="4.6411058"
     inkscape:cx="134.12752"
     inkscape:cy="173.23458"
     inkscape:window-width="1920"
     inkscape:window-height="1043"
     inkscape:window-x="0"
     inkscape:window-y="0"
     inkscape:window-maximized="1"
     inkscape:current-layer="text72122"
     fit-margin-top="0"
     fit-margin-left="0"
     fit-margin-right="0"
     fit-margin-bottom="0" />
  <defs
     id="defs2">
    <rect
       x="188.33278"
       y="188.57798"
       width="102.02589"
       height="71.724623"
       id="rect110779" />
    <rect
       x="45.346559"
       y="119.71006"
       width="62.195144"
       height="77.391604"
       id="rect72124" />
    <rect
       x="291.77841"
       y="275.51373"
       width="121.93415"
       height="103.6244"
       id="rect10467" />
    <rect
       x="291.77841"
       y="275.51373"
       width="121.93415"
       height="103.6244"
       id="rect10467-1" />
    <rect
       x="291.77841"
       y="275.51373"
       width="121.93415"
       height="103.6244"
       id="rect10467-7" />
    <rect
       x="291.77841"
       y="275.51373"
       width="121.93415"
       height="103.6244"
       id="rect10467-7-9" />
    <rect
       x="291.77841"
       y="275.51373"
       width="121.93415"
       height="103.6244"
       id="rect10467-6" />
    <rect
       x="291.77841"
       y="275.51373"
       width="121.93415"
       height="103.6244"
       id="rect10467-6-2" />
    <rect
       x="291.77841"
       y="275.51373"
       width="121.93415"
       height="103.6244"
       id="rect10467-6-2-1" />
    <rect
       x="291.77841"
       y="275.51373"
       width="121.93415"
       height="103.6244"
       id="rect10467-7-2" />
    <rect
       x="291.77841"
       y="275.51373"
       width="121.93415"
       height="103.6244"
       id="rect10467-5" />
    <rect
       x="291.77841"
       y="275.51373"
       width="121.93415"
       height="103.6244"
       id="rect10467-5-2" />
    <rect
       x="291.77841"
       y="275.51373"
       width="121.93415"
       height="103.6244"
       id="rect10467-5-8" />
    <rect
       x="188.33278"
       y="188.57797"
       width="102.02589"
       height="71.724625"
       id="rect110779-7" />
  </defs>
  <g
     inkscape:label="Layer 1"
     inkscape:groupmode="layer"
     id="layer1"
     transform="translate(-59.318072,-2.3452636)">
    <path
       style="fill:none;stroke:#000000;stroke-width:0.44285px;stroke-linecap:butt;stroke-linejoin:miter;stroke-opacity:0.497299"
       d="M 94.501943,13.215249 V 96.179227"
       id="path861" />
    <path
       style="fill:none;stroke:#000000;stroke-width:0.532;stroke-linecap:butt;stroke-linejoin:miter;stroke-miterlimit:4;stroke-dasharray:none;stroke-opacity:0.497299"
       d="M 94.501943,2.5192561 V 13.215249"
       id="path861-9" />
    <path
       style="fill:none;stroke:#5e00f0;stroke-width:0.531528;stroke-linecap:butt;stroke-linejoin:miter;stroke-miterlimit:4;stroke-dasharray:none;stroke-dashoffset:0;stroke-opacity:1"
       d="M 94.711334,76.433866 70.03257,88.749689"
       id="path857-7"
       sodipodi:nodetypes="cc" />
    <path
       style="fill:none;stroke:#000000;stroke-width:0.532;stroke-linecap:butt;stroke-linejoin:miter;stroke-miterlimit:4;stroke-dasharray:none;stroke-dashoffset:0;stroke-opacity:0.497299"
       d="M 70.100552,88.613462 59.559255,93.874047"
       id="path857-7-2"
       sodipodi:nodetypes="cc" />
    <path
       style="fill:none;stroke:#b80000;stroke-width:0.531528;stroke-linecap:butt;stroke-linejoin:miter;stroke-miterlimit:4;stroke-dasharray:0.531528, 1.06306;stroke-dashoffset:0;stroke-opacity:0.779836"
       d="M 160.15604,79.733302 135.47728,92.049125"
       id="path857-7-3"
       sodipodi:nodetypes="cc" />
    <path
       style="fill:none;stroke:#5e00f0;stroke-width:0.532;stroke-linecap:butt;stroke-linejoin:miter;stroke-miterlimit:4;stroke-dasharray:none;stroke-dashoffset:0;stroke-opacity:1"
       d="m 94.706945,76.343265 65.586895,3.171637"
       id="path859-5"
       sodipodi:nodetypes="cc" />
    <path
       style="fill:none;stroke:#5e00f0;stroke-width:0.532;stroke-linecap:butt;stroke-linejoin:miter;stroke-miterlimit:4;stroke-dasharray:none;stroke-dashoffset:0;stroke-opacity:1"
       d="M 94.711322,76.433866 94.501943,13.215249"
       id="path859-5-0"
       sodipodi:nodetypes="cc" />
    <path
       style="fill:none;stroke:#000000;stroke-width:0.532;stroke-linecap:butt;stroke-linejoin:miter;stroke-miterlimit:4;stroke-dasharray:none;stroke-dashoffset:0;stroke-opacity:0.497299"
       d="m 160.28318,79.294371 11.09917,0.536731"
       id="path859-5-7"
       sodipodi:nodetypes="cc" />
    <path
       style="fill:none;stroke:#b80000;stroke-width:0.531528;stroke-linecap:butt;stroke-linejoin:miter;stroke-miterlimit:4;stroke-dasharray:0.531528, 1.06306;stroke-dashoffset:0;stroke-opacity:0.779836"
       d="m 70.03257,88.749689 65.58689,3.171636"
       id="path859-5-5"
       sodipodi:nodetypes="cc" />
    <path
       style="fill:none;stroke:#008154;stroke-width:0.531527px;stroke-linecap:butt;stroke-linejoin:miter;stroke-opacity:1"
       d="M 94.501943,13.215249 70.03257,88.749686"
       id="path1381" />
    <path
       style="fill:none;stroke:#000000;stroke-width:0.531527px;stroke-linecap:butt;stroke-linejoin:miter;stroke-opacity:1"
       d="M 94.501943,13.215249 Z"
       id="path1383" />
    <path
       style="fill:none;stroke:#008154;stroke-width:0.532;stroke-linecap:butt;stroke-linejoin:miter;stroke-miterlimit:4;stroke-dasharray:none;stroke-opacity:1"
       d="M 160.15604,79.733298 94.501943,13.215249 135.61946,91.921325"
       id="path1418" />
    <path
       style="fill:none;stroke:#5e00f0;stroke-width:0.531528;stroke-linecap:butt;stroke-linejoin:miter;stroke-miterlimit:4;stroke-dasharray:none;stroke-opacity:1"
       d="M 94.711322,76.433866 135.61946,91.921321"
       id="path1803" />
    <path
       style="fill:none;stroke:#008154;stroke-width:0.531528;stroke-linecap:butt;stroke-linejoin:miter;stroke-miterlimit:4;stroke-dasharray:none;stroke-opacity:1"
       d="m 88.156011,32.658955 c 0.930417,2.031572 4.139167,3.958586 6.178824,2.510864"
       id="path2667"
       sodipodi:nodetypes="cc" />
    <path
       style="fill:none;stroke:#008154;stroke-width:0.531528;stroke-linecap:butt;stroke-linejoin:miter;stroke-miterlimit:4;stroke-dasharray:none;stroke-opacity:1"
       d="m 94.412076,32.371657 c 8.243794,0.597973 12.194174,-2.437812 14.547504,-4.500486"
       id="path2667-6"
       sodipodi:nodetypes="cc" />
    <path
       style="fill:none;stroke:#008154;stroke-width:0.531528;stroke-linecap:butt;stroke-linejoin:miter;stroke-miterlimit:4;stroke-dasharray:none;stroke-opacity:1"
       d="m 94.697253,49.263273 c 8.579077,2.129813 13.936267,-1.774606 16.743897,-3.653411"
       id="path2667-6-2"
       sodipodi:nodetypes="cc" />
    <g
       aria-label="x"
       transform="matrix(0.26458333,0,0,0.26458333,-16.806025,11.850843)"
       id="text10465-9"
       style="font-size:16px;line-height:1.25;white-space:pre;shape-inside:url(#rect10467-5)">
      <path
         d="m 291.7793,290.31055 3.10156,-3.64844 v -0.0312 l -3.00781,-3.4375 h 1.32812 l 2.21094,2.64062 h 0.0156 l 2.125,-2.64062 h 1.32813 l -2.94531,3.4375 v 0.0156 l 3.20312,3.66407 h -1.32812 l -2.39844,-3.00782 -2.30469,3.00782 z"
         style="font-family:'CMU Sans Serif';-inkscape-font-specification:'CMU Sans Serif'"
         id="path66859" />
    </g>
    <g
       aria-label="z"
       transform="matrix(0.26458333,0,0,0.26458333,21.765917,-71.019655)"
       id="text10465-9-2"
       style="font-size:16px;line-height:1.25;white-space:pre;shape-inside:url(#rect10467-5-2)">
      <path
         d="m 292.20898,290.31055 v -0.65625 l 4.25782,-5.52344 -0.47657,0.0234 h -3.55468 v -0.96094 h 5.71093 v 0.64062 l -4.24218,5.48438 h 3.21875 l 0.33593,-0.0156 h 0.73438 v 1.00782 z"
         style="font-family:'CMU Sans Serif';-inkscape-font-specification:'CMU Sans Serif'"
         id="path66865" />
    </g>
    <g
       aria-label="y"
       transform="matrix(0.26458333,0,0,0.26458333,90.104057,-1.3161708)"
       id="text10465-9-9"
       style="font-size:16px;line-height:1.25;white-space:pre;shape-inside:url(#rect10467-5-8)">
      <path
         d="m 292.00586,283.19336 h 1.25781 q 1.02344,2.35156 1.53906,3.67969 0.51563,1.32812 0.60157,1.67187 0.0859,0.34375 0.17968,0.96875 0.0312,-1.11719 2.13282,-6.32031 h 1.19531 l -3.46875,8.55469 q -0.46094,1.07031 -0.86719,1.45312 -0.39844,0.39063 -0.97656,0.39063 -0.65625,0 -1.16406,-0.13282 l -0.0781,-1.03906 q 0.85156,0.27344 1.16406,0.27344 0.42969,0 0.64844,-0.3125 0.21875,-0.3125 0.66406,-1.39844 0.10938,-0.27344 0.17969,-0.42969 0.0625,-0.14062 0.0625,-0.25 0,-0.11718 -0.0781,-0.28125 z"
         style="font-family:'CMU Sans Serif';-inkscape-font-specification:'CMU Sans Serif'"
         id="path66862" />
    </g>
    <g
       aria-label="θx"
       transform="matrix(0.26458333,0,0,0.26458333,11.340537,-37.458871)"
       id="text10465-06"
       style="font-size:16px;line-height:1.25;white-space:pre;shape-inside:url(#rect10467-6)">
      <path
         d="m 292.43555,284.55273 q 0,-0.82812 0.0859,-1.60156 0.0859,-0.78125 0.32032,-1.59375 0.23437,-0.82031 0.59375,-1.41406 0.35937,-0.59375 0.96093,-0.97656 0.60157,-0.38282 1.36719,-0.38282 0.94531,0 1.63281,0.5625 0.6875,0.55469 1.03907,1.48438 0.35156,0.92969 0.5,1.89062 0.15625,0.96094 0.15625,2 0,1.13282 -0.17188,2.13282 -0.16406,1 -0.52344,1.89843 -0.35937,0.89063 -1.03906,1.41407 -0.67969,0.52343 -1.59375,0.52343 -0.94531,0 -1.63281,-0.55468 -0.6875,-0.55469 -1.03906,-1.47657 -0.35157,-0.92968 -0.50782,-1.89062 -0.14843,-0.96094 -0.14843,-2.01563 z m 1.26562,0.60938 q 0.0156,0.49219 0.0234,0.61719 0.008,0.11718 0.0469,0.63281 0.0391,0.50781 0.0937,0.71094 0.0547,0.19531 0.14844,0.61718 0.10156,0.41407 0.25,0.61719 0.15625,0.19531 0.35938,0.44531 0.21093,0.24219 0.5,0.34375 0.28906,0.0937 0.64062,0.0937 0.60938,0 1.02344,-0.32812 0.41406,-0.32813 0.64062,-0.96094 0.22657,-0.63281 0.32032,-1.40625 0.0937,-0.78125 0.0937,-1.82031 h -4.14063 z m 0,-1.36719 h 4.125 q -0.0156,-0.51562 -0.0469,-0.85156 -0.0312,-0.34375 -0.10938,-0.86719 -0.0703,-0.53125 -0.20312,-0.875 -0.13282,-0.34375 -0.35157,-0.6875 -0.21875,-0.34375 -0.5625,-0.50781 -0.34375,-0.17188 -0.78906,-0.17188 -0.46094,0 -0.82031,0.1875 -0.35156,0.17969 -0.57031,0.5625 -0.21094,0.38282 -0.35157,0.72657 -0.13281,0.34375 -0.19531,0.89843 -0.0625,0.54688 -0.0859,0.82032 -0.0234,0.27343 -0.0391,0.76562 z"
         style="font-family:'CMU Sans Serif';-inkscape-font-specification:'CMU Sans Serif'"
         id="path66878" />
      <g
         aria-label="1"
         transform="matrix(0.26277677,0,0,0.26277677,287.64075,252.09302)"
         id="text72122"
         style="font-size:40px;shape-inside:url(#rect72124)">
        <g
           aria-label="x"
           transform="matrix(3.8055115,0,0,3.8055115,-671.60618,-629.43996)"
           id="text110777"
           style="font-size:16px;shape-inside:url(#rect110779)">
          <path
             d="m 188.33203,205.93438 2.01602,-2.37149 v -0.0203 l -1.95508,-2.23438 h 0.86328 l 1.43711,1.71641 h 0.0102 l 1.38125,-1.71641 h 0.86328 l -1.91446,2.23438 v 0.0102 l 2.08203,2.38165 h -0.86328 l -1.55898,-1.95508 -1.49805,1.95508 z"
             style="font-size:65%;font-family:'CMU Sans Serif';-inkscape-font-specification:'CMU Sans Serif';baseline-shift:sub"
             id="path124994" />
        </g>
        <g
           aria-label="y"
           transform="matrix(3.8055115,0,0,3.8055115,-481.97777,-687.87898)"
           id="text110777-4"
           style="font-size:16px;shape-inside:url(#rect110779-7)">
          <path
             d="m 188.4793,201.3082 h 0.81757 q 0.66524,1.52852 1.0004,2.3918 0.33515,0.86328 0.39101,1.08672 0.0559,0.22344 0.1168,0.62969 0.0203,-0.72618 1.38633,-4.10821 h 0.77695 l -2.25469,5.56055 q -0.29961,0.6957 -0.56367,0.94453 -0.25898,0.25391 -0.63477,0.25391 -0.42656,0 -0.75664,-0.0863 l -0.0508,-0.67539 q 0.55352,0.17773 0.75664,0.17773 0.2793,0 0.42149,-0.20312 0.14218,-0.20313 0.43164,-0.90899 0.0711,-0.17773 0.11679,-0.27929 0.0406,-0.0914 0.0406,-0.1625 0,-0.0762 -0.0508,-0.18282 z"
             style="font-size:65%;font-family:'CMU Sans Serif';-inkscape-font-specification:'CMU Sans Serif';baseline-shift:sub"
             id="path124997" />
        </g>
      </g>
    </g>
    <g
       aria-label="θr"
       transform="matrix(0.26458333,0,0,0.26458333,25.260321,-23.126551)"
       id="text10465-06-6"
       style="font-size:16px;line-height:1.25;white-space:pre;shape-inside:url(#rect10467-6-2)">
      <path
         d="m 292.43555,284.55273 q 0,-0.82812 0.0859,-1.60156 0.0859,-0.78125 0.32032,-1.59375 0.23437,-0.82031 0.59375,-1.41406 0.35937,-0.59375 0.96093,-0.97656 0.60157,-0.38282 1.36719,-0.38282 0.94531,0 1.63281,0.5625 0.6875,0.55469 1.03907,1.48438 0.35156,0.92969 0.5,1.89062 0.15625,0.96094 0.15625,2 0,1.13282 -0.17188,2.13282 -0.16406,1 -0.52344,1.89843 -0.35937,0.89063 -1.03906,1.41407 -0.67969,0.52343 -1.59375,0.52343 -0.94531,0 -1.63281,-0.55468 -0.6875,-0.55469 -1.03906,-1.47657 -0.35157,-0.92968 -0.50782,-1.89062 -0.14843,-0.96094 -0.14843,-2.01563 z m 1.26562,0.60938 q 0.0156,0.49219 0.0234,0.61719 0.008,0.11718 0.0469,0.63281 0.0391,0.50781 0.0937,0.71094 0.0547,0.19531 0.14844,0.61718 0.10156,0.41407 0.25,0.61719 0.15625,0.19531 0.35938,0.44531 0.21093,0.24219 0.5,0.34375 0.28906,0.0937 0.64062,0.0937 0.60938,0 1.02344,-0.32812 0.41406,-0.32813 0.64062,-0.96094 0.22657,-0.63281 0.32032,-1.40625 0.0937,-0.78125 0.0937,-1.82031 h -4.14063 z m 0,-1.36719 h 4.125 q -0.0156,-0.51562 -0.0469,-0.85156 -0.0312,-0.34375 -0.10938,-0.86719 -0.0703,-0.53125 -0.20312,-0.875 -0.13282,-0.34375 -0.35157,-0.6875 -0.21875,-0.34375 -0.5625,-0.50781 -0.34375,-0.17188 -0.78906,-0.17188 -0.46094,0 -0.82031,0.1875 -0.35156,0.17969 -0.57031,0.5625 -0.21094,0.38282 -0.35157,0.72657 -0.13281,0.34375 -0.19531,0.89843 -0.0625,0.54688 -0.0859,0.82032 -0.0234,0.27343 -0.0391,0.76562 z"
         style="font-family:'CMU Sans Serif';-inkscape-font-specification:'CMU Sans Serif'"
         id="path66868" />
      <path
         d="m 300.62227,293.51055 v -4.68203 h 0.72617 v 0.93945 q 0.12695,-0.19805 0.29961,-0.38086 0.17773,-0.18281 0.59922,-0.39102 0.42148,-0.2082 0.92421,-0.21836 v 0.69571 q -0.26914,0.0102 -0.54336,0.10156 -0.26914,0.0863 -0.56875,0.2793 -0.29453,0.19297 -0.47734,0.58906 -0.18281,0.39609 -0.18281,0.92422 v 2.14297 z"
         style="font-size:65%;font-family:'CMU Sans Serif';-inkscape-font-specification:'CMU Sans Serif';baseline-shift:sub"
         id="path66870" />
    </g>
    <g
       aria-label="θy"
       transform="matrix(0.26458333,0,0,0.26458333,24.482222,-41.283437)"
       id="text10465-06-6-8"
       style="font-size:16px;line-height:1.25;white-space:pre;shape-inside:url(#rect10467-6-2-1)">
      <path
         d="m 292.43555,284.55273 q 0,-0.82812 0.0859,-1.60156 0.0859,-0.78125 0.32032,-1.59375 0.23437,-0.82031 0.59375,-1.41406 0.35937,-0.59375 0.96093,-0.97656 0.60157,-0.38282 1.36719,-0.38282 0.94531,0 1.63281,0.5625 0.6875,0.55469 1.03907,1.48438 0.35156,0.92969 0.5,1.89062 0.15625,0.96094 0.15625,2 0,1.13282 -0.17188,2.13282 -0.16406,1 -0.52344,1.89843 -0.35937,0.89063 -1.03906,1.41407 -0.67969,0.52343 -1.59375,0.52343 -0.94531,0 -1.63281,-0.55468 -0.6875,-0.55469 -1.03906,-1.47657 -0.35157,-0.92968 -0.50782,-1.89062 -0.14843,-0.96094 -0.14843,-2.01563 z m 1.26562,0.60938 q 0.0156,0.49219 0.0234,0.61719 0.008,0.11718 0.0469,0.63281 0.0391,0.50781 0.0937,0.71094 0.0547,0.19531 0.14844,0.61718 0.10156,0.41407 0.25,0.61719 0.15625,0.19531 0.35938,0.44531 0.21093,0.24219 0.5,0.34375 0.28906,0.0937 0.64062,0.0937 0.60938,0 1.02344,-0.32812 0.41406,-0.32813 0.64062,-0.96094 0.22657,-0.63281 0.32032,-1.40625 0.0937,-0.78125 0.0937,-1.82031 h -4.14063 z m 0,-1.36719 h 4.125 q -0.0156,-0.51562 -0.0469,-0.85156 -0.0312,-0.34375 -0.10938,-0.86719 -0.0703,-0.53125 -0.20312,-0.875 -0.13282,-0.34375 -0.35157,-0.6875 -0.21875,-0.34375 -0.5625,-0.50781 -0.34375,-0.17188 -0.78906,-0.17188 -0.46094,0 -0.82031,0.1875 -0.35156,0.17969 -0.57031,0.5625 -0.21094,0.38282 -0.35157,0.72657 -0.13281,0.34375 -0.19531,0.89843 -0.0625,0.54688 -0.0859,0.82032 -0.0234,0.27343 -0.0391,0.76562 z"
         style="font-family:'CMU Sans Serif';-inkscape-font-specification:'CMU Sans Serif'"
         id="path66873" />
    </g>
    <g
       aria-label="a2"
       transform="matrix(0.26458333,0,0,0.26458333,12.576056,-19.029197)"
       id="text10465-0-37"
       style="font-size:16px;line-height:1.25;white-space:pre;shape-inside:url(#rect10467-7-2)">
      <path
         d="m 292.48242,288.50586 q 0,-0.59375 0.44531,-1.03125 0.45313,-0.44531 1.17969,-0.65625 0.72656,-0.21875 1.42188,-0.32031 0.69531,-0.10938 1.39843,-0.10938 v -0.53906 q -0.0312,-1.02344 -0.41406,-1.47656 -0.39844,-0.47657 -1.00781,-0.47657 -1.23438,0 -2.39844,0.8125 l -0.0937,-1.07031 q 1.20313,-0.70312 2.50781,-0.70312 1.10157,0 1.84375,0.72656 0.75,0.72656 0.8125,1.76562 v 4.88282 h -1.21093 v -0.5625 q -0.0625,0.0625 -0.29688,0.21093 -0.23437,0.14063 -0.90625,0.33594 -0.67187,0.19531 -1.45312,0.19531 -0.91407,0 -1.375,-0.64843 -0.45313,-0.64844 -0.45313,-1.33594 z m 1.17188,-0.0156 q 0,0.42969 0.42187,0.71875 0.42188,0.28907 1.0625,0.28907 0.6875,0 1.23438,-0.28907 0.55468,-0.28906 0.55468,-0.97656 v -1.00781 q -0.49218,0 -1.00781,0.0625 -0.50781,0.0625 -1.05469,0.19531 -0.53906,0.125 -0.875,0.39063 -0.33593,0.26562 -0.33593,0.61718 z"
         style="font-family:'CMU Sans Serif';-inkscape-font-specification:'CMU Sans Serif'"
         id="path66883" />
      <path
         d="m 299.88555,288.16328 q 0.50781,-1.70625 2.01601,-1.70625 1.00039,0 1.61485,0.66016 0.61445,0.65508 0.61445,1.56914 0,0.36562 -0.10156,0.66523 -0.0965,0.29961 -0.38594,0.63985 -0.28438,0.33515 -0.50274,0.54336 -0.21835,0.2082 -0.74648,0.67539 -0.2793,0.24882 -1.67578,1.57422 l 3.4125,-0.0102 v 0.73633 h -4.16406 v -0.67539 l 1.35586,-1.34063 q 0.0813,-0.0813 0.35546,-0.33008 0.2793,-0.2539 0.37071,-0.34023 0.0914,-0.0914 0.31484,-0.31484 0.22344,-0.22344 0.30469,-0.34024 0.0863,-0.12187 0.23867,-0.325 0.15234,-0.20312 0.20313,-0.35547 0.0508,-0.15742 0.10156,-0.36054 0.0559,-0.20313 0.0559,-0.41133 0,-0.66524 -0.42149,-1.12227 -0.42148,-0.45703 -1.07656,-0.45703 -0.35547,0 -0.63476,0.1625 -0.27422,0.15742 -0.41641,0.39102 -0.13711,0.23359 -0.22852,0.46718 -0.0863,0.2336 -0.11679,0.40118 l -0.0406,0.17773 z"
         style="font-size:65%;font-family:'CMU Sans Serif';-inkscape-font-specification:'CMU Sans Serif';baseline-shift:sub"
         id="path66885" />
    </g>
    <ellipse
       style="fill:#ff0000;fill-opacity:1;stroke:none;stroke-width:0.965089;stroke-linejoin:bevel;stroke-miterlimit:4;stroke-dasharray:none;stroke-dashoffset:0;stroke-opacity:1"
       id="path58106"
       cx="135.58881"
       cy="91.895386"
       rx="1.0610464"
       ry="1.0238028" />
    <path
       style="fill:none;stroke:#000000;stroke-width:0.532;stroke-linecap:butt;stroke-linejoin:miter;stroke-miterlimit:4;stroke-dasharray:none;stroke-opacity:0.504385"
       d="M 94.501942,2.5192561 92.365715,5.2885845 Z"
       id="path60372" />
    <path
       style="fill:none;stroke:#000000;stroke-width:0.532;stroke-linecap:butt;stroke-linejoin:miter;stroke-miterlimit:4;stroke-dasharray:none;stroke-opacity:0.504385"
       d="m 94.501942,2.5192561 2.155735,2.4928658"
       id="path60487" />
    <path
       style="fill:none;stroke:#000000;stroke-width:0.532;stroke-linecap:butt;stroke-linejoin:miter;stroke-miterlimit:4;stroke-dasharray:none;stroke-opacity:0.504385"
       d="m 59.559255,93.874046 1.435341,-3.08565"
       id="path60489" />
    <path
       style="fill:none;stroke:#000000;stroke-width:0.264583px;stroke-linecap:butt;stroke-linejoin:miter;stroke-opacity:1"
       d="M 59.559255,93.874044 Z"
       id="path60491" />
    <path
       style="fill:none;stroke:#000000;stroke-width:0.532;stroke-linecap:butt;stroke-linejoin:miter;stroke-miterlimit:4;stroke-dasharray:none;stroke-opacity:0.504385"
       d="m 59.559255,93.874046 2.344336,0.787453"
       id="path60493" />
    <path
       style="fill:none;stroke:#000000;stroke-width:0.532;stroke-linecap:butt;stroke-linejoin:miter;stroke-miterlimit:4;stroke-dasharray:none;stroke-opacity:0.504385"
       d="M 171.38235,79.831101 169.24334,77.40402 Z"
       id="path60495" />
    <path
       style="fill:none;stroke:#000000;stroke-width:0.532;stroke-linecap:butt;stroke-linejoin:miter;stroke-miterlimit:4;stroke-dasharray:none;stroke-opacity:0.504385"
       d="m 171.38235,79.831101 -2.07236,2.726357"
       id="path60497" />
  </g>
</svg>
