<?xml version="1.0" encoding="UTF-8" standalone="no"?>
<!-- Created with Inkscape (http://www.inkscape.org/) -->

<svg
   width="100mm"
   height="50mm"
   viewBox="0 0 100 50"
   version="1.1"
   id="svg5"
   inkscape:version="1.1 (c68e22c387, 2021-05-23)"
   sodipodi:docname="underskrift.svg"
   xmlns:inkscape="http://www.inkscape.org/namespaces/inkscape"
   xmlns:sodipodi="http://sodipodi.sourceforge.net/DTD/sodipodi-0.dtd"
   xmlns="http://www.w3.org/2000/svg"
   xmlns:svg="http://www.w3.org/2000/svg">
  <sodipodi:namedview
     id="namedview7"
     pagecolor="#ffffff"
     bordercolor="#666666"
     borderopacity="1.0"
     inkscape:pageshadow="2"
     inkscape:pageopacity="0.0"
     inkscape:pagecheckerboard="0"
     inkscape:document-units="mm"
     showgrid="false"
     inkscape:zoom="0.4164076"
     inkscape:cx="-27.617171"
     inkscape:cy="123.6769"
     inkscape:window-width="1366"
     inkscape:window-height="699"
     inkscape:window-x="0"
     inkscape:window-y="0"
     inkscape:window-maximized="1"
     inkscape:current-layer="layer1" />
  <defs
     id="defs2" />
  <g
     inkscape:label="Layer 1"
     inkscape:groupmode="layer"
     id="layer1">
    <path
       style="fill:#000000;stroke-width:0.0451658"
       d="m 71.503395,40.57858 c -0.0621,-0.03662 -0.151375,-0.06732 -0.198379,-0.0682 -0.047,-7.05e-4 -0.190128,-0.09102 -0.318061,-0.200316 -0.127931,-0.109297 -0.310284,-0.231175 -0.405227,-0.270845 -0.09495,-0.03968 -0.242151,-0.133171 -0.327121,-0.207777 -0.08497,-0.0746 -0.169031,-0.135722 -0.186797,-0.135813 -0.01778,0 -0.07156,-0.09664 -0.119547,-0.214536 -0.04798,-0.117907 -0.154012,-0.312208 -0.235615,-0.431786 -0.0816,-0.119583 -0.160153,-0.29234 -0.174556,-0.383909 -0.0144,-0.09157 -0.05669,-0.228389 -0.09398,-0.304034 -0.03728,-0.07565 -0.05521,-0.170299 -0.03984,-0.210335 0.01535,-0.04003 -0.0024,-0.162671 -0.03988,-0.27252 -0.08197,-0.241436 -0.08735,-0.877782 -0.0085,-1.005576 0.03067,-0.04968 0.06894,-0.279395 0.08507,-0.510478 0.01613,-0.231079 0.0498,-0.458395 0.07481,-0.505146 0.02504,-0.04674 0.04549,-0.185469 0.04549,-0.308263 0,-0.140011 0.02444,-0.243553 0.06553,-0.277658 0.03604,-0.0299 0.0789,-0.149269 0.09523,-0.265235 0.01634,-0.115966 0.05653,-0.253663 0.08935,-0.305996 0.03282,-0.05233 0.05608,-0.187469 0.05172,-0.300297 -0.0055,-0.14056 0.0169,-0.232591 0.07095,-0.292315 0.04854,-0.05363 0.07888,-0.15966 0.07888,-0.275563 0,-0.118417 0.02937,-0.218536 0.07904,-0.269523 0.09809,-0.100673 0.327452,-0.571974 0.327452,-0.67285 0,-0.04097 0.02676,-0.10657 0.05946,-0.145789 0.03271,-0.03922 0.117286,-0.210835 0.187955,-0.381377 0.07067,-0.170538 0.177479,-0.368287 0.237351,-0.439442 0.05987,-0.07115 0.09694,-0.148655 0.08237,-0.172228 -0.01458,-0.02356 0.09321,-0.164819 0.239524,-0.31388 0.204975,-0.208832 0.261449,-0.295069 0.24612,-0.375848 -0.01395,-0.07361 0.02902,-0.161878 0.144324,-0.296377 0.189129,-0.220618 0.18304,-0.316785 -0.02965,-0.468226 -0.123206,-0.08773 -0.134303,-0.115127 -0.110248,-0.272169 0.01472,-0.09604 0.03922,-0.25768 0.05445,-0.359198 0.01578,-0.105088 0.0077,-0.204529 -0.01863,-0.23091 -0.06962,-0.06963 -0.364026,0.180247 -0.444756,0.377482 -0.04457,0.108894 -0.115508,0.185067 -0.208014,0.223385 -0.07721,0.03198 -0.231991,0.128072 -0.343957,0.213539 -0.334987,0.255706 -0.623016,0.407784 -0.782005,0.412902 -0.08243,0.0027 -0.257888,0.0089 -0.389895,0.01388 -0.196832,0.0074 -0.253704,-0.0081 -0.316158,-0.08652 -0.04188,-0.05256 -0.133017,-0.108898 -0.202527,-0.125199 -0.103088,-0.02418 -0.154009,-0.08973 -0.276288,-0.355685 -0.08245,-0.179326 -0.16356,-0.369944 -0.180241,-0.423591 -0.01669,-0.05365 -0.06269,-0.124397 -0.102228,-0.157215 -0.06128,-0.05086 -0.0827,-0.04412 -0.145039,0.04561 -0.04023,0.0579 -0.149171,0.191691 -0.242092,0.297303 -0.09292,0.105607 -0.210362,0.285651 -0.260991,0.400093 -0.05062,0.114441 -0.111881,0.220341 -0.136137,0.235331 -0.02426,0.01499 -0.126826,0.149074 -0.227934,0.297959 -0.101106,0.14889 -0.231083,0.292236 -0.288843,0.318555 -0.05778,0.02631 -0.140794,0.127214 -0.184539,0.22422 -0.04373,0.09701 -0.138259,0.242028 -0.210011,0.322265 -0.2242,0.250663 -0.246034,0.279256 -0.275453,0.360811 -0.01572,0.04368 -0.07867,0.102214 -0.139785,0.130062 -0.06112,0.02786 -0.133794,0.105345 -0.161489,0.172215 -0.08524,0.205791 -0.421023,0.495874 -0.673845,0.582136 -0.185443,0.06327 -0.520076,0.06798 -0.704927,0.0099 -0.07432,-0.02334 -0.231442,-0.07311 -0.34908,-0.110556 -0.206982,-0.06589 -0.217891,-0.06471 -0.338741,0.03679 -0.140786,0.118255 -0.569234,0.201112 -0.619486,0.119801 -0.01655,-0.0268 -0.116332,-0.04873 -0.221717,-0.04873 -0.379768,0 -1.069495,-0.577847 -1.676925,-1.404902 -0.08402,-0.114406 -0.225217,-0.242387 -0.313763,-0.284406 -0.120037,-0.05696 -0.160996,-0.104583 -0.160996,-0.187193 0,-0.06094 -0.01966,-0.110796 -0.04365,-0.110796 -0.02399,0 -0.114792,-0.07114 -0.201735,-0.15808 -0.08694,-0.08694 -0.188601,-0.158081 -0.225893,-0.158081 -0.03728,0 -0.09387,-0.04819 -0.125716,-0.10708 -0.09606,-0.177663 -0.344055,-0.434908 -0.419262,-0.434908 -0.0388,0 -0.08224,0.03048 -0.09654,0.06774 -0.01427,0.03726 -0.06195,0.06775 -0.105969,0.06775 -0.09776,0 -0.159494,0.07351 -0.198349,0.236208 -0.01617,0.06781 -0.0906,0.185861 -0.165347,0.262327 -0.07478,0.07647 -0.124084,0.158181 -0.109621,0.181576 0.04024,0.06514 -0.03766,0.05065 -0.14973,-0.02782 -0.151962,-0.106443 -0.205706,-0.04097 -0.175527,0.21381 0.02414,0.203669 0.01746,0.224893 -0.08202,0.262728 -0.05952,0.02264 -0.130537,0.08278 -0.157762,0.13365 -0.02725,0.05087 -0.07015,0.09249 -0.09532,0.09249 -0.07732,0 -0.3575,0.297918 -0.3575,0.380151 0,0.139158 -0.0906,0.25217 -0.202168,0.25217 -0.05975,0 -0.121222,0.02032 -0.136573,0.04516 -0.01534,0.02483 -0.06666,0.04517 -0.113986,0.04517 -0.04738,0 -0.107465,0.03996 -0.133605,0.0888 -0.02619,0.04892 -0.133399,0.111641 -0.238708,0.139658 -0.105157,0.02796 -0.249777,0.110254 -0.321385,0.182839 -0.07159,0.07259 -0.183385,0.142732 -0.248411,0.155875 -0.06499,0.01313 -0.169029,0.05213 -0.231131,0.08665 -0.0621,0.03451 -0.196672,0.102468 -0.299042,0.151008 -0.102371,0.04854 -0.200111,0.110888 -0.2172,0.138542 -0.01708,0.02764 -0.126423,0.05073 -0.242945,0.05128 -0.116537,3.53e-4 -0.301266,0.04155 -0.410531,0.09112 -0.131896,0.05985 -0.246695,0.08111 -0.34164,0.0633 -0.09749,-0.01831 -0.160556,-0.0057 -0.198205,0.03971 -0.03037,0.0366 -0.09258,0.05676 -0.138258,0.04483 -0.04563,-0.01193 -0.161786,0.01818 -0.258046,0.06689 -0.127606,0.06461 -0.203883,0.07777 -0.281625,0.04857 -0.06355,-0.02388 -0.172992,-0.02254 -0.270997,0.0032 -0.169302,0.04465 -0.318751,0.05043 -1.361264,0.05266 -0.454709,0.0011 -0.652435,-0.01673 -0.777666,-0.06954 -0.09235,-0.03896 -0.236597,-0.07084 -0.320542,-0.07084 -0.08847,0 -0.196983,-0.03848 -0.258182,-0.09156 -0.05808,-0.05036 -0.157717,-0.103835 -0.221452,-0.118836 -0.17205,-0.0405 -0.635284,-0.329259 -0.635284,-0.396019 0,-0.03183 -0.05079,-0.112708 -0.112917,-0.179718 -0.0621,-0.06701 -0.112908,-0.141117 -0.112908,-0.164676 0,-0.02356 -0.02999,-0.04284 -0.06658,-0.04284 -0.08095,0 -0.204407,-0.226082 -0.204407,-0.374343 0,-0.06792 -0.07478,-0.181498 -0.201941,-0.306837 -0.213183,-0.210085 -0.286712,-0.398171 -0.325211,-0.831872 -0.01921,-0.216163 -0.01131,-0.235237 0.183423,-0.445592 0.19737,-0.213183 0.201302,-0.223061 0.131387,-0.329775 -0.08605,-0.131318 -0.03189,-0.210868 0.128093,-0.188231 0.09576,0.01355 0.110198,0.04555 0.139351,0.308693 0.01792,0.161469 0.03219,0.379999 0.03181,0.485623 -3.49e-4,0.158754 0.02657,0.22016 0.156768,0.354212 0.08662,0.08919 0.169689,0.217698 0.184599,0.285564 0.01488,0.06787 0.139618,0.233664 0.277139,0.368441 0.137522,0.134774 0.279493,0.300936 0.315479,0.369249 0.03599,0.06831 0.08605,0.124206 0.111261,0.124206 0.02521,0 0.100906,0.04035 0.168209,0.08967 0.138076,0.101162 0.515976,0.225266 0.688193,0.226006 0.06279,3.52e-4 0.154247,0.02842 0.203246,0.06253 0.04897,0.03413 0.190712,0.06412 0.314917,0.06667 0.363286,0.0074 2.002167,-0.120808 2.159489,-0.169014 0.267003,-0.0818 0.603656,-0.135707 0.696294,-0.111483 0.05064,0.01324 0.15597,-0.009 0.23413,-0.04942 0.07815,-0.04041 0.161224,-0.06166 0.184608,-0.04721 0.05132,0.03173 0.277685,-0.07988 0.357811,-0.176426 0.03173,-0.03821 0.171952,-0.121797 0.311645,-0.185751 0.139701,-0.06395 0.290258,-0.1491 0.334573,-0.189202 0.04434,-0.04011 0.119787,-0.09505 0.167707,-0.122097 0.04791,-0.02704 0.199906,-0.11523 0.337746,-0.195963 0.137834,-0.08073 0.277094,-0.14679 0.309451,-0.14679 0.03234,0 0.230835,-0.186325 0.441051,-0.414059 0.603763,-0.654065 0.853403,-0.895748 0.925246,-0.895748 0.03667,0 0.06673,-0.04082 0.06673,-0.09077 0,-0.04992 0.04062,-0.125578 0.09033,-0.168115 0.04965,-0.04255 0.09033,-0.100576 0.09033,-0.128967 0,-0.02839 0.04206,-0.105078 0.09344,-0.17041 0.05292,-0.06733 0.08236,-0.153135 0.06787,-0.198047 -0.03052,-0.09464 -0.267641,-0.237334 -0.394337,-0.237334 -0.04958,0 -0.16483,-0.07789 -0.256041,-0.173099 -0.09122,-0.0952 -0.236977,-0.200657 -0.323921,-0.234346 -0.22297,-0.0864 -0.451656,-0.267007 -0.451656,-0.356702 0,-0.04176 -0.01777,-0.09524 -0.03956,-0.118843 -0.06256,-0.06787 -0.104777,-0.506355 -0.05185,-0.539046 0.02543,-0.01574 0.04631,-0.06447 0.04631,-0.108317 0,-0.04384 0.08129,-0.236821 0.18066,-0.428839 0.09936,-0.192018 0.180659,-0.379529 0.180659,-0.416687 0,-0.07317 0.127979,-0.342493 0.180204,-0.379234 0.05975,-0.04201 0.135943,-0.21929 0.139511,-0.324486 0.0023,-0.05752 0.05785,-0.18825 0.124206,-0.290506 0.288603,-0.444702 0.372578,-0.55932 0.409779,-0.55932 0.02179,0 0.05223,-0.06758 0.06772,-0.150167 0.01549,-0.08259 0.08889,-0.208344 0.163107,-0.279444 0.07417,-0.07111 0.134933,-0.173054 0.134933,-0.226558 0,-0.0535 0.08129,-0.180211 0.180659,-0.281576 0.10045,-0.102476 0.180667,-0.22853 0.180667,-0.283917 0,-0.05478 0.08091,-0.246176 0.179795,-0.425318 0.254188,-0.460478 0.255403,-0.489537 0.09729,-2.329814 -0.02574,-0.300131 -0.07584,-0.559201 -0.135191,-0.700069 -0.100526,-0.238512 -0.138812,-0.386439 -0.174745,-0.675283 -0.01237,-0.09937 -0.04563,-0.209046 -0.07387,-0.243737 -0.02824,-0.0347 -0.07775,-0.166802 -0.109985,-0.293578 -0.03227,-0.126776 -0.07941,-0.311802 -0.104808,-0.411167 -0.02536,-0.09936 -0.06544,-0.348454 -0.08899,-0.553534 -0.02604,-0.226646 -0.07784,-0.43033 -0.132146,-0.519407 -0.05079,-0.0833 -0.08942,-0.226984 -0.08952,-0.332976 0,-0.10254 -0.03097,-0.260227 -0.06871,-0.350414 -0.03842,-0.0919 -0.0561,-0.213439 -0.04024,-0.276509 0.03887,-0.154897 -0.0061,-0.307277 -0.13759,-0.463202 -0.09804,-0.11651 -0.105377,-0.149784 -0.06332,-0.28683 0.03872,-0.126094 0.02991,-0.208906 -0.04722,-0.443714 -0.05216,-0.158776 -0.09477,-0.323486 -0.09477,-0.366023 0,-0.04254 -0.03052,-0.102644 -0.06772,-0.133569 -0.04472,-0.03714 -0.06772,-0.138135 -0.06772,-0.297521 0,-0.19186 -0.01776,-0.250815 -0.08687,-0.287783 -0.06969,-0.03731 -0.08608,-0.09334 -0.08287,-0.283876 0.003,-0.171589 -0.02938,-0.305443 -0.116379,-0.482958 -0.0662,-0.135064 -0.120379,-0.278871 -0.120379,-0.319575 0,-0.0407 -0.05079,-0.121744 -0.112916,-0.180085 -0.0621,-0.05834 -0.112916,-0.152647 -0.112916,-0.209562 0,-0.05692 -0.05907,-0.163932 -0.131311,-0.237812 -0.0722,-0.07388 -0.144841,-0.195937 -0.161376,-0.271236 -0.02885,-0.131382 -0.03766,-0.135876 -0.218734,-0.111357 -0.162636,0.02203 -0.203747,0.0094 -0.298146,-0.09165 -0.06726,-0.07199 -0.158104,-0.117198 -0.235527,-0.117198 -0.07681,0 -0.143664,-0.03293 -0.171154,-0.0843 -0.06491,-0.121266 -0.460494,-0.168975 -0.625636,-0.07545 -0.109568,0.06205 -1.025871,0.180236 -1.757537,0.226696 -0.129003,0.0082 -0.258895,0.02993 -0.28864,0.04832 -0.02976,0.01838 -0.303992,0.06992 -0.60945,0.11453 -0.305457,0.04461 -0.616616,0.112779 -0.691473,0.151487 -0.07486,0.03871 -0.192997,0.07068 -0.26254,0.07106 -0.06954,3.52e-4 -0.207747,0.02997 -0.307112,0.06577 -0.09937,0.0358 -0.296825,0.06598 -0.43878,0.06707 -0.210451,0.0016 -0.266776,-0.01419 -0.305002,-0.08563 -0.03082,-0.05766 -0.10474,-0.0924 -0.21613,-0.101623 -0.188737,-0.01563 -0.193664,-0.03473 -0.102507,-0.397919 0.07501,-0.298936 0.224071,-0.501277 0.362344,-0.491902 0.0621,0.0042 0.18848,-0.02566 0.280836,-0.06638 0.205091,-0.09043 0.297182,-0.09251 0.490802,-0.0111 0.143732,0.06043 0.157678,0.05685 0.350014,-0.09001 0.185526,-0.141662 0.217648,-0.150914 0.435182,-0.125347 0.132177,0.01553 0.341823,0.0032 0.479467,-0.02808 0.251721,-0.05732 0.499243,-0.09143 1.396301,-0.192419 0.285672,-0.03216 0.547407,-0.076 0.581624,-0.09741 0.03424,-0.02141 0.369572,-0.06485 0.745232,-0.09651 0.676457,-0.05702 1.040707,-0.126804 1.235381,-0.236661 0.144848,-0.08175 0.307166,-0.02421 0.464556,0.164673 0.07546,0.09053 0.164298,0.195084 0.197483,0.232346 0.03318,0.03726 0.08418,0.113479 0.113326,0.169372 0.02915,0.05589 0.07577,0.101623 0.103548,0.101623 0.157101,0 0.8496,1.045969 0.8496,1.283268 0,0.03563 0.05079,0.125161 0.112916,0.198966 0.08313,0.09879 0.112916,0.186796 0.112916,0.333575 0,0.109663 0.02984,0.238837 0.06628,0.287061 0.03963,0.05243 0.06689,0.190545 0.06772,0.34363 7.06e-4,0.162895 0.03713,0.335325 0.09951,0.474241 0.107238,0.238679 0.265296,0.957416 0.281421,1.279678 0.0053,0.111786 0.03561,0.250169 0.06673,0.30752 0.03234,0.05961 0.04426,0.160271 0.02786,0.235003 -0.01746,0.07971 -0.0015,0.188843 0.04046,0.279635 0.07562,0.162751 0.117236,0.921766 0.05595,1.020336 -0.0211,0.03398 -0.0076,0.102797 0.0331,0.164403 0.03819,0.05828 0.0829,0.214899 0.09936,0.348048 0.01647,0.133149 0.05565,0.333549 0.087,0.445335 0.124084,0.442033 0.174252,0.666245 0.207163,0.925899 0.0189,0.149047 0.06825,0.494565 0.109652,0.767818 0.04145,0.273253 0.09118,0.608609 0.1106,0.745236 0.111185,0.782289 0.152539,0.948482 0.235998,0.948482 0.06043,0 0.08224,-0.03436 0.08224,-0.129405 0,-0.07118 0.04062,-0.181084 0.09033,-0.244248 0.04965,-0.06316 0.09033,-0.143251 0.09033,-0.177976 0,-0.03473 0.05079,-0.132015 0.112917,-0.21619 0.0621,-0.08418 0.112916,-0.19134 0.112916,-0.238145 0,-0.04681 0.0813,-0.165588 0.180659,-0.263968 0.09936,-0.09838 0.180668,-0.209759 0.180668,-0.247517 0,-0.03776 0.06408,-0.14837 0.142357,-0.245802 0.117692,-0.14645 0.161915,-0.172248 0.255153,-0.148848 0.07957,0.01998 0.103206,0.01281 0.08026,-0.02432 -0.04745,-0.07679 0.05109,-0.33971 0.179195,-0.477899 0.06096,-0.06579 0.110858,-0.168058 0.110858,-0.227261 0,-0.187 0.08124,-0.339358 0.180956,-0.339358 0.05109,0 0.106053,-0.03435 0.122163,-0.07633 0.01609,-0.04198 0.117099,-0.20727 0.224412,-0.367311 0.107321,-0.160036 0.195123,-0.324945 0.195123,-0.366467 0,-0.04151 0.06939,-0.142741 0.154201,-0.224943 0.0848,-0.0822 0.242322,-0.27893 0.35003,-0.437178 0.107708,-0.158247 0.233721,-0.300335 0.280024,-0.31574 0.0656,-0.02182 0.07924,-0.05947 0.0618,-0.170131 -0.01913,-0.121415 -0.0015,-0.155352 0.119058,-0.233051 0.08707,-0.05598 0.146655,-0.135579 0.155007,-0.207049 0.0076,-0.06461 0.112718,-0.220061 0.237121,-0.350491 0.122953,-0.128908 0.223555,-0.25632 0.223555,-0.283136 0,-0.02682 0.08996,-0.148816 0.199913,-0.271112 0.109955,-0.122299 0.213145,-0.282566 0.229301,-0.356155 0.01617,-0.07359 0.04768,-0.145086 0.07,-0.158888 0.02232,-0.0138 0.111329,-0.1309 0.197779,-0.260223 0.08645,-0.129319 0.229074,-0.291771 0.316937,-0.361006 0.08786,-0.06923 0.229954,-0.235616 0.315752,-0.369745 0.0858,-0.134129 0.202813,-0.268804 0.260019,-0.299282 0.147884,-0.07878 0.204141,-0.165519 0.285923,-0.440805 0.05664,-0.190572 0.09842,-0.252066 0.196489,-0.289089 0.06856,-0.02586 0.158035,-0.105291 0.198905,-0.176505 0.04087,-0.07121 0.110624,-0.142872 0.155002,-0.159241 0.04438,-0.01637 0.160566,-0.09731 0.258191,-0.179879 0.210902,-0.178364 0.36022,-0.190182 0.572347,-0.0453 0.146708,0.100199 0.152863,0.115624 0.139715,0.350035 -0.01243,0.22167 -0.0017,0.254771 0.111,0.344722 0.12303,0.09813 0.123741,0.101618 0.0516,0.252887 -0.05033,0.105539 -0.147951,0.192501 -0.312975,0.278791 -0.131912,0.06897 -0.365336,0.231876 -0.518729,0.362008 -0.153388,0.130127 -0.314309,0.264766 -0.357599,0.299192 -0.04329,0.03443 -0.14565,0.128646 -0.227462,0.209379 -0.08181,0.08073 -0.170433,0.146789 -0.196945,0.146789 -0.0265,0 -0.04821,0.01938 -0.04821,0.04306 0,0.02369 -0.08638,0.134563 -0.191956,0.246394 -0.300735,0.318545 -0.530698,0.597222 -0.530698,0.643106 0,0.02308 -0.09146,0.118411 -0.203246,0.21185 -0.111784,0.09344 -0.203253,0.205708 -0.203253,0.249483 0,0.04378 -0.06218,0.12557 -0.138197,0.18177 -0.169265,0.12514 -0.360249,0.402119 -0.743191,1.077827 -0.16811,0.296635 -0.232247,0.372618 -0.314522,0.372618 -0.106189,0 -0.157185,0.09813 -0.158438,0.304869 -3.49e-4,0.05678 -0.02855,0.101623 -0.06392,0.101623 -0.03485,0 -0.08403,0.0594 -0.109341,0.131997 -0.02536,0.0726 -0.08827,0.154612 -0.13992,0.182253 -0.05163,0.02764 -0.0939,0.07728 -0.0939,0.110322 0,0.03304 -0.04252,0.114148 -0.09453,0.180248 -0.05201,0.0661 -0.14481,0.216191 -0.20626,0.333541 -0.06142,0.117353 -0.136588,0.233692 -0.166971,0.258533 -0.03037,0.02484 -0.09508,0.109093 -0.14377,0.187226 -0.04866,0.07813 -0.176362,0.267142 -0.283698,0.420018 -0.107336,0.152882 -0.206822,0.349864 -0.22108,0.437739 -0.01435,0.08823 -0.05838,0.171088 -0.09842,0.185044 -0.133217,0.04644 -0.320907,0.253606 -0.320907,0.35419 0,0.05468 -0.07091,0.177913 -0.157511,0.273836 -0.08663,0.09592 -0.274634,0.358531 -0.417781,0.583573 -0.143148,0.225044 -0.285939,0.448614 -0.317301,0.496825 -0.109712,0.168639 -0.244774,0.4955 -0.269509,0.652231 -0.01374,0.08694 -0.05284,0.213552 -0.08701,0.281349 -0.04479,0.08896 -0.05929,0.283796 -0.05208,0.700071 0.01291,0.741898 -0.05102,1.998184 -0.106972,2.103895 -0.02384,0.04499 -0.06119,0.25502 -0.08302,0.466739 -0.02186,0.211719 -0.06294,0.412892 -0.09127,0.447055 -0.02893,0.03487 -0.03925,0.118068 -0.02354,0.189693 0.01609,0.07327 -0.0023,0.213449 -0.04365,0.329299 -0.041,0.115448 -0.06051,0.26212 -0.04563,0.342939 0.02855,0.154531 -0.02855,0.3469 -0.134212,0.452565 -0.0372,0.03717 -0.06757,0.105577 -0.06757,0.152015 0,0.04644 -0.01807,0.09561 -0.04016,0.10926 -0.02209,0.01366 -0.05269,0.07475 -0.06803,0.135774 -0.03371,0.13426 0.137826,0.409522 0.326783,0.524438 0.1235,0.07511 0.413712,0.407192 0.413712,0.47341 0,0.03218 0.14727,0.189551 0.750539,0.802068 0.151962,0.15429 0.300325,0.343062 0.329691,0.41949 0.05945,0.154706 0.274194,0.368552 0.472581,0.470594 0.07152,0.0368 0.150542,0.107785 0.17555,0.157748 0.02498,0.04996 0.134591,0.170123 0.243529,0.267013 0.17845,0.158706 0.209373,0.171013 0.312108,0.124206 0.06271,-0.02856 0.14935,-0.05196 0.192503,-0.05196 0.126278,0 0.53567,-0.451278 0.588723,-0.648956 0.02581,-0.09609 0.08344,-0.215093 0.128093,-0.264448 0.06711,-0.07418 0.08213,-0.176944 0.08656,-0.593102 0.003,-0.276853 0.02847,-0.560973 0.05679,-0.631369 0.02832,-0.0704 0.04297,-0.141636 0.03272,-0.158305 -0.01761,-0.02842 0.06005,-0.353803 0.120273,-0.5041 0.03136,-0.07824 0.06711,-0.298127 0.121153,-0.745236 0.05869,-0.485366 0.101262,-0.699953 0.144081,-0.72642 0.02149,-0.01328 0.0391,-0.141744 0.0391,-0.285474 0,-0.199254 0.02035,-0.279754 0.08569,-0.338884 0.07433,-0.06725 0.08358,-0.129689 0.06977,-0.469945 -0.01868,-0.4616 0.02832,-0.675929 0.179559,-0.818004 0.09492,-0.08917 0.103206,-0.118988 0.0596,-0.214631 -0.04084,-0.08961 -0.03462,-0.140837 0.03234,-0.265064 0.06567,-0.121914 0.07711,-0.209705 0.05497,-0.421448 -0.0211,-0.20232 -0.0096,-0.304079 0.04707,-0.417807 0.04122,-0.08269 0.08394,-0.258162 0.09487,-0.389938 0.01397,-0.168103 0.0454,-0.257463 0.105377,-0.29949 0.07114,-0.04981 0.08913,-0.134494 0.106949,-0.502834 0.0148,-0.306401 0.04236,-0.466103 0.08944,-0.518084 0.03743,-0.04133 0.06802,-0.128239 0.06802,-0.193129 0,-0.0649 0.02035,-0.130547 0.04517,-0.145898 0.02483,-0.01535 0.04517,-0.129189 0.04517,-0.252966 0,-0.166161 0.02467,-0.251153 0.09422,-0.324787 0.07713,-0.08164 0.08938,-0.135945 0.06757,-0.299286 -0.02467,-0.184685 0.01852,-0.411055 0.114753,-0.601528 0.02179,-0.04314 0.03963,-0.127061 0.03963,-0.186499 0,-0.09469 0.150626,-0.489087 0.273753,-0.716817 0.02331,-0.04314 0.04244,-0.126405 0.04244,-0.185044 0,-0.05864 0.04176,-0.154761 0.09278,-0.213598 0.06104,-0.07041 0.08392,-0.1423 0.06688,-0.210288 -0.01663,-0.06633 0.02171,-0.196218 0.107078,-0.36288 0.203337,-0.396844 0.365607,-0.809439 0.365607,-0.929607 0,-0.0595 0.04205,-0.161644 0.09344,-0.226976 0.06041,-0.0768 0.08313,-0.151292 0.06427,-0.210707 -0.02057,-0.06483 0.01007,-0.136609 0.104004,-0.243589 0.107162,-0.122056 0.139471,-0.210495 0.165428,-0.452882 0.02761,-0.257932 0.04724,-0.306897 0.136563,-0.340857 0.12584,-0.04785 0.15366,-0.113791 0.125604,-0.297801 -0.01398,-0.09173 0.01993,-0.229374 0.09915,-0.402589 0.158671,-0.346896 0.248881,-0.610068 0.249687,-0.728425 3.52e-4,-0.05285 0.03289,-0.122829 0.07225,-0.155511 0.04792,-0.03977 0.06427,-0.10506 0.04946,-0.197483 -0.02335,-0.145542 0.137057,-0.555914 0.283431,-0.725223 0.123065,-0.142344 0.318161,-0.521922 0.318161,-0.619015 0,-0.04853 0.05147,-0.223805 0.114358,-0.389511 0.10557,-0.278131 0.146891,-0.369543 0.279109,-0.617442 0.02648,-0.04968 0.086,-0.169945 0.132224,-0.267249 0.04623,-0.0973 0.190755,-0.281376 0.321169,-0.409048 0.130419,-0.127672 0.237123,-0.254679 0.237123,-0.282237 0,-0.06479 0.332576,-0.328692 0.414232,-0.328692 0.03437,0 0.108972,-0.03256 0.165784,-0.07235 0.09858,-0.06904 0.243578,-0.06769 0.526543,0.0049 0.04968,0.01275 0.161467,0.03561 0.248412,0.05081 0.186903,0.03268 0.316162,0.134025 0.316162,0.247892 0,0.04497 0.05753,0.148522 0.127851,0.23012 0.107511,0.124762 0.124723,0.178827 0.108208,0.339903 -0.01412,0.137711 0.0058,0.234807 0.07119,0.345487 0.08128,0.137762 0.08722,0.197475 0.05654,0.568002 -0.0231,0.278907 -0.05745,0.437209 -0.105232,0.48499 -0.05166,0.05166 -0.06005,0.09954 -0.03092,0.176196 0.05499,0.14463 0.0282,0.832826 -0.03673,0.94373 -0.02908,0.04968 -0.09473,0.293578 -0.145864,0.54199 -0.184867,0.898086 -0.194646,0.93182 -0.391937,1.352548 -0.05762,0.122874 -0.104761,0.299518 -0.104761,0.392536 0,0.09302 -0.01807,0.180307 -0.04018,0.193961 -0.02208,0.01366 -0.05146,0.09107 -0.06524,0.172036 -0.0743,0.436324 -0.111782,0.585719 -0.158755,0.632692 -0.02859,0.02859 -0.05199,0.08985 -0.05199,0.136129 0,0.04628 -0.0481,0.18957 -0.106891,0.318419 -0.135563,0.297114 -0.209267,0.528896 -0.209267,0.658075 0,0.119775 -0.131817,0.551262 -0.187188,0.61276 -0.02127,0.0236 -0.03864,0.07987 -0.03864,0.125036 0,0.04517 -0.05058,0.178866 -0.112405,0.297101 -0.06182,0.118235 -0.130298,0.310737 -0.152163,0.427779 -0.02187,0.117043 -0.0635,0.241407 -0.09251,0.276369 -0.02902,0.03496 -0.06997,0.213016 -0.09102,0.395671 -0.02581,0.223883 -0.09148,0.448 -0.201573,0.687771 -0.08982,0.195623 -0.163308,0.414749 -0.163308,0.48695 0,0.0722 -0.02891,0.142372 -0.06424,0.155931 -0.08549,0.0328 -0.18848,0.300882 -0.228309,0.594273 -0.02243,0.165294 -0.05852,0.251895 -0.118283,0.283876 -0.05541,0.02966 -0.08599,0.09454 -0.08599,0.18243 0,0.07503 -0.07171,0.271541 -0.159357,0.436698 -0.08765,0.165163 -0.154737,0.331717 -0.149089,0.37012 0.0096,0.06547 -0.193143,0.526445 -0.440689,1.001838 -0.05995,0.115149 -0.109018,0.253672 -0.109018,0.307839 0,0.119825 -0.06241,0.243472 -0.232361,0.460367 -0.0746,0.0952 -0.128964,0.219993 -0.128964,0.296025 0,0.0723 -0.06097,0.227595 -0.135496,0.345104 -0.07452,0.117512 -0.135496,0.22856 -0.135496,0.246771 0,0.01821 -0.04759,0.103886 -0.105747,0.190388 -0.05816,0.0865 -0.142225,0.253813 -0.186804,0.37181 -0.04458,0.117995 -0.09704,0.214537 -0.116578,0.214537 -0.01954,0 -0.05918,0.07622 -0.08809,0.169373 -0.08423,0.271401 -0.169366,0.439083 -0.268495,0.528792 -0.05087,0.04601 -0.09244,0.128574 -0.09244,0.183475 0,0.05491 -0.04062,0.1515 -0.09033,0.214664 -0.04965,0.06316 -0.09041,0.142119 -0.0905,0.175461 0,0.03334 -0.03728,0.121601 -0.08259,0.196124 -0.04532,0.07452 -0.09646,0.206074 -0.113622,0.292335 -0.01716,0.08626 -0.09072,0.218373 -0.163471,0.293579 -0.07273,0.07521 -0.204423,0.275353 -0.292634,0.444775 -0.0882,0.169416 -0.190894,0.338547 -0.228186,0.375842 -0.03728,0.0373 -0.0678,0.124182 -0.0678,0.193079 0,0.0689 -0.03743,0.159173 -0.08324,0.200603 -0.04578,0.04144 -0.140589,0.188672 -0.210678,0.327199 -0.105552,0.208631 -0.116462,0.258742 -0.06355,0.291935 0.07596,0.04764 0.25888,-0.129464 0.393896,-0.381377 0.04851,-0.09048 0.162758,-0.250675 0.253915,-0.356001 0.545464,-0.630221 0.658137,-0.775817 0.658137,-0.850512 0,-0.04567 0.04092,-0.104957 0.09099,-0.131739 0.09246,-0.04948 0.195229,-0.18814 0.518749,-0.699912 0.09936,-0.157182 0.235351,-0.328677 0.3022,-0.381095 0.06685,-0.05242 0.135679,-0.140508 0.152966,-0.195755 0.01729,-0.05524 0.07947,-0.157893 0.138165,-0.228114 0.05871,-0.07022 0.106736,-0.146078 0.106736,-0.168581 0,-0.02249 0.09146,-0.136359 0.203246,-0.253023 0.111786,-0.116667 0.20325,-0.239107 0.20325,-0.272087 0,-0.03299 0.0508,-0.104149 0.112912,-0.158143 0.0621,-0.054 0.112913,-0.130643 0.112913,-0.170317 0,-0.03968 0.03286,-0.119021 0.07297,-0.176328 0.0537,-0.07666 0.05967,-0.117498 0.02257,-0.154579 -0.07791,-0.07791 -0.06066,-0.195725 0.06497,-0.443646 0.08121,-0.160262 0.158886,-0.245841 0.262382,-0.289083 0.08086,-0.03378 0.169412,-0.110576 0.19678,-0.170646 0.05022,-0.110218 0.259301,-0.167764 0.609566,-0.167764 0.200791,0 0.396712,0.216878 0.396712,0.439152 0,0.09631 0.02205,0.197144 0.04898,0.224076 0.02694,0.02694 0.0603,0.173925 0.07415,0.326635 0.02338,0.257751 0.01564,0.289694 -0.107757,0.445587 -0.308992,0.390347 -0.394846,0.6137 -0.515925,1.342246 -0.05418,0.326003 -0.01388,0.69615 0.0797,0.732057 0.03969,0.01523 0.118907,-0.0317 0.19602,-0.116126 0.07118,-0.07793 0.157062,-0.141689 0.190851,-0.141689 0.03381,0 0.130379,-0.07114 0.214648,-0.15808 0.08427,-0.08695 0.177126,-0.15808 0.206355,-0.15808 0.078,0 0.396737,-0.361012 0.465089,-0.52677 0.03534,-0.08569 0.102116,-0.153703 0.166869,-0.169954 0.05961,-0.01497 0.262178,-0.206535 0.452359,-0.427809 0.189421,-0.220392 0.389641,-0.424926 0.444935,-0.454518 0.05529,-0.02959 0.126721,-0.12847 0.158724,-0.219732 0.03201,-0.09126 0.114382,-0.226905 0.183071,-0.301428 0.06868,-0.07452 0.147142,-0.178947 0.174345,-0.232048 0.04777,-0.09325 0.200274,-0.141825 0.518331,-0.16509 0.111588,-0.0082 0.135957,0.01366 0.191276,0.171309 0.03486,0.09937 0.0637,0.255219 0.06408,0.346341 0.0011,0.238642 0.03423,0.298261 0.153565,0.275448 0.09093,-0.01739 0.103898,-8.35e-4 0.109187,0.139852 0.0032,0.08777 -0.0237,0.216519 -0.06001,0.286119 -0.03631,0.0696 -0.06613,0.149468 -0.06629,0.177481 0,0.02801 -0.03303,0.07812 -0.07309,0.111356 -0.07887,0.06545 -0.288413,0.494691 -0.288684,0.591346 0,0.03265 -0.04173,0.127525 -0.09253,0.210843 -0.0508,0.08332 -0.08629,0.169679 -0.07887,0.191909 0.0138,0.04134 1.086853,-0.988773 1.210027,-1.161601 0.03745,-0.05255 0.124245,-0.179583 0.192872,-0.282285 0.06862,-0.102708 0.143824,-0.186738 0.167108,-0.186738 0.02328,0 0.135735,-0.06304 0.249888,-0.140078 0.143507,-0.09685 0.215725,-0.180906 0.234016,-0.272377 0.01455,-0.07276 0.07061,-0.167244 0.124565,-0.209957 0.05396,-0.04271 0.111628,-0.113228 0.128157,-0.156699 0.01814,-0.04772 0.07729,-0.07904 0.149284,-0.07904 0.08252,0 0.176827,-0.06128 0.306288,-0.199 0.102879,-0.109451 0.230981,-0.21187 0.284669,-0.227599 0.05369,-0.01574 0.14943,-0.09653 0.212764,-0.179566 0.06333,-0.08303 0.161675,-0.162796 0.218547,-0.177248 0.05687,-0.01446 0.222113,-0.138804 0.367213,-0.27634 0.207355,-0.196543 0.294829,-0.250055 0.408749,-0.250055 0.158772,0 0.253335,-0.06787 0.253335,-0.181825 0,-0.09518 0.1342,-0.210739 0.496824,-0.427817 0.161467,-0.09666 0.34581,-0.231003 0.409647,-0.298528 0.06384,-0.06753 0.20145,-0.145769 0.305798,-0.173867 0.183921,-0.04952 0.399016,-0.169557 0.646676,-0.360861 0.06605,-0.051 0.159007,-0.09274 0.206616,-0.09274 0.0476,0 0.369595,-0.141965 0.715518,-0.315478 0.345915,-0.173514 0.665311,-0.315784 0.709777,-0.31616 0.04449,-5.28e-4 0.160518,-0.04133 0.257901,-0.09101 0.245928,-0.125462 0.699734,-0.127219 0.766232,-0.003 0.07266,0.135728 0.0555,0.262716 -0.04494,0.333079 -0.08925,0.06251 -0.08956,0.06804 -0.01131,0.205522 0.04426,0.0777 0.110912,0.141324 0.148174,0.141375 0.08427,0 0.378021,-0.199001 0.587348,-0.398128 0.08684,-0.08261 0.302284,-0.230179 0.478776,-0.327932 0.176476,-0.09775 0.35747,-0.218168 0.402194,-0.267589 0.04472,-0.04942 0.113736,-0.0905 0.153359,-0.09129 0.03963,-8.35e-4 0.111489,-0.03128 0.159706,-0.06775 0.04821,-0.03647 0.132283,-0.06632 0.186794,-0.06632 0.05451,0 0.157337,-0.03036 0.228489,-0.06747 0.07114,-0.03711 0.163297,-0.0676 0.204765,-0.06775 0.04145,0 0.202965,-0.03296 0.358882,-0.07291 0.236802,-0.06067 0.346173,-0.06454 0.664119,-0.0235 0.209342,0.02703 0.409316,0.07294 0.444376,0.102039 0.03508,0.0291 0.121412,0.05127 0.191896,0.04927 0.124023,-0.0035 0.267634,0.107986 0.583925,0.453391 0.10174,0.111101 0.102735,0.119361 0.02824,0.233102 -0.06673,0.101823 -0.06985,0.144549 -0.02262,0.312927 0.06704,0.239482 0.0076,0.504009 -0.157368,0.700042 -0.06142,0.07303 -0.111724,0.164946 -0.111724,0.204258 0,0.03931 -0.05079,0.104772 -0.112908,0.145467 -0.0621,0.04069 -0.112916,0.102769 -0.112916,0.137953 0,0.03518 -0.0312,0.07596 -0.06939,0.09061 -0.03819,0.01464 -0.100807,0.08733 -0.13917,0.161526 -0.03834,0.07418 -0.159561,0.22469 -0.269326,0.334456 -0.109766,0.109761 -0.199572,0.216255 -0.199572,0.236647 0,0.02039 -0.03842,0.05542 -0.0854,0.07785 -0.04699,0.02243 -0.222295,0.167805 -0.389615,0.323062 -0.167321,0.155258 -0.327497,0.282286 -0.355944,0.282286 -0.02847,0 -0.278976,0.21849 -0.55673,0.485533 -0.277747,0.267043 -0.641222,0.607479 -0.807708,0.756526 -0.1665,0.149047 -0.355465,0.324512 -0.419929,0.389921 -0.06446,0.06541 -0.179354,0.150294 -0.25532,0.188626 -0.07596,0.03834 -0.248714,0.174616 -0.383905,0.302846 -0.135184,0.12823 -0.388074,0.341164 -0.561961,0.473184 -0.17388,0.132024 -0.391369,0.313152 -0.483285,0.402508 -0.09193,0.08935 -0.178041,0.162462 -0.191365,0.162462 -0.01329,0 -0.126118,0.101357 -0.25065,0.225237 -0.187774,0.186787 -0.226425,0.252866 -0.226425,0.387107 0,0.225788 0.34899,0.711749 0.603649,0.840577 0.102713,0.05196 0.203861,0.12383 0.224762,0.159719 0.02088,0.03588 0.122528,0.104144 0.225832,0.151686 0.103297,0.04754 0.257605,0.126765 0.342909,0.17606 0.09284,0.05365 0.196231,0.0793 0.257589,0.0639 0.05633,-0.01415 0.16619,0.0061 0.244038,0.04489 0.273503,0.136444 0.645876,0.176459 1.363443,0.146529 0.379388,-0.01581 0.791415,-0.04799 0.91562,-0.07147 0.124205,-0.02348 0.407372,-0.07298 0.629272,-0.109984 0.434096,-0.07239 0.826733,-0.197668 1.160888,-0.370396 0.115148,-0.05952 0.270321,-0.108222 0.344837,-0.108222 0.09058,0 0.15764,-0.03368 0.202334,-0.101623 0.04373,-0.0665 0.149495,-0.120964 0.305951,-0.157575 0.131502,-0.03077 0.273032,-0.08667 0.314515,-0.124205 0.04145,-0.03754 0.115254,-0.06825 0.163934,-0.06825 0.04866,0 0.168254,-0.04065 0.265698,-0.09033 0.09745,-0.04968 0.195153,-0.09033 0.217116,-0.09033 0.02194,0 0.10083,-0.04336 0.175255,-0.09636 0.0744,-0.053 0.250324,-0.133011 0.390882,-0.177816 0.140559,-0.0448 0.415094,-0.164038 0.610079,-0.264969 0.194986,-0.100928 0.388066,-0.183961 0.429071,-0.184512 0.041,-5.28e-4 0.125374,-0.04075 0.187477,-0.08933 0.0621,-0.04857 0.143398,-0.08923 0.18066,-0.09033 0.03728,-9.87e-4 0.118564,-0.04176 0.180667,-0.09033 0.0621,-0.04857 0.138721,-0.08877 0.170274,-0.08933 0.03158,-5.28e-4 0.133164,-0.04798 0.225824,-0.105399 0.09266,-0.05742 0.239612,-0.131902 0.326556,-0.165519 0.08694,-0.03362 0.190165,-0.08826 0.229385,-0.121433 0.03918,-0.03317 0.09439,-0.06031 0.122619,-0.06031 0.02817,0 0.0722,-0.039 0.09769,-0.08666 0.02551,-0.04766 0.108353,-0.100272 0.184099,-0.116912 0.07577,-0.01663 0.213108,-0.09949 0.305245,-0.184118 0.09214,-0.08463 0.190886,-0.153966 0.219447,-0.154084 0.05185,0 0.411161,-0.229988 0.635315,-0.406306 0.148538,-0.116839 0.493489,-0.271398 0.605729,-0.271398 0.04654,0 0.08459,-0.01887 0.08459,-0.04194 0,-0.08222 0.135381,-0.175459 0.221907,-0.152833 0.127508,0.03334 0.13964,0.108486 0.04624,0.28619 -0.0454,0.08635 -0.103662,0.203245 -0.129482,0.259776 -0.02581,0.05653 -0.08282,0.113488 -0.126665,0.126576 -0.174358,0.05204 -0.449971,0.212284 -0.614832,0.357469 -0.162037,0.142684 -0.171754,0.165154 -0.143596,0.331834 0.02931,0.173558 0.02559,0.180306 -0.127371,0.230792 -0.08668,0.02861 -0.187614,0.09784 -0.224329,0.153867 -0.03667,0.05602 -0.160313,0.151499 -0.274686,0.212175 -0.114374,0.06068 -0.207961,0.132304 -0.207961,0.159169 0,0.0597 -0.698458,0.515879 -0.789873,0.515879 -0.06582,0 -1.067233,0.498021 -1.166742,0.580241 -0.0293,0.0242 -0.128624,0.05808 -0.220738,0.07529 -0.09211,0.01721 -0.272082,0.109347 -0.399939,0.204741 -0.127858,0.0954 -0.295239,0.187234 -0.371956,0.204081 -0.07672,0.01685 -0.167495,0.05865 -0.201728,0.09288 -0.03424,0.03423 -0.09895,0.06224 -0.143823,0.06224 -0.04487,0 -0.105787,0.02918 -0.135388,0.06484 -0.02961,0.03567 -0.116325,0.07857 -0.192724,0.09535 -0.0764,0.01678 -0.24015,0.09021 -0.363893,0.163167 -0.210253,0.123974 -0.306854,0.166235 -0.710438,0.310823 -0.08694,0.03113 -0.231981,0.09429 -0.322311,0.1403 -0.09032,0.04601 -0.205015,0.08366 -0.254872,0.08366 -0.04988,0 -0.101854,0.02923 -0.115558,0.06493 -0.03014,0.07845 -0.305032,0.160298 -0.53961,0.160639 -0.09403,0 -0.215978,0.0293 -0.270997,0.06477 -0.05504,0.03549 -0.313444,0.08802 -0.574276,0.116735 -0.260831,0.0287 -0.606351,0.08407 -0.767818,0.123026 -0.32506,0.07841 -1.953441,0.09402 -2.048782,0.01965 -0.08316,-0.06488 -0.486527,-0.18842 -0.615204,-0.18842 -0.06521,0 -0.21518,-0.06124 -0.333206,-0.136092 -0.118033,-0.07485 -0.27953,-0.144535 -0.358882,-0.154849 -0.197438,-0.02567 -0.300849,-0.06822 -0.4647,-0.191266 -0.07687,-0.05772 -0.173409,-0.104947 -0.214535,-0.104947 -0.04115,0 -0.07478,-0.03025 -0.07478,-0.0672 0,-0.03696 -0.102833,-0.163981 -0.228512,-0.282287 -0.125678,-0.118297 -0.288086,-0.311635 -0.360909,-0.42963 -0.201211,-0.326033 -0.314226,-0.306278 -0.775194,0.135498 -0.618587,0.592826 -0.774237,0.732147 -0.960227,0.859487 -0.0987,0.06758 -0.242373,0.183842 -0.319265,0.258367 -0.0769,0.07452 -0.247243,0.196471 -0.378552,0.270995 -0.131302,0.07452 -0.35155,0.232038 -0.489447,0.350036 -0.137891,0.117994 -0.273115,0.214536 -0.300502,0.214536 -0.0274,0 -0.14524,0.05081 -0.261903,0.112916 -0.116656,0.0621 -0.259329,0.112913 -0.317039,0.112913 -0.05772,0 -0.150692,0.03205 -0.20662,0.07122 -0.08431,0.05906 -0.203732,0.06757 -0.698831,0.04983 -0.328427,-0.0118 -0.658115,-0.02859 -0.732637,-0.03735 -0.131319,-0.01546 -0.135499,-0.01018 -0.135499,0.171221 0,0.110839 -0.03063,0.221353 -0.07513,0.270996 -0.06069,0.06772 -0.0704,0.144575 -0.05053,0.399988 0.01352,0.173886 0.04016,0.346647 0.05918,0.383907 0.01902,0.03726 0.0075,0.220185 -0.02557,0.406492 -0.03306,0.186311 -0.08477,0.592803 -0.114867,0.90332 -0.03011,0.310514 -0.08026,0.605219 -0.111459,0.654901 -0.0312,0.04968 -0.0579,0.183419 -0.05934,0.297188 -0.0014,0.113772 -0.02373,0.262449 -0.04958,0.330392 -0.02585,0.06795 -0.04696,0.194006 -0.04696,0.280127 0,0.08612 -0.03142,0.231773 -0.06981,0.323662 -0.03839,0.09189 -0.08799,0.279236 -0.110212,0.416331 -0.0696,0.429297 -0.133714,0.696053 -0.201038,0.836419 -0.182923,0.381373 -0.251261,0.557053 -0.251261,0.645935 0,0.248881 -0.112624,0.512048 -0.269675,0.630148 -0.08767,0.06593 -0.250864,0.215342 -0.362649,0.332019 -0.166982,0.174289 -0.239507,0.216712 -0.406492,0.237774 -0.111786,0.01408 -0.284543,0.03665 -0.383909,0.0501 -0.117437,0.01592 -0.220176,0.0011 -0.293578,-0.04213 z m 0.548742,-1.074735 c 0.257733,-0.275831 0.561401,-0.881445 0.594475,-1.185602 0.0081,-0.07452 0.0377,-0.17794 0.06576,-0.229815 0.02807,-0.05188 0.03928,-0.139233 0.02493,-0.194129 -0.01676,-0.06403 0.0054,-0.135443 0.06173,-0.199252 0.175041,-0.19821 0.240003,-0.347753 0.240003,-0.552496 0,-0.114293 0.02176,-0.248465 0.04836,-0.298168 0.06093,-0.113853 0.136292,-0.496 0.150233,-0.761847 0.02134,-0.40697 0.114804,-0.857382 0.219909,-1.059846 0.06531,-0.125805 0.04256,-0.597581 -0.03615,-0.749794 -0.05103,-0.09869 -0.05487,-0.153107 -0.01666,-0.236953 0.03826,-0.08397 0.0343,-0.138659 -0.01732,-0.23931 -0.100347,-0.195664 -0.118645,-0.91407 -0.03898,-1.530608 0.02567,-0.198728 0.07588,-0.59887 0.111561,-0.889199 0.04941,-0.402048 0.08771,-0.556913 0.160699,-0.649702 0.103662,-0.13178 0.121505,-0.22395 0.05171,-0.267084 -0.06008,-0.03713 -0.389148,0.05517 -0.46417,0.13019 -0.07818,0.07818 -0.328166,0.207556 -0.404072,0.209115 -0.08431,0.0017 -0.3969,0.30145 -0.575787,0.552074 -0.08422,0.117994 -0.170014,0.214539 -0.190639,0.214539 -0.02063,0 -0.03751,0.05863 -0.03751,0.130302 0,0.0904 -0.03587,0.153804 -0.117139,0.207052 -0.06443,0.04222 -0.155152,0.162682 -0.201608,0.267707 -0.04646,0.105028 -0.125854,0.22841 -0.176437,0.27419 -0.06183,0.05595 -0.09197,0.13957 -0.09197,0.255131 0,0.119456 -0.0306,0.200428 -0.10033,0.265382 -0.08393,0.0782 -0.09152,0.107595 -0.04636,0.179888 0.04617,0.07393 0.02916,0.117776 -0.117786,0.303692 -0.164369,0.207944 -0.228076,0.39123 -0.255909,0.736272 -0.007,0.08695 -0.0366,0.259702 -0.06575,0.383908 -0.02916,0.124206 -0.0642,0.296967 -0.07791,0.383908 -0.0137,0.08695 -0.06298,0.212032 -0.109508,0.277969 -0.04652,0.06594 -0.08459,0.159523 -0.08459,0.207971 0,0.04845 -0.06468,0.32985 -0.143748,0.625348 -0.166727,0.623144 -0.188596,1.024068 -0.06606,1.211069 0.044,0.06716 0.07189,0.146272 0.06197,0.17581 -0.0099,0.02955 0.01884,0.135 0.06391,0.234366 0.04507,0.09936 0.08238,0.237386 0.08293,0.306717 0.0011,0.118111 0.12434,0.56374 0.239848,0.866062 0.02814,0.07368 0.128199,0.213321 0.222325,0.310314 0.09413,0.09699 0.17114,0.194223 0.17114,0.216071 0,0.02183 0.03557,0.04089 0.07904,0.04232 0.04347,0.0014 0.150177,0.05107 0.237123,0.110313 0.225466,0.153621 0.382612,0.14392 0.548741,-0.03388 z m 3.984901,-7.673825 c 0.152082,-0.07266 0.306999,-0.152043 0.344263,-0.176408 0.03726,-0.02437 0.128725,-0.07281 0.203246,-0.10766 0.07452,-0.03482 0.254807,-0.156382 0.400632,-0.270086 0.145828,-0.113702 0.288099,-0.207361 0.316162,-0.208128 0.02807,-8.35e-4 0.162808,-0.112643 0.299435,-0.248615 0.149251,-0.148527 0.343066,-0.286514 0.485531,-0.345658 0.130418,-0.05414 0.237123,-0.125972 0.237123,-0.159626 0,-0.03365 0.08294,-0.146775 0.184321,-0.251388 0.101376,-0.104617 0.214275,-0.247255 0.250891,-0.316974 0.05471,-0.104161 0.09189,-0.124296 0.208553,-0.112913 0.123988,0.0121 0.154685,-0.0086 0.242293,-0.163412 0.09014,-0.159258 0.09853,-0.225748 0.08258,-0.654902 -0.01108,-0.297178 0.0023,-0.533097 0.0353,-0.624405 0.04092,-0.113208 0.04062,-0.15916 -7.59e-4,-0.200988 -0.06711,-0.06713 -0.07053,-0.227609 -0.0061,-0.291937 0.02642,-0.02641 0.06871,-0.198148 0.09398,-0.381651 0.02528,-0.1835 0.08498,-0.397013 0.132655,-0.474467 0.04768,-0.07746 0.08669,-0.200514 0.08669,-0.273462 0,-0.0886 0.05246,-0.18993 0.158073,-0.305216 0.154597,-0.168777 0.208781,-0.341892 0.107002,-0.341892 -0.05352,0 -0.716736,0.675758 -0.716736,0.730294 0,0.01729 -0.03652,0.04302 -0.08115,0.05719 -0.04463,0.01417 -0.158603,0.127318 -0.253272,0.251457 -0.136605,0.179126 -0.199073,0.225698 -0.302759,0.225698 -0.0922,0 -0.13064,0.02231 -0.13064,0.07583 0,0.07144 -0.290857,0.375826 -0.359131,0.375826 -0.01739,0 -0.07935,0.05081 -0.137693,0.112915 -0.05835,0.0621 -0.129201,0.112914 -0.15746,0.112914 -0.06071,0 -0.223758,0.210554 -0.265921,0.3434 -0.01627,0.05128 -0.18367,0.233809 -0.371981,0.405616 -0.591838,0.539962 -0.977761,0.955126 -1.167544,1.256011 -0.04869,0.07719 -0.114747,0.156604 -0.146793,0.176467 -0.07946,0.04926 -0.193755,0.278122 -0.193755,0.387965 0,0.04941 -0.0813,0.183761 -0.180663,0.298569 -0.09937,0.114806 -0.180665,0.229587 -0.180665,0.255065 0,0.02548 -0.06239,0.133212 -0.138652,0.239402 -0.189054,0.263255 -0.220455,0.537973 -0.07873,0.688833 0.09772,0.104025 0.123305,0.108934 0.414947,0.07964 0.197777,-0.01986 0.411361,-0.07925 0.587319,-0.163312 z M 65.308223,29.431874 c 0.05003,-0.105576 0.12255,-0.263092 0.161201,-0.350035 0.03864,-0.08695 0.09101,-0.188568 0.116371,-0.225829 0.02536,-0.03726 0.06635,-0.11856 0.09118,-0.180663 0.02483,-0.0621 0.116241,-0.211675 0.203223,-0.332386 0.08764,-0.121618 0.158134,-0.273912 0.158134,-0.341583 0,-0.07628 0.05003,-0.170055 0.133308,-0.249831 0.07334,-0.07023 0.146116,-0.186038 0.161763,-0.257323 0.01564,-0.07129 0.05641,-0.157539 0.09052,-0.191669 0.07372,-0.07371 0.226113,-0.320732 0.295504,-0.479007 0.02725,-0.0621 0.07806,-0.163727 0.112939,-0.22583 0.06392,-0.113795 0.271969,-0.542069 0.526584,-1.083979 0.07586,-0.161466 0.182539,-0.354551 0.237048,-0.429074 0.05451,-0.07452 0.111018,-0.210437 0.125573,-0.302029 0.01455,-0.0916 0.09908,-0.313942 0.187842,-0.494114 0.08876,-0.180171 0.161379,-0.350762 0.161379,-0.379094 0,-0.02833 0.05008,-0.150428 0.111286,-0.271324 0.0612,-0.1209 0.124636,-0.281856 0.140958,-0.357691 0.0163,-0.07584 0.09835,-0.28328 0.182293,-0.460993 0.08394,-0.177715 0.152621,-0.366395 0.152621,-0.419283 0,-0.05289 0.04831,-0.192037 0.107349,-0.309205 0.05904,-0.117174 0.12136,-0.277856 0.138486,-0.357077 0.0218,-0.100878 0.06044,-0.148247 0.12896,-0.15808 0.07847,-0.01127 0.106923,-0.06017 0.143803,-0.247202 0.02528,-0.128238 0.08548,-0.276459 0.133757,-0.329376 0.113874,-0.124815 0.204256,-0.38777 0.205112,-0.596739 7.04e-4,-0.217369 0.143127,-0.542988 0.286412,-0.655699 0.09823,-0.07727 0.11073,-0.115286 0.08963,-0.272585 -0.01859,-0.1386 -0.0024,-0.214095 0.06665,-0.312258 0.06389,-0.09074 0.09834,-0.230788 0.115159,-0.468211 0.01476,-0.208233 0.05995,-0.411858 0.117322,-0.528517 0.05133,-0.104374 0.09333,-0.271045 0.09333,-0.370373 0,-0.122476 0.02451,-0.194326 0.07621,-0.223245 0.05316,-0.02974 0.08523,-0.129839 0.106046,-0.33098 0.01641,-0.158586 0.06314,-0.358897 0.103835,-0.445131 0.0407,-0.08624 0.09407,-0.263489 0.118611,-0.393892 0.02455,-0.130398 0.07563,-0.297068 0.113535,-0.370372 0.03791,-0.0733 0.06893,-0.188658 0.06893,-0.256339 0,-0.06768 0.04929,-0.266853 0.109525,-0.442607 0.06024,-0.175758 0.108796,-0.370368 0.107898,-0.432471 -7.04e-4,-0.0621 0.0406,-0.305999 0.09221,-0.54199 0.06608,-0.30215 0.09985,-0.652316 0.114128,-1.183759 0.01116,-0.415076 0.03416,-0.777119 0.05109,-0.804539 0.03215,-0.05199 -0.09729,-0.224826 -0.168344,-0.224826 -0.04816,0 -0.394029,0.263662 -0.473998,0.361326 -0.0305,0.03726 -0.05612,0.09305 -0.05691,0.123978 -7.04e-4,0.03093 -0.103056,0.160014 -0.227262,0.286862 -0.124206,0.126847 -0.225829,0.268811 -0.225829,0.315471 0,0.05345 -0.06657,0.1188 -0.179941,0.176635 -0.124984,0.06377 -0.187882,0.129567 -0.20594,0.215459 -0.0143,0.06801 -0.04516,0.154142 -0.06857,0.191403 -0.02341,0.03726 -0.06061,0.108398 -0.08265,0.158081 -0.02205,0.04968 -0.09428,0.212279 -0.160545,0.361326 -0.06627,0.149047 -0.142324,0.321807 -0.169017,0.383909 -0.02669,0.0621 -0.08651,0.18682 -0.132922,0.277147 -0.04642,0.09032 -0.08439,0.205016 -0.08439,0.25487 0,0.04985 -0.02732,0.101127 -0.06073,0.113945 -0.07404,0.02841 -0.187318,0.410688 -0.142962,0.482461 0.01754,0.02837 0.0021,0.08587 -0.03451,0.127774 -0.201771,0.231592 -0.448432,0.8496 -0.403932,1.012039 0.0049,0.01789 -0.0417,0.107107 -0.103553,0.19826 -0.06186,0.09115 -0.112469,0.200391 -0.112469,0.242757 0,0.04236 -0.03909,0.112404 -0.08686,0.155637 -0.06566,0.05942 -0.08076,0.11627 -0.06184,0.232829 0.01507,0.09297 0.0063,0.154219 -0.02211,0.154219 -0.05775,0 -0.280092,0.568805 -0.282845,0.72361 -0.0028,0.166599 -0.107279,0.53287 -0.169468,0.59506 -0.0299,0.0299 -0.05437,0.07257 -0.05437,0.09482 0,0.02225 -0.04273,0.100476 -0.09497,0.173834 -0.07064,0.0992 -0.0942,0.198196 -0.09196,0.386285 0.0017,0.145447 -0.03194,0.341209 -0.0793,0.460745 -0.123473,0.311757 -0.185426,0.519817 -0.185426,0.622742 0,0.05078 -0.03699,0.1408 -0.0822,0.200039 -0.04525,0.05924 -0.128145,0.26015 -0.184304,0.44646 -0.05618,0.186308 -0.114601,0.379392 -0.129899,0.429075 -0.01526,0.04968 -0.02255,0.117371 -0.0161,0.15042 0.0061,0.03305 -0.0227,0.112558 -0.06476,0.17668 -0.04715,0.07198 -0.08272,0.23628 -0.09294,0.429462 -0.0091,0.172082 -0.04525,0.377126 -0.08038,0.455647 -0.07144,0.159738 -0.113151,0.327073 -0.148203,0.594422 -0.01306,0.09937 -0.05998,0.221313 -0.104254,0.270995 -0.08631,0.09678 -0.137082,0.337728 -0.134151,0.636652 7.59e-4,0.113255 -0.02513,0.207358 -0.06764,0.242654 -0.03819,0.03171 -0.06947,0.11679 -0.06947,0.189074 0,0.07228 -0.03143,0.206655 -0.06985,0.298618 -0.07887,0.188765 -0.1043,0.313363 -0.149631,0.733212 -0.01746,0.161467 -0.05649,0.337971 -0.08677,0.392233 -0.03029,0.05426 -0.05504,0.228918 -0.05504,0.388127 0,0.269979 -0.120439,0.740147 -0.22114,0.863277 -0.02255,0.02754 -0.05178,0.151704 -0.06499,0.275909 -0.06096,0.57222 -0.133164,1.045422 -0.17016,1.114885 -0.02232,0.04184 -0.04054,0.128217 -0.04054,0.191955 0,0.179932 0.116287,0.139424 0.218377,-0.07607 z M 59.68884,28.331769 c 0.04882,-0.01874 0.07197,-0.08665 0.07303,-0.214536 7.06e-4,-0.102915 0.0287,-0.235947 0.06172,-0.295616 0.03303,-0.05967 0.05193,-0.140971 0.04191,-0.180663 -0.01002,-0.0397 0.02316,-0.152682 0.07379,-0.251091 0.05056,-0.09841 0.092,-0.205829 0.092,-0.238709 0,-0.03289 0.02855,-0.104803 0.06347,-0.159824 0.03492,-0.05502 0.07729,-0.224768 0.09417,-0.377215 0.01685,-0.152454 0.05945,-0.332616 0.09461,-0.400364 0.09231,-0.177931 0.08936,-1.029157 -0.0038,-1.106503 -0.03728,-0.03092 -0.06772,-0.0919 -0.06772,-0.135497 0,-0.0436 -0.02543,-0.100405 -0.05656,-0.126234 -0.07592,-0.063 -0.214413,0.03856 -0.214413,0.157213 0,0.04882 -0.05079,0.13651 -0.112909,0.19485 -0.0744,0.06989 -0.112916,0.154927 -0.112916,0.249283 0,0.08585 -0.03621,0.175952 -0.09033,0.224957 -0.04965,0.04496 -0.09034,0.10837 -0.09034,0.140908 0,0.03254 -0.03925,0.08018 -0.08728,0.105869 -0.04798,0.02568 -0.100283,0.09246 -0.116203,0.148375 -0.05709,0.200652 -0.265918,0.690232 -0.32421,0.76013 -0.09305,0.111579 -0.07562,0.628736 0.02946,0.873836 0.08332,0.194386 0.468025,0.658247 0.545912,0.658247 0.01944,0 0.06742,-0.01234 0.106728,-0.02741 z m 20.692635,-0.128902 c 0.04009,-0.06114 0.116659,-0.125064 0.170228,-0.14207 0.0536,-0.017 0.203072,-0.114336 0.332212,-0.216299 0.129148,-0.10196 0.332477,-0.245353 0.451839,-0.318654 0.373428,-0.229307 0.544522,-0.386325 0.572301,-0.525233 0.01913,-0.09575 0.05254,-0.131897 0.121685,-0.131897 0.05952,0 0.227973,-0.135556 0.448939,-0.361326 0.263952,-0.269682 0.383647,-0.361327 0.471942,-0.361327 0.08952,0 0.203087,-0.08974 0.466796,-0.368869 0.470158,-0.497647 0.519514,-0.544947 0.935647,-0.896691 0.198729,-0.167979 0.441666,-0.388926 0.539861,-0.490991 0.0982,-0.102067 0.213503,-0.185577 0.256238,-0.185577 0.145228,0 0.341983,-0.212682 0.372336,-0.402477 0.02042,-0.127984 0.06696,-0.205929 0.164002,-0.275042 0.111421,-0.07934 0.13545,-0.128159 0.13545,-0.275155 0,-0.152715 -0.01807,-0.185989 -0.124206,-0.228747 -0.263595,-0.106189 -1.327958,0.0079 -1.496485,0.160411 -0.04411,0.03989 -0.130423,0.07253 -0.191888,0.07253 -0.106585,0 -0.490877,0.243465 -0.490877,0.310992 0,0.0177 -0.06916,0.05721 -0.153754,0.08778 -0.08457,0.03058 -0.207695,0.126311 -0.273609,0.212737 -0.0659,0.08643 -0.194894,0.196005 -0.286613,0.243506 -0.09172,0.0475 -0.278544,0.192322 -0.41517,0.321815 -0.136626,0.129495 -0.315433,0.286677 -0.397343,0.349285 -0.09308,0.07115 -0.139276,0.139016 -0.123181,0.180957 0.0142,0.03691 -0.003,0.109984 -0.03766,0.162376 -0.076,0.114148 -0.345118,0.27847 -0.345118,0.210726 0,-0.08793 -0.08388,-0.04888 -0.115801,0.0539 -0.01739,0.05589 -0.06954,0.155572 -0.115953,0.221511 -0.04639,0.06594 -0.08441,0.152317 -0.08441,0.191954 0,0.08127 -0.155356,0.251895 -0.292741,0.321508 -0.05694,0.02886 -0.09649,0.100874 -0.105324,0.191895 -0.0085,0.08747 -0.04912,0.164409 -0.101619,0.192515 -0.04813,0.02574 -0.08747,0.084 -0.08747,0.129465 0,0.04546 -0.04062,0.134326 -0.09033,0.19749 -0.06096,0.07751 -0.09033,0.183231 -0.09033,0.325222 0,0.115711 -0.01898,0.245797 -0.04213,0.289084 -0.02316,0.04328 -0.06195,0.209628 -0.08623,0.369646 -0.02429,0.160022 -0.05846,0.336678 -0.07606,0.392572 -0.04494,0.142971 0.08944,0.136044 0.184827,-0.0095 z m -3.955007,-0.250174 c 0.08347,-0.07452 0.165812,-0.135498 0.182976,-0.135498 0.01719,0 0.07956,-0.07228 0.138651,-0.160623 0.05964,-0.08915 0.192523,-0.200035 0.298646,-0.249198 0.117702,-0.05452 0.219741,-0.143763 0.265446,-0.232142 0.08545,-0.165253 0.70687,-0.803341 0.782346,-0.803341 0.02775,0 0.06979,-0.05081 0.0934,-0.112915 0.0236,-0.0621 0.06421,-0.112915 0.09022,-0.112915 0.02603,0 0.156072,-0.106704 0.289022,-0.23712 0.13295,-0.130416 0.262569,-0.257445 0.28804,-0.282286 0.257572,-0.251195 0.732859,-0.763835 0.732859,-0.790452 0,-0.01865 0.101096,-0.102476 0.224663,-0.186295 0.156259,-0.106 0.22502,-0.183342 0.225833,-0.254023 7.06e-4,-0.05589 -0.01002,-0.101622 -0.02369,-0.101622 -0.0643,0 -0.333548,0.162869 -0.51332,0.310493 -0.196504,0.161372 -0.791044,0.508702 -1.167821,0.682242 -0.106102,0.04887 -0.20482,0.11988 -0.219368,0.157801 -0.01458,0.03791 -0.05096,0.06894 -0.08092,0.06894 -0.02997,0 -0.114163,0.06287 -0.187124,0.139716 -0.07296,0.07684 -0.24444,0.21317 -0.381067,0.302945 -0.297639,0.195582 -0.451658,0.348617 -0.451658,0.448781 0,0.04059 -0.04363,0.120245 -0.09696,0.17701 -0.06941,0.07389 -0.08392,0.11963 -0.05106,0.160994 0.02525,0.03178 0.05976,0.134611 0.07668,0.228519 0.02708,0.15016 0.01595,0.182819 -0.09233,0.270996 -0.350729,0.285632 -0.748435,0.7123 -0.723799,0.776504 0.03993,0.104076 0.132098,0.08366 0.300306,-0.06651 z m -40.136673,9.465368 c -0.07076,-0.08866 -0.1642,-0.161213 -0.207672,-0.161213 -0.09652,0 -0.0981,-0.0337 -0.01124,-0.241447 0.04077,-0.09753 0.06772,-0.303827 0.06772,-0.517711 0,-0.306506 0.01913,-0.393846 0.138669,-0.633064 0.07627,-0.152631 0.157564,-0.289183 0.180667,-0.303456 0.02308,-0.01426 0.04198,-0.08534 0.04198,-0.157928 0,-0.1032 0.02467,-0.138165 0.113242,-0.160393 0.186582,-0.04683 0.330663,0.08116 0.347077,0.308306 0.01154,0.15946 0.0312,0.195094 0.114237,0.206901 0.113425,0.01612 0.419087,-0.204556 0.419087,-0.302573 0,-0.0603 0.204377,-0.297386 0.46372,-0.537962 0.07463,-0.06921 0.135738,-0.183209 0.151674,-0.282877 0.01465,-0.09182 0.07129,-0.215184 0.125746,-0.274134 0.08732,-0.09449 0.172187,-0.23452 0.304121,-0.501776 0.02133,-0.04314 0.03872,-0.109694 0.03872,-0.147909 0,-0.03822 0.05079,-0.08879 0.112917,-0.112406 0.09144,-0.03476 0.112916,-0.0737 0.112916,-0.204728 0,-0.09201 0.05185,-0.253219 0.120212,-0.373738 0.06613,-0.116565 0.148697,-0.267429 0.183521,-0.335245 0.03485,-0.06782 0.08235,-0.13507 0.105613,-0.149452 0.02331,-0.01436 0.04244,-0.07068 0.04259,-0.125104 0,-0.05443 0.04069,-0.159932 0.09003,-0.234456 0.04935,-0.07452 0.08987,-0.164387 0.09003,-0.199693 0,-0.0353 0.02763,-0.09628 0.06104,-0.135496 0.03341,-0.03922 0.09578,-0.161594 0.138608,-0.271943 0.04282,-0.110353 0.117114,-0.255765 0.165088,-0.323135 0.04798,-0.06737 0.08722,-0.15336 0.08722,-0.191092 0,-0.03773 0.04965,-0.127603 0.110312,-0.199709 0.06066,-0.07211 0.117418,-0.180371 0.126103,-0.240585 0.01374,-0.09554 0.416544,-0.975153 0.601372,-1.313345 0.03606,-0.06594 0.06552,-0.151847 0.06552,-0.190912 0,-0.03907 0.05246,-0.10539 0.116522,-0.14738 0.09773,-0.06404 0.112157,-0.09961 0.08946,-0.220618 -0.01883,-0.100176 -0.0061,-0.161669 0.04153,-0.201217 0.03773,-0.03132 0.06863,-0.103904 0.06863,-0.161291 0,-0.06468 0.03432,-0.115236 0.09033,-0.13301 0.05815,-0.01845 0.09033,-0.06834 0.09033,-0.139977 0,-0.06122 0.07114,-0.240755 0.158081,-0.398981 0.08694,-0.15822 0.158081,-0.326387 0.158081,-0.373698 0,-0.04731 0.05299,-0.156029 0.117813,-0.241587 0.240819,-0.317976 0.357668,-0.67497 0.220928,-0.67497 -0.03728,0 -0.06772,0.0285 -0.06772,0.06333 0,0.03483 -0.06354,0.08548 -0.141158,0.11254 -0.131327,0.04578 -0.310491,0.204646 -0.310491,0.275311 0,0.01698 -0.14188,0.151058 -0.315281,0.29796 -0.17341,0.146898 -0.315676,0.285471 -0.316162,0.30794 -3.57e-4,0.02247 -0.162697,0.191179 -0.360469,0.374912 -0.197772,0.183735 -0.424766,0.434654 -0.504429,0.557599 -0.07966,0.122942 -0.159789,0.22353 -0.178063,0.22353 -0.0183,0 -0.131069,0.120892 -0.250674,0.268646 -0.119604,0.147756 -0.262858,0.292941 -0.31834,0.322638 -0.0555,0.02969 -0.12044,0.110073 -0.144332,0.178618 -0.04669,0.133898 -0.453001,0.463224 -0.63836,0.517391 -0.0621,0.01815 -0.177372,0.08126 -0.256147,0.140253 -0.109621,0.08209 -0.176552,0.100594 -0.28527,0.07885 -0.07813,-0.01562 -0.217686,-0.0034 -0.310126,0.02707 l -0.16808,0.05547 -0.302678,-0.296776 -0.302671,-0.296774 -0.0085,-0.317025 c -0.0046,-0.174366 -0.01693,-0.317026 -0.02718,-0.317026 -0.0555,0 -0.296202,0.270163 -0.361509,0.405742 -0.09516,0.197532 -0.316109,0.526822 -0.590264,0.879654 -0.116591,0.150053 -0.302656,0.415096 -0.413484,0.588985 -0.110821,0.173886 -0.216988,0.327403 -0.23593,0.341141 -0.01898,0.01373 -0.09443,0.145855 -0.16776,0.293579 -0.07334,0.147729 -0.256459,0.4001 -0.406925,0.560834 -0.150474,0.160731 -0.273586,0.307365 -0.273586,0.32586 0,0.04932 -0.180098,0.137873 -0.361327,0.177645 -0.08694,0.01909 -0.255433,0.05799 -0.374415,0.08647 -0.138972,0.03325 -0.235877,0.03631 -0.27099,0.0085 -0.03006,-0.02377 -0.162818,-0.07852 -0.295003,-0.121653 -0.133726,-0.04364 -0.250316,-0.111406 -0.262813,-0.152768 -0.01237,-0.04088 -0.07372,-0.178086 -0.136345,-0.304884 -0.09898,-0.200372 -0.109636,-0.264565 -0.08139,-0.490549 0.02437,-0.195203 0.01754,-0.269235 -0.02741,-0.297005 -0.105726,-0.06535 -0.222803,0.03845 -0.222803,0.197538 0,0.111018 -0.04221,0.188536 -0.171276,0.314573 -0.0942,0.09199 -0.189428,0.167243 -0.21162,0.167243 -0.02217,0 -0.08231,0.03826 -0.133596,0.08504 -0.06825,0.06224 -0.184061,0.09049 -0.432032,0.105406 -0.316974,0.01905 -0.346833,0.01279 -0.463712,-0.09752 -0.104041,-0.0982 -0.129649,-0.168637 -0.153268,-0.421571 -0.01974,-0.211469 -0.04692,-0.303668 -0.08958,-0.303668 -0.03363,0 -0.06119,-0.0305 -0.06119,-0.06774 0,-0.03726 0.02885,-0.06775 0.06415,-0.06775 0.04578,0 0.07334,-0.086 0.09629,-0.300043 0.0243,-0.226817 0.07478,-0.375278 0.206837,-0.608351 0.09609,-0.169575 0.174708,-0.327701 0.174708,-0.351399 0,-0.0237 0.05132,-0.104094 0.114085,-0.178663 0.07569,-0.08995 0.09716,-0.14603 0.06377,-0.166643 -0.02764,-0.01709 -0.07288,-0.0084 -0.100526,0.01919 -0.02764,0.02765 -0.112962,0.05027 -0.189588,0.05027 -0.204924,0 -0.660574,0.171241 -0.79534,0.298899 -0.06446,0.06104 -0.18917,0.130867 -0.277199,0.155171 -0.09831,0.02715 -0.252921,0.139743 -0.400791,0.291884 -0.132412,0.136233 -0.275408,0.247693 -0.317779,0.247693 -0.04236,0 -0.137423,0.05081 -0.211225,0.112915 -0.07379,0.0621 -0.149494,0.112915 -0.168193,0.112915 -0.111383,0 -0.64003,0.512673 -1.059527,1.027514 -0.517085,0.63463 -0.991601,0.992413 -1.399619,1.055321 -0.112073,0.01729 -0.247955,0.04547 -0.301965,0.06264 -0.199465,0.06342 -0.300568,-0.318814 -0.305168,-1.153809 -0.0023,-0.459832 -0.01799,-0.589278 -0.08216,-0.68719 -0.0435,-0.06635 -0.07904,-0.204555 -0.07904,-0.307116 0,-0.14575 -0.0189,-0.191423 -0.0865,-0.209104 -0.0476,-0.01244 -0.09963,-0.07659 -0.11568,-0.142562 -0.154194,-0.634111 -0.46725,-0.661152 -1.028589,-0.08884 -0.236863,0.2415 -0.304865,0.340468 -0.304865,0.443718 0,0.07308 -0.06096,0.245582 -0.135495,0.383331 -0.07455,0.137743 -0.135494,0.271671 -0.135494,0.297611 0,0.02596 -0.05041,0.113261 -0.112043,0.194055 -0.06165,0.08079 -0.172939,0.281186 -0.247356,0.445326 -0.0744,0.164136 -0.158529,0.312774 -0.1869,0.330308 -0.02839,0.01754 -0.201363,0.03901 -0.38443,0.04772 -0.304242,0.01447 -0.338307,0.0072 -0.396432,-0.08501 -0.03621,-0.05741 -0.06279,-0.211947 -0.0618,-0.358747 0.0015,-0.211179 0.02103,-0.27601 0.108217,-0.357909 0.05853,-0.05501 0.106356,-0.142204 0.106235,-0.193766 -3.5e-4,-0.127199 0.122497,-0.487889 0.278209,-0.817147 0.07068,-0.149454 0.128503,-0.305493 0.128503,-0.346757 0,-0.04125 0.05527,-0.118501 0.122846,-0.171648 0.116249,-0.09144 0.134887,-0.150268 0.144484,-0.455958 0.0023,-0.07739 0.04024,-0.133618 0.111785,-0.166214 0.109507,-0.0499 0.148348,-0.192465 0.177296,-0.650809 0.0061,-0.09406 0.06742,-0.250841 0.141606,-0.361325 0.111656,-0.166197 0.131896,-0.242175 0.136315,-0.51186 0.003,-0.174178 0.02429,-0.346937 0.04768,-0.38391 0.02338,-0.03697 0.03599,-0.171269 0.02809,-0.298446 -0.0083,-0.133375 0.01701,-0.323604 0.05975,-0.449508 0.09662,-0.284581 0.112514,-0.598271 0.03804,-0.751089 -0.04699,-0.09638 -0.04813,-0.146901 -0.0053,-0.240467 0.04229,-0.09273 0.04176,-0.138046 -0.0023,-0.208703 -0.04259,-0.06824 -0.04434,-0.126686 -0.0068,-0.2396 0.04616,-0.139841 0.0038,-0.275245 -0.160959,-0.513277 -0.0053,-0.0079 -0.08932,0.0071 -0.186429,0.03328 -0.251023,0.06759 -0.741915,0.61188 -0.808785,0.896753 -0.01587,0.06768 -0.08958,0.187353 -0.16376,0.265959 -0.09814,0.103993 -0.141561,0.202199 -0.15941,0.36055 -0.01351,0.119698 -0.06195,0.278953 -0.107632,0.353901 -0.0457,0.07495 -0.08318,0.202965 -0.08328,0.284481 0,0.08995 -0.0268,0.158423 -0.06787,0.174204 -0.04631,0.01777 -0.06772,0.09019 -0.06772,0.228729 0,0.132096 -0.03234,0.248118 -0.09275,0.332984 -0.101057,0.14193 -0.108543,0.168396 -0.156798,0.554669 -0.02293,0.183392 -0.06802,0.303342 -0.151256,0.402255 -0.102985,0.12239 -0.120386,0.188864 -0.132177,0.504922 -0.0076,0.200188 -0.03136,0.404627 -0.05307,0.454309 -0.02171,0.04968 -0.05276,0.324065 -0.06893,0.609739 -0.01617,0.285673 -0.04927,0.692168 -0.07349,0.903316 -0.02429,0.211152 -0.05466,0.57347 -0.06749,0.805155 -0.02316,0.417067 -0.02467,0.421693 -0.155705,0.467364 -0.09199,0.03208 -0.132313,0.07627 -0.132313,0.145036 0,0.0544 -0.05588,0.164481 -0.124206,0.244619 -0.123575,0.144969 -0.125784,0.145557 -0.43399,0.115512 -0.278824,-0.02719 -0.317779,-0.04334 -0.389759,-0.161706 -0.06332,-0.104131 -0.07509,-0.194355 -0.05648,-0.433375 0.01291,-0.166031 0.05117,-0.341961 0.08489,-0.390962 0.064,-0.09295 0.08287,-0.303418 0.03173,-0.354532 -0.01625,-0.01631 -0.137188,0.06232 -0.268681,0.174655 -0.357129,0.305104 -0.562227,0.379834 -0.92035,0.335319 -0.234442,-0.02916 -0.313133,-0.06011 -0.395203,-0.155509 -0.05633,-0.06553 -0.102462,-0.149289 -0.102462,-0.186156 0,-0.03687 -0.04191,-0.149159 -0.09311,-0.249542 l -0.09311,-0.182509 -0.144012,0.116597 c -0.07921,0.06412 -0.204985,0.143944 -0.279508,0.177366 -0.07455,0.03342 -0.186308,0.114353 -0.248411,0.179849 -0.0621,0.06549 -0.1555,0.119428 -0.207535,0.119858 -0.05208,3.51e-4 -0.129004,0.03876 -0.171026,0.0852 -0.04206,0.04645 -0.168413,0.09703 -0.28098,0.112454 -0.178215,0.02444 -0.224565,0.01208 -0.359672,-0.09571 -0.135259,-0.107919 -0.155135,-0.149751 -0.155378,-0.326994 -1.37e-4,-0.111786 -0.0306,-0.261311 -0.06757,-0.332283 -0.06005,-0.115125 -0.0596,-0.145328 0.0046,-0.280208 0.03948,-0.08315 0.100351,-0.174923 0.13532,-0.203946 0.06127,-0.05083 0.09011,-0.361471 0.03842,-0.413186 -0.01389,-0.01386 -0.07991,-0.0077 -0.146784,0.01378 -0.06689,0.02143 -0.175057,0.04948 -0.240402,0.06235 -0.06871,0.0135 -0.128836,0.0617 -0.142563,0.114201 -0.01587,0.06064 -0.06149,0.09083 -0.137423,0.09083 -0.06256,0 -0.174069,0.05081 -0.247871,0.112913 -0.0738,0.0621 -0.155538,0.112914 -0.181632,0.112914 -0.02612,0 -0.147467,0.101623 -0.269729,0.225829 -0.122262,0.124206 -0.242747,0.225829 -0.267748,0.225829 -0.06605,0 -0.327944,0.318642 -0.327944,0.399009 0,0.03757 -0.08089,0.151159 -0.179772,0.252427 -0.430824,0.441262 -0.636598,0.690633 -0.681262,0.825586 -0.02627,0.07955 -0.08621,0.156805 -0.133096,0.171687 -0.04684,0.0149 -0.09797,0.0672 -0.113553,0.116286 -0.01556,0.04908 -0.108073,0.181387 -0.205554,0.294012 -0.09747,0.112628 -0.177228,0.22241 -0.177228,0.243957 0,0.02155 -0.132117,0.171941 -0.293584,0.334206 -0.248319,0.24954 -0.293575,0.319202 -0.293575,0.451856 0,0.11612 -0.023,0.164122 -0.08858,0.184938 -0.04874,0.01546 -0.159789,0.143859 -0.246847,0.285327 -0.08705,0.141472 -0.230114,0.326128 -0.317916,0.410352 -0.133718,0.128259 -0.159645,0.184328 -0.159645,0.345207 0,0.194541 -0.04639,0.246894 -0.218657,0.246894 -0.04168,0 -0.09807,0.03557 -0.125322,0.07904 -0.07584,0.121019 -0.545274,0.224621 -1.164691,0.257054 -0.130348,0.0068 -0.201394,0.04073 -0.2726905,0.130143 -0.053068,0.06651 -0.118724,0.120922 -0.1459869,0.120922 -0.094999,0 -0.5116109,0.149472 -0.5116109,0.183553 0,0.01887 -0.081698,0.04814 -0.1815555,0.06501 -0.099858,0.01687 -0.210185,0.05931 -0.2451842,0.0943 -0.080566,0.08057 -0.1055366,0.07979 -0.1912657,-0.0059 -0.045476,-0.04545 -0.1380684,-0.06602 -0.267201,-0.05934 -0.1989564,0.01028 -0.3387255,-0.06962 -0.5052032,-0.288874 -0.065519,-0.08629 -0.2137229,-0.105743 -0.2581362,-0.03388 -0.060812,0.09837 -0.1895651,0.02715 -0.3726162,-0.206126 -0.1056402,-0.134557 -0.1920145,-0.272838 -0.1920145,-0.30731 0,-0.03448 -0.03052,-0.08798 -0.067721,-0.118903 -0.038568,-0.03201 -0.067721,-0.130488 -0.067721,-0.228696 0,-0.09485 -0.020347,-0.185028 -0.045172,-0.200382 -0.024826,-0.01535 -0.045173,-0.08028 -0.045173,-0.144272 0,-0.0661 -0.048741,-0.161562 -0.1129085,-0.221008 -0.093215,-0.08638 -0.1129161,-0.146627 -0.1129161,-0.345175 0,-0.186801 -0.020726,-0.258287 -0.092835,-0.320018 -0.067797,-0.05803 -0.083846,-0.106469 -0.059521,-0.179413 0.018297,-0.05496 0.027559,-0.14057 0.020499,-0.190252 -0.00683,-0.04968 -0.010933,-0.303741 -0.00865,-0.564574 0.00228,-0.260833 -0.018069,-0.571015 -0.045173,-0.689302 -0.027179,-0.118283 -0.033936,-0.250395 -0.015032,-0.293579 0.018904,-0.04318 0.029077,-0.09884 0.022624,-0.123678 -0.00683,-0.02482 -0.02513,-0.136629 -0.041452,-0.248412 -0.023307,-0.159397 -0.04988,-0.206151 -0.1234159,-0.216698 -0.08667,-0.01243 -0.09058,-0.02944 -0.051929,-0.225828 0.023004,-0.116808 0.045021,-0.319822 0.048968,-0.451134 0.00456,-0.140799 0.031355,-0.253719 0.066202,-0.275228 0.032418,-0.02007 0.085585,-0.189562 0.1180711,-0.376665 0.032494,-0.187103 0.07182,-0.360817 0.087407,-0.386023 0.015564,-0.02521 -0.021637,-0.07856 -0.082662,-0.118565 -0.1027731,-0.06734 -0.1094237,-0.09364 -0.089791,-0.354977 0.031583,-0.419919 0.073415,-0.682567 0.1178053,-0.73911 0.023687,-0.03019 0.012299,-0.102594 -0.028394,-0.180664 -0.1059314,-0.203119 -0.084378,-0.357483 0.075313,-0.539334 0.1170689,-0.133328 0.1345609,-0.178544 0.094126,-0.243294 -0.036973,-0.05917 -0.034544,-0.10725 0.00941,-0.18784 0.032494,-0.05957 0.1130755,-0.213951 0.1790426,-0.343074 0.065975,-0.12912 0.1581948,-0.246908 0.2049541,-0.26175 0.046767,-0.01485 0.098233,-0.08715 0.1144193,-0.160809 0.040921,-0.186228 0.1659387,-0.244738 0.3355595,-0.157031 0.073491,0.03801 0.1659767,0.06912 0.205478,0.06912 0.1796878,0 0.7908148,0.551356 0.7908148,0.713462 0,0.05892 0.080308,0.25431 0.1784504,0.434206 0.09815,0.179894 0.1772812,0.36619 0.1758463,0.413984 -0.0038,0.113458 0.078949,0.349494 0.2168584,0.62159 0.089404,0.176391 0.1000855,0.231398 0.055422,0.285259 -0.043958,0.05292 -0.042363,0.101158 0.00759,0.233127 0.03462,0.09152 0.067797,0.349321 0.073719,0.572893 0.022928,0.866362 0.028166,0.901992 0.1350468,0.917223 0.093526,0.01331 0.096836,0.03131 0.079109,0.429075 -0.010173,0.228343 -0.029913,0.469128 -0.043806,0.535074 -0.013893,0.06594 -0.0038,0.133204 0.022472,0.149452 0.026268,0.01623 0.04783,0.09049 0.04783,0.164967 0,0.161911 0.079504,0.528054 0.1384936,0.637748 0.023232,0.04314 0.042136,0.156949 0.042136,0.252913 0,0.119078 0.042743,0.23758 0.1346748,0.373224 0.1056809,0.155955 0.134857,0.248694 0.1355024,0.430681 6.984e-4,0.196177 0.017993,0.243168 0.1121419,0.304868 0.06119,0.04012 0.129899,0.07294 0.152599,0.07294 0.05041,0 0.126468,-0.192087 0.162272,-0.409735 0.01458,-0.08873 0.0771,-0.229871 0.138911,-0.313648 0.0618,-0.08378 0.112377,-0.206601 0.112377,-0.272946 0,-0.06636 0.04221,-0.174268 0.09375,-0.239809 0.05155,-0.06554 0.100519,-0.192034 0.108794,-0.281078 0.0084,-0.09106 0.06134,-0.21106 0.120789,-0.274246 0.09505,-0.100982 0.108035,-0.165679 0.128336,-0.639624 0.02141,-0.499544 0.02779,-0.528011 0.121221,-0.541315 0.1008,-0.01437 0.186445,-0.228826 0.128685,-0.322272 -0.01526,-0.02472 0.0053,-0.108317 0.04502,-0.185779 0.04487,-0.08682 0.08806,-0.342825 0.112537,-0.667523 0.07486,-0.993426 0.13119,-1.34183 0.271968,-1.683235 0.131433,-0.318729 0.133324,-0.333431 0.06203,-0.483671 -0.06772,-0.142745 -0.0678,-0.178508 -6.98e-4,-0.454254 0.03993,-0.164625 0.07258,-0.366025 0.0725,-0.447553 -4.6e-5,-0.08153 0.02779,-0.214934 0.0618,-0.296454 0.03788,-0.09074 0.05345,-0.236763 0.04001,-0.376589 -0.01367,-0.141979 -0.003,-0.240151 0.02839,-0.259496 0.02771,-0.01711 0.05033,-0.05947 0.05033,-0.09415 0,-0.03467 0.04988,-0.11287 0.11076,-0.173785 0.0894,-0.08941 0.105848,-0.141011 0.08529,-0.267697 -0.01944,-0.119563 0.003,-0.205636 0.09438,-0.361436 0.0847,-0.144534 0.11136,-0.238311 0.09091,-0.31981 -0.02809,-0.111952 0.122527,-0.672324 0.208841,-0.776969 0.02202,-0.02668 0.03842,-0.209605 0.03652,-0.406491 -0.0023,-0.246731 0.0189,-0.400088 0.06856,-0.493477 0.03963,-0.07452 0.0722,-0.183174 0.07235,-0.241442 1.37e-4,-0.05827 0.03492,-0.164644 0.07733,-0.23639 0.0744,-0.125994 0.07364,-0.133601 -0.02255,-0.223264 -0.136155,-0.126847 -0.150671,-0.475414 -0.02718,-0.651782 0.04411,-0.06297 0.05481,-0.154715 0.0353,-0.301776 -0.02247,-0.169584 -0.0082,-0.246582 0.07243,-0.390044 0.08165,-0.145283 0.0909,-0.196609 0.04942,-0.274178 -0.05656,-0.10561 -0.0249,-0.196222 0.221429,-0.635365 0.12709,-0.226547 0.132093,-0.251862 0.06878,-0.348449 -0.08826,-0.134716 -0.08659,-0.302146 0.0046,-0.478866 0.04016,-0.07767 0.07957,-0.23418 0.08756,-0.34779 0.02498,-0.354765 0.113265,-0.789634 0.174822,-0.860919 0.03242,-0.03757 0.07114,-0.191029 0.08593,-0.341024 0.0148,-0.149997 0.05816,-0.347511 0.09637,-0.438917 0.03819,-0.09141 0.0703,-0.243064 0.07137,-0.337019 7.59e-4,-0.09395 0.0517,-0.313093 0.112612,-0.486981 0.06233,-0.177959 0.119279,-0.460606 0.13034,-0.646608 0.01078,-0.181747 0.04859,-0.374831 0.08403,-0.429075 0.03538,-0.05424 0.07569,-0.159602 0.08957,-0.234126 0.0815,-0.438397 0.177076,-0.752313 0.296742,-0.97465 0.132853,-0.24685 0.134257,-0.256181 0.0684,-0.456288 -0.06476,-0.196747 -0.06324,-0.21022 0.04176,-0.364935 0.08996,-0.132557 0.114199,-0.239663 0.138638,-0.612602 0.03257,-0.497 0.125207,-0.77479 0.317794,-0.952958 0.09443,-0.08736 0.11839,-0.151277 0.118527,-0.316161 9.1e-5,-0.127994 0.03515,-0.263965 0.09194,-0.357191 0.05223,-0.08572 0.08978,-0.221843 0.08714,-0.316161 -0.0053,-0.188545 0.144818,-0.768085 0.210603,-0.813224 0.08988,-0.06167 0.242466,-0.318257 0.242466,-0.407728 0,-0.122815 0.160571,-0.2674265 0.364918,-0.3286525 0.157777,-0.04727 0.175489,-0.04089 0.410591,0.1478785 0.283684,0.22778 0.38903,0.450383 0.287305,0.607083 -0.03348,0.05151 -0.06772,0.142965 -0.07627,0.203247 -0.01245,0.08791 -0.04198,0.109602 -0.149419,0.109602 -0.09744,0 -0.149236,0.03056 -0.190074,0.112145 -0.0309,0.06168 -0.08763,0.135176 -0.126126,0.163323 -0.108877,0.07962 -0.281117,0.433891 -0.31809,0.654281 -0.01997,0.119257 -0.08565,0.259023 -0.163312,0.347757 -0.07716,0.08816 -0.129854,0.199968 -0.129854,0.275546 0,0.06995 -0.01822,0.186111 -0.04046,0.258132 -0.02224,0.07202 -0.07569,0.252893 -0.118724,0.40194 -0.04305,0.149047 -0.09594,0.290303 -0.117593,0.313902 -0.02164,0.0236 -0.03933,0.08845 -0.03933,0.144124 0,0.05567 -0.01784,0.112251 -0.03971,0.125742 -0.02187,0.01349 -0.05087,0.141717 -0.06453,0.284951 -0.01367,0.143234 -0.0681,0.45351 -0.120949,0.689501 -0.05284,0.235991 -0.112035,0.502655 -0.131546,0.592589 -0.01951,0.08993 -0.08875,0.258827 -0.15386,0.375318 -0.08492,0.151934 -0.110874,0.249316 -0.09184,0.344489 0.01458,0.07298 0.0061,0.158143 -0.0186,0.189254 -0.02483,0.03111 -0.05937,0.229329 -0.07677,0.44048 -0.02862,0.34695 -0.04517,0.39796 -0.17186,0.529885 -0.139116,0.144883 -0.140202,0.149787 -0.144833,0.654904 -0.0038,0.432286 -0.01974,0.537495 -0.104603,0.698615 -0.08946,0.169814 -0.126119,0.363111 -0.165286,0.871709 -0.01215,0.157656 -0.05641,0.342601 -0.194735,0.812985 -0.04267,0.145031 -0.06787,0.366528 -0.06058,0.532229 0.0107,0.243683 -0.0038,0.304607 -0.09966,0.430791 -0.06977,0.09151 -0.121373,0.231537 -0.136664,0.371087 -0.115064,1.049803 -0.163881,1.306682 -0.28284,1.488226 -0.04252,0.06487 -0.07842,0.253471 -0.09189,0.482588 -0.01215,0.206851 -0.05368,0.460908 -0.09223,0.564578 -0.03857,0.103664 -0.05747,0.20889 -0.04206,0.233832 0.01541,0.02495 -0.01032,0.143373 -0.05709,0.263175 -0.04684,0.119802 -0.110547,0.43123 -0.141606,0.692063 -0.03105,0.260832 -0.07774,0.500752 -0.103738,0.533158 -0.05611,0.06997 -0.130947,0.654924 -0.127204,0.99438 0.0015,0.146301 -0.02505,0.282625 -0.06818,0.348465 -0.04373,0.06669 -0.07921,0.251559 -0.09264,0.482333 -0.01199,0.205807 -0.03826,0.414844 -0.05846,0.464526 -0.05967,0.146837 -0.139533,0.664041 -0.130764,0.84652 0.0053,0.103894 -0.0208,0.200997 -0.06696,0.251971 -0.05527,0.0611 -0.07501,0.168333 -0.07501,0.40744 0,0.178483 -0.01837,0.359801 -0.04077,0.402938 -0.06651,0.127909 -0.133582,0.421564 -0.161437,0.706497 -0.01435,0.146707 -0.05405,0.32963 -0.08833,0.406493 -0.03424,0.07686 -0.07357,0.262033 -0.08731,0.411503 -0.01374,0.149458 -0.05952,0.340886 -0.10171,0.425391 -0.04403,0.0882 -0.09364,0.347613 -0.116545,0.60898 -0.02194,0.250437 -0.06719,0.516313 -0.100534,0.590838 -0.03333,0.07452 -0.07478,0.28793 -0.09211,0.474242 -0.02376,0.256043 -0.05815,0.373846 -0.140771,0.482516 -0.06013,0.07908 -0.109294,0.174835 -0.109294,0.212792 0,0.03796 -0.0413,0.246004 -0.09171,0.462325 -0.05345,0.229344 -0.07493,0.410048 -0.05155,0.433449 0.02338,0.02341 0.09734,-0.02215 0.177357,-0.109282 0.07546,-0.08217 0.261279,-0.283247 0.412899,-0.446823 0.151628,-0.163576 0.275681,-0.316222 0.275681,-0.339211 0,-0.023 0.07656,-0.122882 0.170145,-0.22199 0.09357,-0.09911 0.197552,-0.241176 0.231056,-0.315698 0.03348,-0.07452 0.07928,-0.165985 0.101725,-0.203246 0.183826,-0.305259 0.298625,-0.456278 0.362177,-0.476449 0.06279,-0.01993 0.37434,-0.401097 0.622515,-0.761654 0.03568,-0.05186 0.109295,-0.145099 0.163555,-0.2072 0.05428,-0.0621 0.11073,-0.163728 0.125481,-0.225832 0.01503,-0.06345 0.13781,-0.20113 0.280138,-0.314268 0.139321,-0.110747 0.280472,-0.266379 0.313679,-0.345852 0.07493,-0.179254 0.527873,-0.649689 0.625575,-0.649689 0.03955,0 0.121343,-0.07266 0.181692,-0.161472 0.116598,-0.171589 0.56329,-0.549198 0.751701,-0.635442 0.265311,-0.121446 0.544871,-0.19615 0.925884,-0.247413 0.22357,-0.03008 0.419194,-0.07381 0.434727,-0.09717 0.08086,-0.121654 0.355671,0.18279 0.355671,0.394031 0,0.03435 0.02429,0.07054 0.0539,0.08043 0.03819,0.01273 0.05033,0.152172 0.0416,0.478008 -0.0068,0.253014 -0.0038,0.460027 0.0076,0.460027 0.02179,0 0.185883,-0.14434 0.468534,-0.41211 0.184,-0.174317 0.191008,-0.176671 0.391847,-0.131664 0.322676,0.07231 0.425251,0.134848 0.453585,0.276515 0.0142,0.07092 0.06711,0.170225 0.117532,0.220684 0.05049,0.05046 0.09174,0.119857 0.09174,0.154224 0,0.09014 0.238936,0.127077 0.285832,0.04418 0.02057,-0.03637 0.125769,-0.195196 0.233765,-0.352937 0.107997,-0.157737 0.215227,-0.35486 0.238306,-0.438046 0.02308,-0.08319 0.09572,-0.230305 0.161429,-0.326923 0.06575,-0.09662 0.11981,-0.208409 0.120205,-0.248412 3.49e-4,-0.04001 0.06218,-0.142471 0.137286,-0.227704 0.108346,-0.122937 0.130773,-0.181395 0.108475,-0.282869 -0.02316,-0.105286 0.0046,-0.166851 0.156289,-0.348128 0.143406,-0.171274 0.18438,-0.257658 0.18438,-0.388657 0,-0.122742 0.03674,-0.210292 0.135502,-0.322754 0.07455,-0.08488 0.135495,-0.179584 0.135495,-0.210465 0,-0.03088 0.03583,-0.08682 0.07963,-0.124323 0.05018,-0.04299 0.102613,-0.201087 0.141796,-0.427823 0.03416,-0.1978 0.08933,-0.391182 0.122535,-0.429744 0.09562,-0.111054 0.167556,-0.655234 0.15572,-1.1781 -0.0068,-0.308925 0.0068,-0.491237 0.03826,-0.510781 0.02703,-0.01671 0.0492,-0.07348 0.0492,-0.126139 0,-0.125149 0.07893,-0.378408 0.179635,-0.576406 0.04419,-0.08694 0.111974,-0.300352 0.150557,-0.47424 0.127341,-0.573949 0.211794,-1.017419 0.211794,-1.112167 0,-0.05135 0.04062,-0.150371 0.0902,-0.22004 0.10707,-0.150369 0.213852,-0.978841 0.136171,-1.056522 -0.06506,-0.06506 -0.05649,-0.188269 0.01731,-0.249522 0.03462,-0.02875 0.07311,-0.117621 0.08545,-0.197484 0.07531,-0.486697 0.136027,-0.745185 0.197173,-0.838977 0.03918,-0.06014 0.0596,-0.158225 0.04684,-0.225016 -0.01989,-0.103818 0.06605,-0.349411 0.144597,-0.413606 0.0878,-0.07174 0.136163,-0.306847 0.156699,-0.761865 0.01913,-0.424871 0.03834,-0.530066 0.111072,-0.609739 0.174965,-0.191647 0.245214,-0.39249 0.221899,-0.634462 -0.02672,-0.277453 0.0091,-0.381601 0.220404,-0.639399 0.158187,-0.193047 0.161345,-0.204456 0.130302,-0.471869 -0.03067,-0.26446 0.02741,-0.541095 0.113667,-0.541095 0.05018,0 0.08705,-0.113782 0.159387,-0.491861 0.07273,-0.380101 0.204142,-0.68306 0.389797,-0.898668 0.160381,-0.186254 0.265994,-0.434969 0.261462,-0.615723 -0.0023,-0.07652 0.009,-0.291558 0.02414,-0.477867 0.01518,-0.186309 0.03462,-0.440367 0.04312,-0.564573 0.01944,-0.282911 0.194948,-0.670047 0.405679,-0.894734 0.12419,-0.132423 0.155128,-0.197022 0.134227,-0.280296 -0.0602,-0.239835 -0.04183,-0.553182 0.03751,-0.640989 0.04312,-0.04775 0.102052,-0.156626 0.130863,-0.241957 0.02877,-0.08533 0.160055,-0.321799 0.291648,-0.525483 0.197506,-0.305724 0.244675,-0.418348 0.270382,-0.6455355 0.02976,-0.262877 0.03842,-0.27825 0.194454,-0.343315 0.08983,-0.03746 0.226728,-0.129478 0.30422,-0.204476 0.119923,-0.116055 0.163904,-0.132044 0.295382,-0.107379 0.122323,0.02295 0.175277,0.06825 0.254424,0.217689 0.05497,0.10379 0.0999,0.245424 0.09982,0.314744 0,0.06932 0.04457,0.186503 0.09923,0.260408 0.09578,0.1295525 0.09943,0.1738005 0.101619,1.2332125 0.0015,0.865811 -0.01078,1.114644 -0.05952,1.173366 -0.03401,0.04099 -0.05147,0.113899 -0.03895,0.162023 0.0126,0.04812 -0.0053,0.236233 -0.04054,0.418023 -0.03492,0.181793 -0.06286,0.411827 -0.06218,0.511191 6.99e-4,0.09937 -0.02946,0.238878 -0.06704,0.310032 -0.03758,0.07115 -0.06833,0.173794 -0.06833,0.228088 0,0.05429 -0.02407,0.12281 -0.05352,0.152258 -0.02984,0.02981 -0.05527,0.188951 -0.0574,0.359068 -0.003,0.212004 -0.03341,0.367744 -0.100359,0.508774 -0.132161,0.278443 -0.166143,0.406493 -0.107875,0.406493 0.06096,0 0.06347,0.165898 0.003,0.203246 -0.02483,0.01535 -0.04517,0.08679 -0.04517,0.158757 0,0.07196 -0.06096,0.234257 -0.135495,0.360649 -0.07455,0.126392 -0.135502,0.275105 -0.135502,0.330469 0,0.140995 -0.260839,0.819692 -0.445811,1.160003 -0.157345,0.289477 -0.231906,0.500993 -0.2318,0.657564 0,0.100824 -0.02968,0.222772 -0.0662,0.270995 -0.03644,0.04822 -0.06696,0.133677 -0.06772,0.189909 -7.06e-4,0.05623 -0.01852,0.137525 -0.03948,0.180663 -0.02088,0.04313 -0.08527,0.175997 -0.142981,0.295249 -0.0577,0.119255 -0.163532,0.266117 -0.235125,0.326363 -0.107662,0.09059 -0.121988,0.124843 -0.08284,0.197993 0.0738,0.137847 0.05595,0.298393 -0.04297,0.387966 -0.04965,0.04496 -0.09033,0.107332 -0.09033,0.138605 0,0.08238 -0.274687,0.60663 -0.317855,0.60663 -0.05542,0 -0.145904,0.310204 -0.119681,0.410466 0.01556,0.05947 -0.02847,0.143005 -0.134621,0.25558 -0.125907,0.133497 -0.152676,0.192485 -0.132709,0.292354 0.01883,0.09426 -0.0061,0.161373 -0.09999,0.272138 -0.215135,0.253001 -0.269813,0.364953 -0.23035,0.471625 0.02832,0.07648 0.0023,0.141631 -0.118678,0.293343 -0.08527,0.107269 -0.155249,0.242713 -0.155485,0.300981 -3.49e-4,0.05827 -0.03401,0.16271 -0.07493,0.232085 -0.123408,0.208923 -0.06461,0.28291 0.268955,0.338449 0.09721,0.01618 0.212182,0.07499 0.26468,0.135371 0.05102,0.05871 0.146473,0.120141 0.212053,0.136501 0.138494,0.03456 0.277314,0.148121 0.277314,0.226867 0,0.03006 0.04305,0.109373 0.09564,0.17625 0.05261,0.06688 0.105749,0.196535 0.118094,0.288126 0.01238,0.0916 0.05064,0.206739 0.08502,0.255878 0.07938,0.113326 0.09133,1.491443 0.01336,1.539634 -0.02961,0.0183 -0.03781,0.09114 -0.02065,0.182696 0.01723,0.09205 0.0061,0.192718 -0.02923,0.254533 -0.03181,0.05624 -0.06218,0.173391 -0.06749,0.260335 -0.01609,0.263316 -0.06726,0.561875 -0.104466,0.609737 -0.06096,0.07846 -0.106387,0.880735 -0.04988,0.880735 0.10231,0 0.119711,0.0073 0.208037,0.087 0.04965,0.04484 0.158589,0.09436 0.242018,0.110028 0.08342,0.01567 0.270997,0.118189 0.416832,0.227811 0.145827,0.109622 0.280814,0.206231 0.299968,0.214686 0.01913,0.0084 0.151696,0.145868 0.294533,0.305358 0.202448,0.22605 0.259707,0.322073 0.259707,0.435535 0,0.08772 0.02695,0.155879 0.06772,0.171548 0.03728,0.0143 0.06772,0.05604 0.06772,0.09278 0,0.03673 0.05087,0.162407 0.112992,0.279286 0.08581,0.161378 0.115695,0.292202 0.124205,0.543715 0.0061,0.182166 0.03158,0.338857 0.05641,0.348207 0.02483,0.0094 0.106144,-0.06055 0.180667,-0.155325 0.07455,-0.09478 0.161406,-0.173265 0.193073,-0.174416 0.03166,-0.0011 0.07539,-0.04889 0.09712,-0.106096 0.0369,-0.09705 0.464555,-0.573484 0.514769,-0.573484 0.01253,0 0.146579,-0.121947 0.297964,-0.270995 0.151377,-0.149046 0.304865,-0.270995 0.341086,-0.270995 0.03621,0 0.08549,-0.03665 0.109454,-0.08146 0.05034,-0.09402 0.529263,-0.341174 0.58927,-0.304085 0.07554,0.04667 0.273632,-0.0618 0.273632,-0.149801 0,-0.112779 0.06833,-0.161224 0.325196,-0.230706 0.11675,-0.03158 0.24693,-0.0957 0.289286,-0.142503 0.04236,-0.0468 0.102963,-0.0851 0.134683,-0.0851 0.03173,0 0.09925,-0.05839 0.150056,-0.129744 0.05398,-0.07586 0.16316,-0.149544 0.262782,-0.177415 0.26194,-0.07328 0.54904,-0.184274 0.658562,-0.254606 0.05679,-0.03648 0.291298,-0.07693 0.550338,-0.09494 0.248251,-0.01726 0.499152,-0.04955 0.557573,-0.07176 0.05838,-0.02221 0.308798,-0.243393 0.556411,-0.491526 0.247606,-0.248132 0.470462,-0.451147 0.495228,-0.451147 0.02475,0 0.130195,-0.07093 0.234289,-0.157624 0.211787,-0.176378 0.509402,-0.3392 0.620017,-0.3392 0.04009,0 0.119332,-0.04941 0.176059,-0.109798 l 0.103153,-0.109802 0.209585,0.147094 c 0.189338,0.132874 0.210891,0.166406 0.223008,0.34692 0.0076,0.109906 0.03986,0.220152 0.07212,0.244993 0.06802,0.05233 0.208075,0.31088 0.208075,0.384062 0,0.02739 -0.05079,0.124582 -0.112916,0.215974 -0.0621,0.09139 -0.112916,0.199611 -0.112916,0.240485 0,0.04087 -0.03211,0.100933 -0.07129,0.133465 -0.03918,0.03253 -0.118299,0.151888 -0.175778,0.265236 -0.05747,0.113343 -0.145767,0.243363 -0.196193,0.288931 -0.05041,0.04557 -0.167078,0.203082 -0.259214,0.350034 -0.09213,0.146952 -0.185185,0.267188 -0.206777,0.267188 -0.02156,0 -0.03925,0.07045 -0.03925,0.156549 0,0.0861 -0.02877,0.22329 -0.064,0.30487 -0.03515,0.08157 -0.09459,0.219455 -0.132003,0.306399 -0.08469,0.196796 -0.18034,0.875219 -0.140923,0.999435 0.02232,0.07029 0.05459,0.08584 0.135928,0.06543 0.22502,-0.05648 0.336478,-0.116652 0.336478,-0.181659 0,-0.15012 0.285961,-0.617707 0.484811,-0.792742 0.154437,-0.135936 0.212926,-0.221936 0.219949,-0.323361 0.0053,-0.076 0.03173,-0.16037 0.05891,-0.1875 0.0271,-0.02713 0.04935,-0.08475 0.04935,-0.128041 0,-0.12991 0.178701,-0.391808 0.294137,-0.431086 0.109902,-0.03739 0.477447,-0.500011 0.721925,-0.908685 0.0744,-0.124419 0.189132,-0.262378 0.254887,-0.306569 0.06575,-0.04419 0.164132,-0.187907 0.21862,-0.319367 0.06294,-0.151843 0.165339,-0.292908 0.280783,-0.386781 0.09995,-0.08127 0.219409,-0.234144 0.265477,-0.339719 0.05922,-0.135755 0.110738,-0.191954 0.175923,-0.191954 0.0615,0 0.1671,-0.101565 0.31708,-0.304871 0.123705,-0.167676 0.225225,-0.325387 0.225597,-0.350462 7.59e-4,-0.07949 0.18271,-0.163253 0.285794,-0.131876 0.139321,0.04241 0.256883,0.155202 0.256883,0.246479 0,0.04267 0.04077,0.169791 0.09063,0.282484 0.155264,0.351001 0.161907,0.568291 0.02764,0.903904 -0.06506,0.162606 -0.118284,0.346874 -0.118284,0.409481 0,0.06261 -0.02035,0.126403 -0.04517,0.141754 -0.02483,0.01534 -0.04517,0.07354 -0.04517,0.129296 0,0.05575 -0.05223,0.206205 -0.116082,0.334326 -0.135654,0.272228 -0.134674,0.484861 0.0023,0.484861 0.05307,0 0.126445,-0.06138 0.18066,-0.151184 0.131486,-0.217808 0.386357,-0.503721 0.449037,-0.503721 0.02953,0 0.133862,-0.09592 0.231868,-0.213143 0.098,-0.117223 0.223456,-0.254414 0.278779,-0.304868 0.05535,-0.05045 0.131964,-0.122215 0.170311,-0.159477 0.101588,-0.09873 0.777552,-0.889246 0.821153,-0.960319 0.02042,-0.03325 0.104261,-0.107337 0.186369,-0.164653 0.08211,-0.05732 0.198341,-0.181908 0.258288,-0.276875 0.05998,-0.09497 0.203565,-0.237729 0.319153,-0.317253 0.115588,-0.07953 0.281186,-0.223214 0.368,-0.319309 0.08682,-0.09609 0.183477,-0.174714 0.214809,-0.174714 0.03135,0 0.08129,-0.02931 0.111018,-0.06514 0.02976,-0.03583 0.116553,-0.0714 0.192928,-0.07904 0.08171,-0.0082 0.159341,-0.05101 0.188594,-0.104057 0.103069,-0.186873 0.307856,-0.429251 0.362678,-0.429251 0.03135,0 0.09344,-0.04032 0.13803,-0.0896 0.04456,-0.04927 0.191646,-0.151986 0.326768,-0.228249 0.187204,-0.105646 0.290448,-0.135388 0.433702,-0.124941 l 0.188016,0.01371 0.03136,0.220708 c 0.01723,0.121392 0.05292,0.242323 0.07937,0.268737 0.02642,0.02642 0.04806,0.213981 0.04806,0.416811 0,0.300399 -0.01678,0.390084 -0.09033,0.483627 -0.04965,0.06316 -0.09033,0.154874 -0.09033,0.203807 0,0.04893 -0.03052,0.114269 -0.06772,0.145193 -0.03728,0.03092 -0.0684,0.08931 -0.06916,0.129735 -7.06e-4,0.04044 -0.03128,0.112964 -0.06772,0.161183 -0.03644,0.04822 -0.06628,0.119911 -0.06628,0.159309 0,0.03939 -0.06096,0.138388 -0.135495,0.219985 -0.07455,0.08159 -0.135495,0.170396 -0.135495,0.197343 0,0.02694 -0.07114,0.156164 -0.158081,0.287155 -0.08695,0.130986 -0.158081,0.260755 -0.158081,0.288379 0,0.02762 -0.09146,0.186557 -0.203246,0.353188 -0.111784,0.166634 -0.203724,0.354 -0.204308,0.416364 -3.5e-4,0.06237 -0.06089,0.215022 -0.13403,0.339228 -0.179346,0.304556 -0.361737,0.689103 -0.361737,0.762687 0,0.06785 -0.293515,0.646603 -0.380542,0.750366 -0.03128,0.03726 -0.08379,0.220184 -0.11675,0.406493 -0.0517,0.292402 -0.08051,0.356187 -0.210413,0.466261 -0.116917,0.09906 -0.144568,0.151163 -0.123909,0.233471 0.02035,0.08091 -7.59e-4,0.124055 -0.0903,0.182546 -0.0643,0.04212 -0.116895,0.11335 -0.116895,0.158284 0,0.184195 -0.11158,0.546101 -0.19103,0.619633 -0.245427,0.227125 -0.306224,0.304449 -0.354578,0.450968 -0.02908,0.08816 -0.13103,0.263522 -0.22653,0.389693 -0.0955,0.126175 -0.186749,0.290892 -0.202783,0.366037 -0.01602,0.07515 -0.05443,0.187442 -0.08541,0.249547 -0.23454,0.470804 -0.339842,0.710522 -0.339827,0.773595 3.1e-5,0.111283 -0.135229,0.414429 -0.219234,0.49137 -0.04092,0.03744 -0.131372,0.09342 -0.201082,0.124396 -0.0697,0.03099 -0.113524,0.07772 -0.09737,0.10387 0.05527,0.08939 -0.02042,0.2465 -0.157922,0.327698 -0.09343,0.05519 -0.137362,0.116445 -0.137362,0.191498 0,0.06853 -0.06848,0.178835 -0.180667,0.291027 -0.09936,0.09936 -0.18066,0.199431 -0.18066,0.222367 0,0.02293 -0.04775,0.09915 -0.106045,0.169369 -0.05831,0.07022 -0.119688,0.183564 -0.13636,0.251878 -0.0167,0.06831 -0.06089,0.124206 -0.09833,0.124206 -0.03902,0 -0.07925,0.0562 -0.09438,0.131834 -0.01883,0.0942 -0.06043,0.140298 -0.145653,0.161484 -0.06559,0.01631 -0.201401,0.12267 -0.301752,0.236372 -0.155773,0.176486 -0.215219,0.211381 -0.406492,0.238577 -0.123226,0.01754 -0.257612,0.04632 -0.298647,0.064 -0.0533,0.02296 -0.111367,-0.01391 -0.203246,-0.129066 z M 9.43106,36.157293 c 0.039251,-0.07595 0.099258,-0.165939 0.1333006,-0.199978 0.1183899,-0.118388 0.051322,-0.289708 -0.2203962,-0.563078 -0.043502,-0.04373 -0.079686,-0.135411 -0.080475,-0.203724 -7.061e-4,-0.06831 -0.031279,-0.163661 -0.067721,-0.211877 -0.036442,-0.04823 -0.066278,-0.171267 -0.066278,-0.273443 0,-0.129348 -0.04168,-0.2515 -0.1372333,-0.402167 -0.1199843,-0.189199 -0.1364893,-0.25417 -0.1313267,-0.516957 0.00888,-0.453289 -0.025965,-0.6627 -0.1360718,-0.817357 -0.08002,-0.112381 -0.09383,-0.175402 -0.069695,-0.318123 0.019967,-0.117945 0.0038,-0.266155 -0.048968,-0.439355 -0.043426,-0.14375 -0.082897,-0.405055 -0.087642,-0.580671 -0.00607,-0.218708 -0.034012,-0.358085 -0.089275,-0.442389 -0.069467,-0.106023 -0.07677,-0.187006 -0.052689,-0.584014 0.032494,-0.53506 -0.022548,-1.052494 -0.1226034,-1.152527 -0.03834,-0.03837 -0.1056885,-0.2092 -0.1495856,-0.379623 -0.064684,-0.251032 -0.099364,-0.314766 -0.1827779,-0.335705 -0.056636,-0.0142 -0.1474825,-0.08963 -0.2019021,-0.167605 -0.1010269,-0.144748 -0.168854,-0.207591 -0.2253842,-0.208823 -0.080825,-0.0017 -0.3636272,0.822591 -0.3871245,1.128454 -0.01283,0.167139 -0.047222,0.274846 -0.1049749,0.329212 -0.1011636,0.09517 -0.099987,0.08726 -0.034392,0.231201 0.039251,0.08612 0.038036,0.145483 -0.00531,0.249523 -0.048893,0.117973 -0.044793,0.156598 0.029988,0.284321 0.077256,0.131976 0.082654,0.196165 0.050335,0.599458 -0.021865,0.272658 -0.018752,0.52326 0.00782,0.632324 0.024219,0.09936 0.065595,0.515662 0.091894,0.925104 0.033784,0.525349 0.068176,0.775473 0.116955,0.849878 0.044489,0.06787 0.054131,0.124488 0.027103,0.158878 -0.02308,0.02937 -0.054435,0.178413 -0.069619,0.33116 -0.02141,0.21491 -0.012603,0.290227 0.038947,0.332985 0.036593,0.03039 0.066582,0.129548 0.066582,0.22035 0,0.108436 0.030596,0.191272 0.089092,0.241379 0.048968,0.04196 0.1012243,0.132855 0.116044,0.201996 0.049728,0.232013 0.1101601,0.33266 0.2462243,0.41008 0.074402,0.04232 0.1354947,0.09727 0.1358363,0.122118 6.985e-4,0.04955 0.2488739,0.305495 0.4967837,0.512266 0.1838027,0.153297 0.2341757,0.166662 0.6458073,0.171334 0.2981993,0.0035 0.3091318,-3.52e-4 0.3784773,-0.134605 z M 22.974027,23.568924 c 0.03599,-0.135151 0.06559,-0.299128 0.0659,-0.364403 3.56e-4,-0.06527 0.03105,-0.143974 0.06825,-0.174899 0.03728,-0.03092 0.06787,-0.07914 0.06795,-0.107152 0,-0.02801 0.05094,-0.150917 0.112916,-0.273122 0.06203,-0.122204 0.112727,-0.268104 0.112727,-0.324222 0,-0.10081 0.105855,-0.243986 0.180386,-0.243986 0.02111,0 0.06354,-0.07622 0.09416,-0.169372 0.03067,-0.09315 0.104595,-0.243385 0.164337,-0.333838 0.06802,-0.102997 0.118663,-0.261786 0.135487,-0.424835 0.01625,-0.157154 0.058,-0.291477 0.105377,-0.338865 0.07802,-0.07802 0.164792,-0.432887 0.117433,-0.480243 -0.02278,-0.02275 0.181829,-0.459237 0.239566,-0.511137 0.03538,-0.03181 0.13756,-0.332926 0.13756,-0.405435 0,-0.03315 0.04791,-0.123172 0.106395,-0.20004 0.05853,-0.07687 0.149995,-0.225364 0.203291,-0.32999 0.0533,-0.104632 0.138053,-0.228589 0.188373,-0.275471 0.131828,-0.12282 0.17943,-0.335812 0.17943,-0.802935 0,-0.35372 0.0126,-0.42249 0.09033,-0.492831 0.04965,-0.04496 0.09033,-0.106343 0.09033,-0.136406 0,-0.03006 0.03887,-0.104093 0.0864,-0.164507 0.04753,-0.06042 0.120258,-0.230837 0.161627,-0.378711 0.04138,-0.147872 0.105719,-0.336299 0.143003,-0.418731 0.03728,-0.08243 0.06279,-0.2247 0.05664,-0.316161 -0.01313,-0.19672 0.04555,-0.542667 0.09763,-0.574834 0.02012,-0.01245 0.05018,-0.11305 0.06673,-0.223562 0.01746,-0.116343 0.07562,-0.24997 0.138106,-0.317434 0.119165,-0.128583 0.129308,-0.196169 0.0637,-0.424839 -0.03151,-0.109816 -0.02558,-0.259482 0.0205,-0.519108 0.06316,-0.356015 0.191357,-1.220241 0.235314,-1.586839 0.01572,-0.130761 0.0023,-0.199772 -0.04768,-0.241009 -0.09101,-0.07554 -0.12892,-0.04755 -0.234412,0.173098 -0.04821,0.100737 -0.122747,0.194614 -0.165726,0.208616 -0.108991,0.03551 -0.260596,0.400254 -0.260596,0.626967 0,0.149566 -0.02733,0.215214 -0.130711,0.314281 -0.0719,0.06888 -0.156335,0.216742 -0.187645,0.32859 -0.03128,0.111849 -0.09444,0.226787 -0.140285,0.255413 -0.05519,0.03446 -0.08344,0.105611 -0.08363,0.210558 0,0.08718 -0.03211,0.219483 -0.07106,0.294007 -0.04016,0.07684 -0.06021,0.188427 -0.04639,0.257766 0.01632,0.08191 -0.01222,0.186254 -0.0865,0.31616 -0.06096,0.106641 -0.111102,0.229894 -0.111398,0.273899 -3.49e-4,0.044 -0.05147,0.156915 -0.113637,0.25091 -0.145805,0.220323 -0.289188,0.732652 -0.387709,1.385383 -0.0473,0.313266 -0.08047,0.422495 -0.203443,0.669855 -0.035,0.07032 -0.06355,0.157971 -0.06355,0.194759 0,0.115543 -0.143997,0.512944 -0.18586,0.512944 -0.02194,0 -0.03993,0.09254 -0.03993,0.205644 0,0.142354 -0.03318,0.254486 -0.107844,0.364352 -0.08914,0.131176 -0.09993,0.179738 -0.06218,0.279893 0.03614,0.0958 0.02596,0.163731 -0.04836,0.324421 -0.158112,0.341707 -0.242952,0.640546 -0.217709,0.766785 0.01526,0.07644 -0.0076,0.168355 -0.06279,0.252558 -0.04775,0.07281 -0.110851,0.244171 -0.140194,0.380797 -0.02931,0.136627 -0.06969,0.27006 -0.08965,0.296517 -0.01997,0.02646 -0.03181,0.151342 -0.02642,0.277526 0.0068,0.165566 -0.01215,0.253738 -0.06916,0.31678 -0.0435,0.04804 -0.07905,0.155104 -0.07905,0.237911 0,0.08281 -0.04806,0.233639 -0.106744,0.335184 -0.07524,0.130163 -0.116006,0.291229 -0.138114,0.54596 -0.01723,0.198729 -0.06066,0.406343 -0.09649,0.46136 -0.03583,0.05502 -0.06514,0.173219 -0.06514,0.262676 0,0.08945 -0.02171,0.203249 -0.04828,0.252886 -0.03545,0.06627 -0.0334,0.108195 0.0077,0.157783 0.08882,0.107025 0.300416,-0.136121 0.380572,-0.437322 z"
       id="path39" />
  </g>
</svg>
